STARTFONT 2.3
FONT -FontForge-Source Sans Pro-Book-I-Normal-SansPro--12-120-72-72-P-51-ISO10646-1
SIZE 12 72 72  4
FONTBOUNDINGBOX 17 17 -3 -3
COMMENT "Generated by fontforge, http://fontforge.sourceforge.net"
COMMENT "Copyright 2010, 2012, 2014 Adobe Systems Incorporated (http://www.adobe.com/), with Reserved Font Name `Source'."
STARTPROPERTIES 42
FOUNDRY "FontForge"
FAMILY_NAME "Source Sans Pro"
WEIGHT_NAME "Book"
SLANT "I"
SETWIDTH_NAME "Normal"
ADD_STYLE_NAME "SansPro"
PIXEL_SIZE 12
POINT_SIZE 120
RESOLUTION_X 72
RESOLUTION_Y 72
SPACING "P"
AVERAGE_WIDTH 51
CHARSET_REGISTRY "ISO10646"
CHARSET_ENCODING "1"
FONTNAME_REGISTRY ""
CHARSET_COLLECTIONS "ISO8859-2 ISO8859-9 ISO8859-4 ISO10646-1"
BITS_PER_PIXEL 4
FONT_NAME "SourceSansPro-Italic"
FACE_NAME "Source Sans Pro Italic"
COPYRIGHT "Copyright 2010, 2012, 2014 Adobe Systems Incorporated (http://www.adobe.com/), with Reserved Font Name `Source'."
FONT_VERSION "1.076;PS 2.000;hotconv 1.0.86;makeotf.lib2.5.63406"
FONT_ASCENT 9
FONT_DESCENT 3
UNDERLINE_POSITION -1
UNDERLINE_THICKNESS 1
X_HEIGHT 5
CAP_HEIGHT 7
RAW_ASCENT 750
RAW_DESCENT 250
ITALIC_ANGLE 5056
NORM_SPACE 2
RELATIVE_WEIGHT 40
RELATIVE_SETWIDTH 50
SUPERSCRIPT_X 0
SUPERSCRIPT_Y 4
SUPERSCRIPT_SIZE 7
SUBSCRIPT_X 0
SUBSCRIPT_Y 0
SUBSCRIPT_SIZE 7
FIGURE_WIDTH 6
AVG_LOWERCASE_WIDTH 55
AVG_UPPERCASE_WIDTH 65
ENDPROPERTIES
CHARS 856
STARTCHAR space
ENCODING 32
SWIDTH 192 0
DWIDTH 2 0
BBX 1 1 0 0
BITMAP
00
ENDCHAR
STARTCHAR exclam
ENCODING 33
SWIDTH 282 0
DWIDTH 3 0
BBX 3 9 0 0
BITMAP
0010
00D0
01C0
0390
0650
0920
0600
0000
4A00
ENDCHAR
STARTCHAR quotedbl
ENCODING 34
SWIDTH 408 0
DWIDTH 5 0
BBX 4 3 1 5
BITMAP
1C2C
4848
6464
ENDCHAR
STARTCHAR numbersign
ENCODING 35
SWIDTH 479 0
DWIDTH 6 0
BBX 6 8 0 0
BITMAP
004527
009182
0EFFFC
027190
073450
AFFFF1
090900
543600
ENDCHAR
STARTCHAR dollar
ENCODING 36
SWIDTH 480 0
DWIDTH 6 0
BBX 6 10 0 -1
BITMAP
000640
01AFB1
089164
086000
01A400
000950
0002C0
7517A0
2BFC20
038000
ENDCHAR
STARTCHAR percent
ENCODING 37
SWIDTH 791 0
DWIDTH 9 0
BBX 9 8 0 0
BITMAP
04EC101800
0C28508100
3806464000
391C378E80
0BE59491C0
00082820B0
00550944A0
028003EC20
ENDCHAR
STARTCHAR ampersand
ENCODING 38
SWIDTH 582 0
DWIDTH 7 0
BBX 7 8 0 0
BITMAP
004DD200
00C28400
00C3A000
01E91030
2C970480
A31C4B10
B606F500
4DEA5C20
ENDCHAR
STARTCHAR quotesingle
ENCODING 39
SWIDTH 242 0
DWIDTH 3 0
BBX 2 3 1 5
BITMAP
1C
48
64
ENDCHAR
STARTCHAR parenleft
ENCODING 40
SWIDTH 291 0
DWIDTH 3 0
BBX 4 11 0 -2
BITMAP
0009
0075
01A0
0740
0B00
1B00
2900
3800
2900
0A00
0900
ENDCHAR
STARTCHAR parenright
ENCODING 41
SWIDTH 293 0
DWIDTH 4 0
BBX 4 11 -1 -2
BITMAP
0054
0028
000A
000B
001B
002A
0066
00A1
0390
0A20
4500
ENDCHAR
STARTCHAR asterisk
ENCODING 42
SWIDTH 403 0
DWIDTH 5 0
BBX 4 4 1 5
BITMAP
0090
3BD8
1BB0
0131
ENDCHAR
STARTCHAR plus
ENCODING 43
SWIDTH 480 0
DWIDTH 6 0
BBX 6 7 0 0
BITMAP
002200
005600
005600
6FFFF8
005600
005600
002200
ENDCHAR
STARTCHAR comma
ENCODING 44
SWIDTH 242 0
DWIDTH 3 0
BBX 3 4 -1 -2
BITMAP
0220
08A0
0570
3800
ENDCHAR
STARTCHAR hyphen
ENCODING 45
SWIDTH 299 0
DWIDTH 4 0
BBX 4 1 0 3
BITMAP
8FF2
ENDCHAR
STARTCHAR period
ENCODING 46
SWIDTH 242 0
DWIDTH 3 0
BBX 2 2 0 0
BITMAP
33
97
ENDCHAR
STARTCHAR slash
ENCODING 47
SWIDTH 340 0
DWIDTH 4 0
BBX 6 10 -1 -1
BITMAP
00000A
000073
000190
000730
001900
008200
019000
082000
280000
810000
ENDCHAR
STARTCHAR zero
ENCODING 48
SWIDTH 480 0
DWIDTH 6 0
BBX 6 8 0 0
BITMAP
008EA0
07A1A5
0D1058
4A0067
670095
7601D1
5A1980
0AE900
ENDCHAR
STARTCHAR one
ENCODING 49
SWIDTH 480 0
DWIDTH 6 0
BBX 5 8 0 0
BITMAP
003C50
00FF20
000C00
001B00
004800
008500
00B200
9FFF80
ENDCHAR
STARTCHAR two
ENCODING 50
SWIDTH 480 0
DWIDTH 6 0
BBX 7 8 -1 0
BITMAP
002BEA00
00641B50
00000840
00001B10
0001B300
002B3000
03C20000
1FFFFA00
ENDCHAR
STARTCHAR three
ENCODING 51
SWIDTH 480 0
DWIDTH 6 0
BBX 6 8 0 0
BITMAP
02BEC2
0341A6
0013C3
01FE40
0016C0
0000E0
B317B0
3CEB20
ENDCHAR
STARTCHAR four
ENCODING 52
SWIDTH 480 0
DWIDTH 6 0
BBX 6 8 0 0
BITMAP
0002E3
001BD1
00A4C0
0763A0
590670
DFFFF4
000B20
000D00
ENDCHAR
STARTCHAR five
ENCODING 53
SWIDTH 480 0
DWIDTH 6 0
BBX 6 8 0 0
BITMAP
01FFF9
048000
084000
0BEE60
0313E0
0000D0
A317A0
3DEA10
ENDCHAR
STARTCHAR six
ENCODING 54
SWIDTH 480 0
DWIDTH 6 0
BBX 6 8 0 0
BITMAP
006DE4
05C326
0C2000
3CBE80
5C31D2
5700B2
3C14C0
07EC30
ENDCHAR
STARTCHAR seven
ENCODING 55
SWIDTH 480 0
DWIDTH 6 0
BBX 6 8 1 0
BITMAP
AFFFF2
000760
004900
00C100
067000
0C1000
2B0000
680000
ENDCHAR
STARTCHAR eight
ENCODING 56
SWIDTH 480 0
DWIDTH 6 0
BBX 6 8 0 0
BITMAP
01AEC2
069169
03A298
08FFB1
5C2790
8500B2
6913D1
0AED50
ENDCHAR
STARTCHAR nine
ENCODING 57
SWIDTH 480 0
DWIDTH 6 0
BBX 6 8 0 0
BITMAP
02BE80
0C51B4
1C0066
1E22C6
07ECC4
0001D0
522B60
4EE600
ENDCHAR
STARTCHAR colon
ENCODING 58
SWIDTH 242 0
DWIDTH 3 0
BBX 3 6 0 0
BITMAP
0410
0C30
0000
0000
3300
9700
ENDCHAR
STARTCHAR semicolon
ENCODING 59
SWIDTH 242 0
DWIDTH 3 0
BBX 4 8 -1 -2
BITMAP
0041
00C3
0000
0000
0220
08A0
0570
3800
ENDCHAR
STARTCHAR less
ENCODING 60
SWIDTH 480 0
DWIDTH 6 0
BBX 6 5 0 1
BITMAP
000396
16B830
5D4000
027B71
000044
ENDCHAR
STARTCHAR equal
ENCODING 61
SWIDTH 480 0
DWIDTH 6 0
BBX 6 3 0 2
BITMAP
6FFFF8
000000
6FFFF8
ENDCHAR
STARTCHAR greater
ENCODING 62
SWIDTH 480 0
DWIDTH 6 0
BBX 6 5 0 1
BITMAP
593000
028B61
0004D6
17B820
450000
ENDCHAR
STARTCHAR question
ENCODING 63
SWIDTH 409 0
DWIDTH 5 0
BBX 4 8 1 0
BITMAP
2CE6
432E
001D
00A5
0960
2B00
0000
A500
ENDCHAR
STARTCHAR at
ENCODING 64
SWIDTH 814 0
DWIDTH 10 0
BBX 10 10 0 -2
BITMAP
0005CEE800
009B312990
06900000B1
0B11BD6064
460953A064
640B047092
650C1A64B0
3A09E7EC20
0A92140000
018EE91000
ENDCHAR
STARTCHAR A
ENCODING 65
SWIDTH 510 0
DWIDTH 6 0
BBX 7 8 -1 0
BITMAP
00009C00
00038C00
00091C00
00350A20
00CFFF30
05700850
0C100770
69000690
ENDCHAR
STARTCHAR B
ENCODING 66
SWIDTH 583 0
DWIDTH 7 0
BBX 7 8 0 0
BITMAP
02FFEB10
05A01A70
08602B50
0BFFF600
0D003B00
1C000C20
49016D00
7FFEB300
ENDCHAR
STARTCHAR C
ENCODING 67
SWIDTH 550 0
DWIDTH 7 0
BBX 7 8 0 0
BITMAP
003BEC10
03E51560
0B500000
2D000000
4A000000
3B000000
1D613500
03CEB200
ENDCHAR
STARTCHAR D
ENCODING 68
SWIDTH 592 0
DWIDTH 7 0
BBX 7 8 0 0
BITMAP
02FFD600
05A03D60
087004A0
0B4003C0
0D1005A0
1C000C50
4902BB00
7FFD8100
ENDCHAR
STARTCHAR E
ENCODING 69
SWIDTH 503 0
DWIDTH 6 0
BBX 7 8 0 0
BITMAP
02FFFF40
05A00000
08600000
0BFFF100
0D000000
1C000000
49000000
7FFFE000
ENDCHAR
STARTCHAR F
ENCODING 70
SWIDTH 473 0
DWIDTH 6 0
BBX 7 8 0 0
BITMAP
02FFFF40
05900000
08500000
0BFFF100
0D000000
1C000000
49000000
77000000
ENDCHAR
STARTCHAR G
ENCODING 71
SWIDTH 588 0
DWIDTH 7 0
BBX 7 8 0 0
BITMAP
003BED30
02E61470
0B500000
2D000000
4A01FF60
3B000930
1D612D00
03CED600
ENDCHAR
STARTCHAR H
ENCODING 72
SWIDTH 622 0
DWIDTH 7 0
BBX 8 8 0 0
BITMAP
02C00095
059000D2
085001E0
0BFFFFB0
0D000780
1C000950
4A000C20
77000E00
ENDCHAR
STARTCHAR I
ENCODING 73
SWIDTH 252 0
DWIDTH 3 0
BBX 3 8 0 0
BITMAP
02C0
0590
0870
0B40
0D10
1D00
4A00
7700
ENDCHAR
STARTCHAR J
ENCODING 74
SWIDTH 456 0
DWIDTH 5 0
BBX 6 8 0 0
BITMAP
000096
0000C3
0000E0
0003C0
000690
000960
923E10
5ED500
ENDCHAR
STARTCHAR K
ENCODING 75
SWIDTH 559 0
DWIDTH 7 0
BBX 7 8 0 0
BITMAP
02C006A0
05906B00
0866B100
0B9E6000
0DA3B000
1D00C200
4A007700
77002D00
ENDCHAR
STARTCHAR L
ENCODING 76
SWIDTH 462 0
DWIDTH 6 0
BBX 5 8 0 0
BITMAP
02C000
059000
086000
0B3000
0D0000
1C0000
490000
7FFFB0
ENDCHAR
STARTCHAR M
ENCODING 77
SWIDTH 705 0
DWIDTH 8 0
BBX 9 8 0 0
BITMAP
02F3001E50
05D5008D20
0898029D00
0B4A094B00
0D0B285800
1C0B919500
490870C200
760100D000
ENDCHAR
STARTCHAR N
ENCODING 78
SWIDTH 619 0
DWIDTH 7 0
BBX 8 8 0 0
BITMAP
02F20094
05C700C1
086C00D0
0B3A23A0
0D058670
1C01C840
4900AC10
76005D00
ENDCHAR
STARTCHAR O
ENCODING 79
SWIDTH 633 0
DWIDTH 8 0
BBX 8 8 0 0
BITMAP
003CEC30
03E415D0
0B4000C2
2D0000B4
4B0000D1
3C0005B0
0D514D30
03CEC300
ENDCHAR
STARTCHAR P
ENCODING 80
SWIDTH 550 0
DWIDTH 7 0
BBX 7 8 0 0
BITMAP
02FFEB20
05A01990
087005A0
0B403C40
0DFEC500
1D000000
4A000000
77000000
ENDCHAR
STARTCHAR Q
ENCODING 81
SWIDTH 633 0
DWIDTH 8 0
BBX 8 10 0 -2
BITMAP
003CEC30
03E415D0
0B4000C2
2D0000B4
4B0000D2
3C0005B0
0E514E30
04DFD400
001D4000
0004CE30
ENDCHAR
STARTCHAR R
ENCODING 82
SWIDTH 555 0
DWIDTH 7 0
BBX 7 8 0 0
BITMAP
02FFEB10
05A01980
08700680
0B403C20
0DFFA200
1E06A000
4A01E100
77008700
ENDCHAR
STARTCHAR S
ENCODING 83
SWIDTH 506 0
DWIDTH 6 0
BBX 6 8 0 0
BITMAP
009ED5
06A139
078000
01CA20
0007E2
000087
9812C4
1AED70
ENDCHAR
STARTCHAR T
ENCODING 84
SWIDTH 510 0
DWIDTH 6 0
BBX 6 8 1 0
BITMAP
CFFFFB
00B300
00D100
02C000
059000
086000
0B3000
0E1000
ENDCHAR
STARTCHAR U
ENCODING 85
SWIDTH 616 0
DWIDTH 7 0
BBX 7 8 1 0
BITMAP
2C000A40
59000D10
86001D00
B2004A00
E0007700
E000C300
D517C000
4CEB2000
ENDCHAR
STARTCHAR V
ENCODING 86
SWIDTH 496 0
DWIDTH 6 0
BBX 6 8 1 0
BITMAP
E0005A
D100C2
C205A0
B30C20
944900
85B200
7A9000
5E2000
ENDCHAR
STARTCHAR W
ENCODING 87
SWIDTH 756 0
DWIDTH 9 0
BBX 9 8 1 0
BITMAP
B302E00680
C209D00B20
C21AB02B00
C274B18500
C2B0B1C000
C660B68000
CA00BB2000
D800AB0000
ENDCHAR
STARTCHAR X
ENCODING 88
SWIDTH 494 0
DWIDTH 6 0
BBX 8 8 -1 0
BITMAP
008700B3
003C0770
000D4B00
0008D100
001BD000
0094A400
05906900
2C101E00
ENDCHAR
STARTCHAR Y
ENCODING 89
SWIDTH 461 0
DWIDTH 6 0
BBX 6 8 1 0
BITMAP
D100C3
950770
582C00
1BB300
0C7000
0D1000
1D0000
3A0000
ENDCHAR
STARTCHAR Z
ENCODING 90
SWIDTH 512 0
DWIDTH 6 0
BBX 7 8 0 0
BITMAP
05FFFF60
00003B00
0002C100
001B3000
00A50000
07800000
4B000000
EFFFF300
ENDCHAR
STARTCHAR bracketleft
ENCODING 91
SWIDTH 292 0
DWIDTH 4 0
BBX 5 11 0 -2
BITMAP
00EF20
02A000
057000
084000
0A1000
0B0000
190000
460000
730000
900000
CF3000
ENDCHAR
STARTCHAR backslash
ENCODING 92
SWIDTH 340 0
DWIDTH 4 0
BBX 2 10 1 -1
BITMAP
90
90
91
73
55
37
19
0A
0A
09
ENDCHAR
STARTCHAR bracketright
ENCODING 93
SWIDTH 293 0
DWIDTH 4 0
BBX 5 11 -1 -2
BITMAP
009F70
000640
000910
000A00
000A00
003800
006500
009200
00C000
01B000
8F8000
ENDCHAR
STARTCHAR asciicircum
ENCODING 94
SWIDTH 479 0
DWIDTH 6 0
BBX 5 5 1 3
BITMAP
07A000
0BA100
385600
930B00
800610
ENDCHAR
STARTCHAR underscore
ENCODING 95
SWIDTH 483 0
DWIDTH 6 0
BBX 7 1 -1 -2
BITMAP
6FFFFF20
ENDCHAR
STARTCHAR grave
ENCODING 96
SWIDTH 517 0
DWIDTH 6 0
BBX 3 3 2 7
BITMAP
1A00
0A60
01A0
ENDCHAR
STARTCHAR a
ENCODING 97
SWIDTH 537 0
DWIDTH 6 0
BBX 6 6 0 0
BITMAP
01AE9C
0B817B
4B0058
770086
7A15E3
1CE8C0
ENDCHAR
STARTCHAR b
ENCODING 98
SWIDTH 536 0
DWIDTH 6 0
BBX 6 9 0 0
BITMAP
00D000
03B000
068000
099CE6
0C924D
0E001E
2B005A
5D24D3
88ED40
ENDCHAR
STARTCHAR c
ENCODING 99
SWIDTH 435 0
DWIDTH 5 0
BBX 5 6 0 0
BITMAP
01AEB0
0C7140
5A0000
860000
6A1320
1AEC20
ENDCHAR
STARTCHAR d
ENCODING 100
SWIDTH 535 0
DWIDTH 6 0
BBX 7 9 0 0
BITMAP
00000680
00000950
00000B20
01AE9D00
0B817B00
4B005800
77008500
7A15E300
1CE8C000
ENDCHAR
STARTCHAR e
ENCODING 101
SWIDTH 481 0
DWIDTH 6 0
BBX 6 6 0 0
BITMAP
02BEB0
0A3084
6FFFF4
860000
6B1230
0AEC30
ENDCHAR
STARTCHAR f
ENCODING 102
SWIDTH 282 0
DWIDTH 3 0
BBX 5 9 0 0
BITMAP
006E80
00E210
03B000
2FFB00
095000
0C2000
0D0000
3B0000
680000
ENDCHAR
STARTCHAR g
ENCODING 103
SWIDTH 531 0
DWIDTH 6 0
BBX 6 8 0 -2
BITMAP
02BEAC
1D518A
680077
7915E3
2DE9E0
0003C0
721B70
6EE900
ENDCHAR
STARTCHAR h
ENCODING 104
SWIDTH 519 0
DWIDTH 6 0
BBX 6 9 0 0
BITMAP
00D000
03B000
068000
09ACE5
0C817A
0E0068
2C0095
5900C2
8600D0
ENDCHAR
STARTCHAR i
ENCODING 105
SWIDTH 237 0
DWIDTH 3 0
BBX 3 9 0 0
BITMAP
0020
02D0
0000
0950
0B20
0E00
2C00
5900
8600
ENDCHAR
STARTCHAR j
ENCODING 106
SWIDTH 238 0
DWIDTH 3 0
BBX 5 11 -2 -2
BITMAP
000020
0002D0
000000
000850
000C20
000E00
003B00
007800
00A400
01E100
5E7000
ENDCHAR
STARTCHAR k
ENCODING 107
SWIDTH 476 0
DWIDTH 6 0
BBX 6 9 0 0
BITMAP
00D000
03B000
068000
095097
0C2980
0E8B00
2F7C10
5A0860
8602C0
ENDCHAR
STARTCHAR l
ENCODING 108
SWIDTH 248 0
DWIDTH 3 0
BBX 3 9 0 0
BITMAP
00D0
03B0
0680
0950
0C20
0D00
3B00
6800
5D00
ENDCHAR
STARTCHAR m
ENCODING 109
SWIDTH 799 0
DWIDTH 10 0
BBX 9 6 0 0
BITMAP
097CE49E90
0BA29E43E0
0E008701C0
2C00B30490
5900D00760
8602C00B30
ENDCHAR
STARTCHAR n
ENCODING 110
SWIDTH 525 0
DWIDTH 6 0
BBX 6 6 0 0
BITMAP
096CE5
0BA27A
0E0068
2C0095
5900C2
8600D0
ENDCHAR
STARTCHAR o
ENCODING 111
SWIDTH 515 0
DWIDTH 6 0
BBX 6 6 0 0
BITMAP
01AEC1
0C6188
5A004A
860078
6A15D1
0AEC30
ENDCHAR
STARTCHAR p
ENCODING 112
SWIDTH 535 0
DWIDTH 6 0
BBX 7 8 -1 -2
BITMAP
0098CE60
00CA24D0
00E001E0
03B005A0
06C14D30
099ED400
0C200000
1D000000
ENDCHAR
STARTCHAR q
ENCODING 113
SWIDTH 537 0
DWIDTH 6 0
BBX 6 8 0 -2
BITMAP
01AE9C
0B817B
4B0058
770085
7A15E2
1CE8D0
0003B0
000670
ENDCHAR
STARTCHAR r
ENCODING 114
SWIDTH 342 0
DWIDTH 4 0
BBX 5 6 0 0
BITMAP
096D60
0B9100
0E0000
2C0000
590000
860000
ENDCHAR
STARTCHAR s
ENCODING 115
SWIDTH 402 0
DWIDTH 5 0
BBX 5 6 0 0
BITMAP
07ED20
1D1330
0CC300
006E10
922D10
4DE600
ENDCHAR
STARTCHAR t
ENCODING 116
SWIDTH 325 0
DWIDTH 4 0
BBX 5 8 0 0
BITMAP
007000
02B000
3FFF10
086000
0B2000
0D0000
2D1000
1CE300
ENDCHAR
STARTCHAR u
ENCODING 117
SWIDTH 528 0
DWIDTH 6 0
BBX 6 6 0 0
BITMAP
09501D
0C204A
0D0077
3A00B4
5B17F1
1DE6C0
ENDCHAR
STARTCHAR v
ENCODING 118
SWIDTH 448 0
DWIDTH 5 0
BBX 6 6 0 0
BITMAP
3A0068
1C00C1
0D0670
0C1C10
0A8600
08D000
ENDCHAR
STARTCHAR w
ENCODING 119
SWIDTH 707 0
DWIDTH 8 0
BBX 9 6 0 0
BITMAP
2C00E30850
1C06B41C00
0D0A746600
0D4765C100
0CA15A8000
0B804E2000
ENDCHAR
STARTCHAR x
ENCODING 120
SWIDTH 429 0
DWIDTH 5 0
BBX 7 6 -1 0
BITMAP
00C20B30
00678600
001E9000
007C6000
05A2C000
3C10B300
ENDCHAR
STARTCHAR y
ENCODING 121
SWIDTH 448 0
DWIDTH 5 0
BBX 7 8 -1 -2
BITMAP
03B00680
00D00C10
00C07600
00A3B000
007B4000
005A0000
02C20000
9D400000
ENDCHAR
STARTCHAR z
ENCODING 122
SWIDTH 410 0
DWIDTH 5 0
BBX 7 6 -1 0
BITMAP
00BFFF10
00009600
00087000
00790000
06A00000
1FFFF200
ENDCHAR
STARTCHAR braceleft
ENCODING 123
SWIDTH 290 0
DWIDTH 3 0
BBX 5 11 0 -2
BITMAP
007F20
00D200
01B000
048000
085000
8B0000
1B0000
0A0000
270000
660000
4F3000
ENDCHAR
STARTCHAR bar
ENCODING 124
SWIDTH 231 0
DWIDTH 3 0
BBX 1 12 1 -3
BITMAP
90
90
90
90
90
90
90
90
90
90
90
90
ENDCHAR
STARTCHAR braceright
ENCODING 125
SWIDTH 293 0
DWIDTH 4 0
BBX 5 11 -1 -2
BITMAP
009D00
000C00
000A00
002800
005700
003F20
00B300
00C000
02A000
077000
9D2000
ENDCHAR
STARTCHAR asciitilde
ENCODING 126
SWIDTH 480 0
DWIDTH 6 0
BBX 6 2 0 3
BITMAP
1CC353
344DB0
ENDCHAR
STARTCHAR uni00A0
ENCODING 160
SWIDTH 192 0
DWIDTH 2 0
BBX 1 1 0 0
BITMAP
00
ENDCHAR
STARTCHAR exclamdown
ENCODING 161
SWIDTH 282 0
DWIDTH 3 0
BBX 3 9 0 -3
BITMAP
05A0
0000
0410
0A00
0B00
2A00
6700
9400
2100
ENDCHAR
STARTCHAR cent
ENCODING 162
SWIDTH 480 0
DWIDTH 6 0
BBX 5 8 1 0
BITMAP
001800
04AC40
5A7330
C19000
D09000
E39400
5EE800
072000
ENDCHAR
STARTCHAR sterling
ENCODING 163
SWIDTH 480 0
DWIDTH 6 0
BBX 6 8 0 0
BITMAP
004DE5
00D427
03A000
03A000
3FFF70
039000
083000
AFFFB0
ENDCHAR
STARTCHAR currency
ENCODING 164
SWIDTH 480 0
DWIDTH 6 0
BBX 6 6 0 1
BITMAP
010002
0ACEC7
1D31B3
2C13C1
7BECB1
100010
ENDCHAR
STARTCHAR yen
ENCODING 165
SWIDTH 480 0
DWIDTH 6 0
BBX 7 8 0 0
BITMAP
09400C10
05807500
01B2A000
00BA2000
5FFFF500
18F50000
00D00000
01C00000
ENDCHAR
STARTCHAR brokenbar
ENCODING 166
SWIDTH 231 0
DWIDTH 3 0
BBX 1 12 1 -3
BITMAP
90
90
90
90
90
50
50
90
90
90
90
90
ENDCHAR
STARTCHAR section
ENCODING 167
SWIDTH 477 0
DWIDTH 6 0
BBX 6 9 0 -1
BITMAP
009EA0
02C162
05B200
390660
3C10A2
07D6D2
002E40
632D10
3CE700
ENDCHAR
STARTCHAR dieresis
ENCODING 168
SWIDTH 517 0
DWIDTH 6 0
BBX 4 1 2 7
BITMAP
6639
ENDCHAR
STARTCHAR copyright
ENCODING 169
SWIDTH 665 0
DWIDTH 8 0
BBX 8 8 0 0
BITMAP
004CED70
05B30296
1A08E709
62781308
80A00008
63B22266
2C8EEAA0
03CED700
ENDCHAR
STARTCHAR ordfeminine
ENCODING 170
SWIDTH 354 0
DWIDTH 4 0
BBX 4 5 1 4
BITMAP
1BB4
9649
B046
C1A3
9D61
ENDCHAR
STARTCHAR guillemotleft
ENCODING 171
SWIDTH 411 0
DWIDTH 5 0
BBX 5 4 0 1
BITMAP
036450
395800
566400
080800
ENDCHAR
STARTCHAR logicalnot
ENCODING 172
SWIDTH 480 0
DWIDTH 6 0
BBX 6 4 0 0
BITMAP
6FFFF8
000038
000038
000013
ENDCHAR
STARTCHAR uni00AD
ENCODING 173
SWIDTH 299 0
DWIDTH 4 0
BBX 4 1 0 3
BITMAP
8FF2
ENDCHAR
STARTCHAR registered
ENCODING 174
SWIDTH 406 0
DWIDTH 5 0
BBX 6 5 0 4
BITMAP
02CE60
09BE91
167852
0ADDA0
06FF30
ENDCHAR
STARTCHAR macron
ENCODING 175
SWIDTH 517 0
DWIDTH 6 0
BBX 4 1 2 7
BITMAP
7FF9
ENDCHAR
STARTCHAR degree
ENCODING 176
SWIDTH 313 0
DWIDTH 4 0
BBX 3 3 1 5
BITMAP
4EB0
A2A0
7E80
ENDCHAR
STARTCHAR plusminus
ENCODING 177
SWIDTH 480 0
DWIDTH 6 0
BBX 6 8 0 0
BITMAP
001100
005600
005600
6FFFF8
005600
005600
001100
6FFFF8
ENDCHAR
STARTCHAR two.sups
ENCODING 178
SWIDTH 353 0
DWIDTH 4 0
BBX 4 5 1 5
BITMAP
1BE4
2457
0061
0410
BFF1
ENDCHAR
STARTCHAR three.sups
ENCODING 179
SWIDTH 351 0
DWIDTH 4 0
BBX 4 5 1 5
BITMAP
1BE4
0376
0BB0
71A2
6EB0
ENDCHAR
STARTCHAR acute
ENCODING 180
SWIDTH 517 0
DWIDTH 6 0
BBX 3 2 3 7
BITMAP
0670
7700
ENDCHAR
STARTCHAR uni00B5
ENCODING 181
SWIDTH 526 0
DWIDTH 6 0
BBX 7 9 -1 -2
BITMAP
00110030
00A402C0
00D10590
01D00860
04A00B30
07B17E10
0ABE5A00
0C100000
1D000000
ENDCHAR
STARTCHAR paragraph
ENCODING 182
SWIDTH 535 0
DWIDTH 6 0
BBX 7 9 0 -1
BITMAP
019D9B30
0AFF7E00
1FFF6C00
1FFF6900
06ED8600
0001B300
0000E000
0002C000
00047000
ENDCHAR
STARTCHAR periodcentered
ENCODING 183
SWIDTH 242 0
DWIDTH 3 0
BBX 2 2 1 3
BITMAP
41
D2
ENDCHAR
STARTCHAR cedilla
ENCODING 184
SWIDTH 517 0
DWIDTH 6 0
BBX 3 3 1 -3
BITMAP
2A00
1B10
EA00
ENDCHAR
STARTCHAR one.sups
ENCODING 185
SWIDTH 356 0
DWIDTH 4 0
BBX 2 5 2 5
BITMAP
8D
0A
38
65
62
ENDCHAR
STARTCHAR ordmasculine
ENCODING 186
SWIDTH 348 0
DWIDTH 4 0
BBX 5 5 0 4
BITMAP
04DB00
0C2930
370830
492C00
0CD400
ENDCHAR
STARTCHAR guillemotright
ENCODING 187
SWIDTH 411 0
DWIDTH 5 0
BBX 5 4 0 1
BITMAP
080800
056650
085930
646300
ENDCHAR
STARTCHAR onequarter
ENCODING 188
SWIDTH 748 0
DWIDTH 9 0
BBX 8 9 1 -1
BITMAP
4C500270
09200900
0B007200
0A0451D2
261808A0
00914390
0631EFF4
36000370
00000110
ENDCHAR
STARTCHAR onehalf
ENCODING 189
SWIDTH 772 0
DWIDTH 9 0
BBX 8 8 1 0
BITMAP
5C400540
09102700
0B009000
1A072AE5
26451448
01800052
09100320
6300AFF3
ENDCHAR
STARTCHAR threequarters
ENCODING 190
SWIDTH 764 0
DWIDTH 9 0
BBX 9 9 0 -1
BITMAP
04EC000810
022C106300
01F6037000
342B190A60
0BE6826A30
0005525900
00280CFF80
0090000A00
0000000200
ENDCHAR
STARTCHAR questiondown
ENCODING 191
SWIDTH 409 0
DWIDTH 5 0
BBX 4 8 0 -2
BITMAP
0059
0000
00B1
0790
5A00
D000
E234
6EC2
ENDCHAR
STARTCHAR Agrave
ENCODING 192
SWIDTH 510 0
DWIDTH 6 0
BBX 7 10 -1 0
BITMAP
0000B200
00003900
00009C00
00038C00
00091C00
00350A20
00CFFF30
05700850
0C100770
69000690
ENDCHAR
STARTCHAR Aacute
ENCODING 193
SWIDTH 510 0
DWIDTH 6 0
BBX 7 10 -1 0
BITMAP
000004A0
00003A20
00009C00
00038C00
00091C00
00350A20
00CFFF30
05700850
0C100770
69000690
ENDCHAR
STARTCHAR Acircumflex
ENCODING 194
SWIDTH 510 0
DWIDTH 6 0
BBX 7 10 -1 0
BITMAP
00007F40
0004A3A0
00009C00
00038C00
00091C00
00350A20
00CFFF30
05700850
0C100770
69000690
ENDCHAR
STARTCHAR Atilde
ENCODING 195
SWIDTH 510 0
DWIDTH 6 0
BBX 8 12 -1 0
BITMAP
00001000
0006E856
00091BC1
00000000
00009C00
00038C00
00091C00
00350A20
00CFFF30
05700850
0C100770
69000690
ENDCHAR
STARTCHAR Adieresis
ENCODING 196
SWIDTH 510 0
DWIDTH 6 0
BBX 7 10 -1 0
BITMAP
000481B0
00000000
00009C00
00038C00
00091C00
00350A20
00CFFF30
05700850
0C100770
69000690
ENDCHAR
STARTCHAR Aring
ENCODING 197
SWIDTH 510 0
DWIDTH 6 0
BBX 7 11 -1 0
BITMAP
00006E40
0000A470
00008D20
00009C00
00038C00
00091C00
00350A20
00CFFF30
05700850
0C100770
69000690
ENDCHAR
STARTCHAR AE
ENCODING 198
SWIDTH 803 0
DWIDTH 10 0
BBX 11 8 -1 0
BITMAP
000004EFFFD0
00001CA50000
000096B20000
0004B0EFFA00
001D22B00000
00AFFF800000
05C107500000
2D200BFFF800
ENDCHAR
STARTCHAR Ccedilla
ENCODING 199
SWIDTH 550 0
DWIDTH 7 0
BBX 7 11 0 -3
BITMAP
003BEC10
03E51560
0B500000
2D000000
4A000000
3B000000
1D613500
03CEB200
00470000
002B0000
03E70000
ENDCHAR
STARTCHAR Egrave
ENCODING 200
SWIDTH 503 0
DWIDTH 6 0
BBX 7 10 0 0
BITMAP
000A3000
0002A000
02FFFF40
05A00000
08600000
0BFFF100
0D000000
1C000000
49000000
7FFFE000
ENDCHAR
STARTCHAR Eacute
ENCODING 201
SWIDTH 503 0
DWIDTH 6 0
BBX 7 10 0 0
BITMAP
00003B00
0001A200
02FFFF40
05A00000
08600000
0BFFF100
0D000000
1C000000
49000000
7FFFE000
ENDCHAR
STARTCHAR Ecircumflex
ENCODING 202
SWIDTH 503 0
DWIDTH 6 0
BBX 7 10 0 0
BITMAP
0006F600
003B3B00
02FFFF40
05A00000
08600000
0BFFF100
0D000000
1C000000
49000000
7FFFE000
ENDCHAR
STARTCHAR Edieresis
ENCODING 203
SWIDTH 503 0
DWIDTH 6 0
BBX 7 10 0 0
BITMAP
002A0B00
00000000
02FFFF40
05A00000
08600000
0BFFF100
0D000000
1C000000
49000000
7FFFE000
ENDCHAR
STARTCHAR Igrave
ENCODING 204
SWIDTH 252 0
DWIDTH 3 0
BBX 4 10 0 0
BITMAP
0850
01A1
02C0
0590
0870
0B40
0D10
1D00
4A00
7700
ENDCHAR
STARTCHAR Iacute
ENCODING 205
SWIDTH 252 0
DWIDTH 3 0
BBX 5 10 0 0
BITMAP
001A20
00A400
02C000
059000
087000
0B4000
0D1000
1D0000
4A0000
770000
ENDCHAR
STARTCHAR Icircumflex
ENCODING 206
SWIDTH 252 0
DWIDTH 3 0
BBX 5 10 0 0
BITMAP
03E900
1B3A20
02C000
059000
087000
0B4000
0D1000
1D0000
4A0000
770000
ENDCHAR
STARTCHAR Idieresis
ENCODING 207
SWIDTH 252 0
DWIDTH 3 0
BBX 5 10 0 0
BITMAP
0B0920
000000
02C000
059000
087000
0B4000
0D1000
1D0000
4A0000
770000
ENDCHAR
STARTCHAR Eth
ENCODING 208
SWIDTH 610 0
DWIDTH 7 0
BBX 7 8 0 0
BITMAP
00EFD810
02D02B90
059001E0
5FFE30E0
0A4102D0
0D100980
1C028D10
4FFEA200
ENDCHAR
STARTCHAR Ntilde
ENCODING 209
SWIDTH 619 0
DWIDTH 7 0
BBX 8 12 0 0
BITMAP
00001000
000BE3A1
00273E80
00000000
02F20094
05C700C1
086C00D0
0B3A23A0
0D058670
1C01C840
4900AC10
76005D00
ENDCHAR
STARTCHAR Ograve
ENCODING 210
SWIDTH 633 0
DWIDTH 8 0
BBX 8 10 0 0
BITMAP
0003A000
00006600
003CEC30
03E415D0
0B4000C2
2D0000B4
4B0000D1
3C0005B0
0D514D30
03CEC300
ENDCHAR
STARTCHAR Oacute
ENCODING 211
SWIDTH 633 0
DWIDTH 8 0
BBX 8 10 0 0
BITMAP
00000770
00007700
003CEC30
03E415D0
0B4000C2
2D0000B4
4B0000D1
3C0005B0
0D514D30
03CEC300
ENDCHAR
STARTCHAR Ocircumflex
ENCODING 212
SWIDTH 633 0
DWIDTH 8 0
BBX 8 10 0 0
BITMAP
0000BE10
00087670
003CEC30
03E415D0
0B4000C2
2D0000B4
4B0000D1
3C0005B0
0D514D30
03CEC300
ENDCHAR
STARTCHAR Otilde
ENCODING 213
SWIDTH 633 0
DWIDTH 8 0
BBX 8 12 0 0
BITMAP
00001000
000AE4A1
00192D90
00000000
003CEC30
03E415D0
0B4000C2
2D0000B4
4B0000D1
3C0005B0
0D514D30
03CEC300
ENDCHAR
STARTCHAR Odieresis
ENCODING 214
SWIDTH 633 0
DWIDTH 8 0
BBX 8 10 0 0
BITMAP
00084570
00000000
003CEC30
03E415D0
0B4000C2
2D0000B4
4B0000D1
3C0005B0
0D514D30
03CEC300
ENDCHAR
STARTCHAR multiply
ENCODING 215
SWIDTH 480 0
DWIDTH 6 0
BBX 6 5 0 1
BITMAP
1A0091
04A950
00AB00
086590
160051
ENDCHAR
STARTCHAR Oslash
ENCODING 216
SWIDTH 633 0
DWIDTH 8 0
BBX 8 10 0 -1
BITMAP
00000001
004CEC5B
04D417F3
0C301BF2
2C03D7B4
4B6D40C2
2FC203C0
2F714D40
B6CEC300
10000000
ENDCHAR
STARTCHAR Ugrave
ENCODING 217
SWIDTH 616 0
DWIDTH 7 0
BBX 7 10 1 0
BITMAP
00480000
00084000
2C000A40
59000D10
86001D00
B2004A00
E0007700
E000C300
D517C000
4CEB2000
ENDCHAR
STARTCHAR Uacute
ENCODING 218
SWIDTH 616 0
DWIDTH 7 0
BBX 7 10 1 0
BITMAP
00008500
00086000
2C000A40
59000D10
86001D00
B2004A00
E0007700
E000C300
D517C000
4CEB2000
ENDCHAR
STARTCHAR Ucircumflex
ENCODING 219
SWIDTH 616 0
DWIDTH 7 0
BBX 7 10 1 0
BITMAP
001DC000
00A58500
2C000A40
59000D10
86001D00
B2004A00
E0007700
E000C300
D517C000
4CEB2000
ENDCHAR
STARTCHAR Udieresis
ENCODING 220
SWIDTH 616 0
DWIDTH 7 0
BBX 7 10 1 0
BITMAP
00926500
00000000
2C000A40
59000D10
86001D00
B2004A00
E0007700
E000C300
D517C000
4CEB2000
ENDCHAR
STARTCHAR Yacute
ENCODING 221
SWIDTH 461 0
DWIDTH 6 0
BBX 6 10 1 0
BITMAP
000850
008600
D100C3
950770
582C00
1BB300
0C7000
0D1000
1D0000
3A0000
ENDCHAR
STARTCHAR Thorn
ENCODING 222
SWIDTH 562 0
DWIDTH 7 0
BBX 7 8 0 0
BITMAP
02C00000
05FFE900
08602C50
0B300960
0D015D10
1FFEB300
49000000
77000000
ENDCHAR
STARTCHAR germandbls
ENCODING 223
SWIDTH 555 0
DWIDTH 7 0
BBX 6 9 0 0
BITMAP
004DE6
01E43C
05A039
0962A1
0C3860
0E03C3
2C001C
59222D
864DE5
ENDCHAR
STARTCHAR agrave
ENCODING 224
SWIDTH 537 0
DWIDTH 6 0
BBX 6 10 0 0
BITMAP
001A00
000A60
000190
000000
01AE9C
0B817B
4B0058
770086
7A15E3
1CE8C0
ENDCHAR
STARTCHAR aacute
ENCODING 225
SWIDTH 537 0
DWIDTH 6 0
BBX 6 9 0 0
BITMAP
000077
000770
000000
01AE9C
0B817B
4B0058
770086
7A15E3
1CE8C0
ENDCHAR
STARTCHAR acircumflex
ENCODING 226
SWIDTH 537 0
DWIDTH 6 0
BBX 6 9 0 0
BITMAP
000AE1
007958
002002
01AE9C
0B817B
4B0058
770086
7A15E3
1CE8C0
ENDCHAR
STARTCHAR atilde
ENCODING 227
SWIDTH 537 0
DWIDTH 6 0
BBX 7 10 0 0
BITMAP
00030110
009D6930
00A0CA00
00000000
01AE9C00
0B817B00
4B005800
77008600
7A15E300
1CE8C000
ENDCHAR
STARTCHAR adieresis
ENCODING 228
SWIDTH 537 0
DWIDTH 6 0
BBX 6 8 0 0
BITMAP
006538
000000
01AE9C
0B817B
4B0058
770086
7A15E3
1CE8C0
ENDCHAR
STARTCHAR aring
ENCODING 229
SWIDTH 537 0
DWIDTH 6 0
BBX 6 9 0 0
BITMAP
000AE3
002A65
000DC1
01AE9C
0B817B
4B0058
770086
7A15E3
1CE8C0
ENDCHAR
STARTCHAR ae
ENCODING 230
SWIDTH 761 0
DWIDTH 9 0
BBX 9 6 0 0
BITMAP
03CE86ED30
0331D713A0
05BEFFFFA0
5B31D00000
9717F51400
4EE74DE700
ENDCHAR
STARTCHAR ccedilla
ENCODING 231
SWIDTH 435 0
DWIDTH 5 0
BBX 5 9 0 -3
BITMAP
01AEB0
0C7140
5A0000
860000
6A1320
1AEC20
038000
01B000
2E8000
ENDCHAR
STARTCHAR egrave
ENCODING 232
SWIDTH 481 0
DWIDTH 6 0
BBX 6 10 0 0
BITMAP
003900
000C30
000380
000000
02BEB0
0A3084
6FFFF4
860000
6B1230
0AEC30
ENDCHAR
STARTCHAR eacute
ENCODING 233
SWIDTH 481 0
DWIDTH 6 0
BBX 6 9 0 0
BITMAP
000095
000950
000000
02BEB0
0A3084
6FFFF4
860000
6B1230
0AEC30
ENDCHAR
STARTCHAR ecircumflex
ENCODING 234
SWIDTH 481 0
DWIDTH 6 0
BBX 6 9 0 0
BITMAP
000CD0
00A686
002002
02BEB0
0A3084
6FFFF4
860000
6B1230
0AEC30
ENDCHAR
STARTCHAR edieresis
ENCODING 235
SWIDTH 481 0
DWIDTH 6 0
BBX 6 8 0 0
BITMAP
009366
000000
02BEB0
0A3084
6FFFF4
860000
6B1230
0AEC30
ENDCHAR
STARTCHAR igrave
ENCODING 236
SWIDTH 237 0
DWIDTH 3 0
BBX 4 10 0 0
BITMAP
0920
06A0
00A1
0000
0950
0B20
0E00
2C00
5900
8600
ENDCHAR
STARTCHAR iacute
ENCODING 237
SWIDTH 237 0
DWIDTH 3 0
BBX 4 9 0 0
BITMAP
004A
0491
0000
0950
0B20
0E00
2C00
5900
8600
ENDCHAR
STARTCHAR icircumflex
ENCODING 238
SWIDTH 237 0
DWIDTH 3 0
BBX 4 9 0 0
BITMAP
05F5
3B3B
2002
0950
0B20
0E00
2C00
5900
8600
ENDCHAR
STARTCHAR idieresis
ENCODING 239
SWIDTH 237 0
DWIDTH 3 0
BBX 4 8 0 0
BITMAP
390B
0000
0950
0B20
0E00
2C00
5900
8600
ENDCHAR
STARTCHAR eth
ENCODING 240
SWIDTH 524 0
DWIDTH 6 0
BBX 7 9 0 0
BITMAP
004A2730
000BF700
003DE100
00A4C600
00007900
06DEB800
3B218500
6802A000
1BEC2000
ENDCHAR
STARTCHAR ntilde
ENCODING 241
SWIDTH 525 0
DWIDTH 6 0
BBX 7 10 0 0
BITMAP
00030120
006C9650
00909C10
00000000
096CE500
0BA27A00
0E006800
2C009500
5900C200
8600D000
ENDCHAR
STARTCHAR ograve
ENCODING 242
SWIDTH 515 0
DWIDTH 6 0
BBX 6 10 0 0
BITMAP
001A00
000A60
0001A0
000000
01AEC1
0C6188
5A004A
860078
6A15D1
0AEC30
ENDCHAR
STARTCHAR oacute
ENCODING 243
SWIDTH 515 0
DWIDTH 6 0
BBX 6 9 0 0
BITMAP
000067
000770
000000
01AEC1
0C6188
5A004A
860078
6A15D1
0AEC30
ENDCHAR
STARTCHAR ocircumflex
ENCODING 244
SWIDTH 515 0
DWIDTH 6 0
BBX 6 9 0 0
BITMAP
0009F2
007959
002002
01AEC1
0C6188
5A004A
860078
6A15D1
0AEC30
ENDCHAR
STARTCHAR otilde
ENCODING 245
SWIDTH 515 0
DWIDTH 6 0
BBX 7 10 0 0
BITMAP
00030110
008C6830
00A0BB00
00000000
01AEC100
0C618800
5A004A00
86007800
6A15D100
0AEC3000
ENDCHAR
STARTCHAR odieresis
ENCODING 246
SWIDTH 515 0
DWIDTH 6 0
BBX 6 8 0 0
BITMAP
006639
000000
01AEC1
0C6188
5A004A
860078
6A15D1
0AEC30
ENDCHAR
STARTCHAR divide
ENCODING 247
SWIDTH 480 0
DWIDTH 6 0
BBX 6 6 0 1
BITMAP
006700
000000
000000
6FFFF8
000000
006700
ENDCHAR
STARTCHAR oslash
ENCODING 248
SWIDTH 515 0
DWIDTH 6 0
BBX 7 6 0 0
BITMAP
02BECA10
1C51B800
673CDA00
7DD55900
5D13C200
AAEC4000
ENDCHAR
STARTCHAR ugrave
ENCODING 249
SWIDTH 528 0
DWIDTH 6 0
BBX 6 10 0 0
BITMAP
001A00
000B50
000290
000000
09501D
0C204A
0D0077
3A00B4
5B17F1
1DE6C0
ENDCHAR
STARTCHAR uacute
ENCODING 250
SWIDTH 528 0
DWIDTH 6 0
BBX 6 9 0 0
BITMAP
000076
000760
000000
09501D
0C204A
0D0077
3A00B4
5B17F1
1DE6C0
ENDCHAR
STARTCHAR ucircumflex
ENCODING 251
SWIDTH 528 0
DWIDTH 6 0
BBX 6 9 0 0
BITMAP
000AE1
008868
002002
09501D
0C204A
0D0077
3A00B4
5B17F1
1DE6C0
ENDCHAR
STARTCHAR udieresis
ENCODING 252
SWIDTH 528 0
DWIDTH 6 0
BBX 6 8 0 0
BITMAP
007548
000000
09501D
0C204A
0D0077
3A00B4
5B17F1
1DE6C0
ENDCHAR
STARTCHAR yacute
ENCODING 253
SWIDTH 448 0
DWIDTH 5 0
BBX 7 11 -1 -2
BITMAP
00003B00
0002A100
00000000
03B00680
00D00C10
00C07600
00A3B000
007B4000
005A0000
02C20000
9D400000
ENDCHAR
STARTCHAR thorn
ENCODING 254
SWIDTH 535 0
DWIDTH 6 0
BBX 7 11 -1 -2
BITMAP
001D0000
003B0000
00680000
0099CE60
00C924D0
01E001E0
03B005A0
06C14D30
099ED400
0C200000
1D000000
ENDCHAR
STARTCHAR ydieresis
ENCODING 255
SWIDTH 448 0
DWIDTH 5 0
BBX 7 10 -1 -2
BITMAP
002A0B00
00000000
03B00680
00D00C10
00C07600
00A3B000
007B4000
005A0000
02C20000
9D400000
ENDCHAR
STARTCHAR Amacron
ENCODING 256
SWIDTH 510 0
DWIDTH 6 0
BBX 7 10 -1 0
BITMAP
0004FFC0
00000000
00009C00
00038C00
00091C00
00350A20
00CFFF30
05700850
0C100770
69000690
ENDCHAR
STARTCHAR amacron
ENCODING 257
SWIDTH 537 0
DWIDTH 6 0
BBX 6 8 0 0
BITMAP
007FF9
000000
01AE9C
0B817B
4B0058
770086
7A15E3
1CE8C0
ENDCHAR
STARTCHAR Abreve
ENCODING 258
SWIDTH 510 0
DWIDTH 6 0
BBX 8 10 -1 0
BITMAP
000471A1
0000BE40
00009C00
00038C00
00091C00
00350A20
00CFFF30
05700850
0C100770
69000690
ENDCHAR
STARTCHAR abreve
ENCODING 259
SWIDTH 537 0
DWIDTH 6 0
BBX 6 10 0 0
BITMAP
002002
00842B
002DC3
000000
01AE9C
0B817B
4B0058
770086
7A15E3
1CE8C0
ENDCHAR
STARTCHAR Aogonek
ENCODING 260
SWIDTH 510 0
DWIDTH 6 0
BBX 7 11 -1 -3
BITMAP
00009C00
0003AC00
000A3D00
003B0B20
00C40A30
05FFFF50
0C500870
6B000690
00000820
00003800
00003E50
ENDCHAR
STARTCHAR aogonek
ENCODING 261
SWIDTH 537 0
DWIDTH 6 0
BBX 6 9 0 -3
BITMAP
01AE9C
0B817B
4B0058
770086
7A15E3
1CE8C0
000640
001900
001D70
ENDCHAR
STARTCHAR Cacute
ENCODING 262
SWIDTH 550 0
DWIDTH 7 0
BBX 7 10 0 0
BITMAP
00000680
00006810
003BEC10
03E51560
0B500000
2D000000
4A000000
3B000000
1D613500
03CEB200
ENDCHAR
STARTCHAR cacute
ENCODING 263
SWIDTH 435 0
DWIDTH 5 0
BBX 6 9 0 0
BITMAP
000085
000850
000000
01AEB0
0C7140
5A0000
860000
6A1320
1AEC20
ENDCHAR
STARTCHAR Ccircumflex
ENCODING 264
SWIDTH 550 0
DWIDTH 7 0
BBX 7 10 0 0
BITMAP
0000BE10
00077580
003BEC20
03E51560
0B500000
2D000000
4A000000
3B000000
1D613500
03CEB200
ENDCHAR
STARTCHAR ccircumflex
ENCODING 265
SWIDTH 435 0
DWIDTH 5 0
BBX 6 9 0 0
BITMAP
000BD0
009776
002002
01AEB0
0C7140
5A0000
860000
6A1320
1AEC20
ENDCHAR
STARTCHAR Cdotaccent
ENCODING 266
SWIDTH 550 0
DWIDTH 7 0
BBX 7 10 0 0
BITMAP
00006800
00000000
003BEC10
03E51560
0B500000
2D000000
4A000000
3B000000
1D613500
03CEB200
ENDCHAR
STARTCHAR cdotaccent
ENCODING 267
SWIDTH 435 0
DWIDTH 5 0
BBX 5 8 0 0
BITMAP
000860
000000
01AEB0
0C7140
5A0000
860000
6A1320
1AEC20
ENDCHAR
STARTCHAR Ccaron
ENCODING 268
SWIDTH 550 0
DWIDTH 7 0
BBX 7 10 0 0
BITMAP
00066690
0000DC10
003BEC10
03E51560
0B500000
2D000000
4A000000
3B000000
1D613500
03CEB200
ENDCHAR
STARTCHAR ccaron
ENCODING 269
SWIDTH 435 0
DWIDTH 5 0
BBX 6 10 0 0
BITMAP
002002
009597
001EA0
000000
01AEB0
0C7140
5A0000
860000
6A1320
1AEC20
ENDCHAR
STARTCHAR Dcaron
ENCODING 270
SWIDTH 592 0
DWIDTH 7 0
BBX 7 10 0 0
BITMAP
000B3A30
0005F600
02FFD600
05A03D60
087004A0
0B4003C0
0D1005A0
1C000C50
4902BB00
7FFD8100
ENDCHAR
STARTCHAR dcaron
ENCODING 271
SWIDTH 542 0
DWIDTH 7 0
BBX 8 9 0 0
BITMAP
0000068A
00000959
00000B46
01AE9D00
0B817B00
4B005800
77008500
7A15E300
1CE8C000
ENDCHAR
STARTCHAR Dcroat
ENCODING 272
SWIDTH 610 0
DWIDTH 7 0
BBX 7 8 0 0
BITMAP
00EFD810
02D02B90
059001E0
5FFE30E0
0A4102D0
0D100980
1C028D10
4FFEA200
ENDCHAR
STARTCHAR dcroat
ENCODING 273
SWIDTH 535 0
DWIDTH 6 0
BBX 8 9 0 0
BITMAP
00000680
0007FFF2
00000B30
01AE9E00
0B818C00
4B005900
77009500
7A15E200
1CE7A000
ENDCHAR
STARTCHAR Emacron
ENCODING 274
SWIDTH 503 0
DWIDTH 6 0
BBX 7 10 0 0
BITMAP
002FFE00
00000000
02FFFF40
05A00000
08600000
0BFFF100
0D000000
1C000000
49000000
7FFFE000
ENDCHAR
STARTCHAR emacron
ENCODING 275
SWIDTH 481 0
DWIDTH 6 0
BBX 6 8 0 0
BITMAP
00AFF6
000000
02BEB0
0A3084
6FFFF4
860000
6B1230
0AEC30
ENDCHAR
STARTCHAR Ebreve
ENCODING 276
SWIDTH 503 0
DWIDTH 6 0
BBX 7 10 0 0
BITMAP
00291A20
000AE600
02FFFF40
05A00000
08600000
0BFFF100
0D000000
1C000000
49000000
7FFFE000
ENDCHAR
STARTCHAR ebreve
ENCODING 277
SWIDTH 481 0
DWIDTH 6 0
BBX 6 10 0 0
BITMAP
002002
00A239
004EB1
000000
02BEB0
0A3084
6FFFF4
860000
6B1230
0AEC30
ENDCHAR
STARTCHAR Edotaccent
ENCODING 278
SWIDTH 503 0
DWIDTH 6 0
BBX 7 10 0 0
BITMAP
0002C000
00000000
02FFFF40
05A00000
08600000
0BFFF100
0D000000
1C000000
49000000
7FFFE000
ENDCHAR
STARTCHAR edotaccent
ENCODING 279
SWIDTH 481 0
DWIDTH 6 0
BBX 6 8 0 0
BITMAP
000950
000000
02BEB0
0A3084
6FFFF4
860000
6B1230
0AEC30
ENDCHAR
STARTCHAR Eogonek
ENCODING 280
SWIDTH 503 0
DWIDTH 6 0
BBX 7 11 0 -3
BITMAP
02FFFF40
05A00000
08600000
0BFFF100
0D000000
1C000000
49000000
7FFFE000
00073000
00290000
002E6000
ENDCHAR
STARTCHAR eogonek
ENCODING 281
SWIDTH 481 0
DWIDTH 6 0
BBX 6 9 0 -3
BITMAP
02BEB0
0A3084
6FFFF4
860000
6B1230
0AEE30
005400
00B100
00AB00
ENDCHAR
STARTCHAR Ecaron
ENCODING 282
SWIDTH 503 0
DWIDTH 6 0
BBX 7 10 0 0
BITMAP
002B3B10
0008F300
02FFFF40
05A00000
08600000
0BFFF100
0D000000
1C000000
49000000
7FFFE000
ENDCHAR
STARTCHAR ecaron
ENCODING 283
SWIDTH 481 0
DWIDTH 6 0
BBX 6 10 0 0
BITMAP
002002
009596
002F90
000000
02BEB0
0A3084
6FFFF4
860000
6B1230
0AEC30
ENDCHAR
STARTCHAR Gcircumflex
ENCODING 284
SWIDTH 588 0
DWIDTH 7 0
BBX 7 10 0 0
BITMAP
0000BE10
00087580
003BED30
02E61470
0B500000
2D000000
4A01FF60
3B000930
1D612D00
03CED600
ENDCHAR
STARTCHAR gcircumflex
ENCODING 285
SWIDTH 531 0
DWIDTH 6 0
BBX 6 11 0 -2
BITMAP
000AE1
008868
002002
02BEAC
1D518A
680077
7915E3
2DE9E0
0003C0
721B70
6EE900
ENDCHAR
STARTCHAR Gbreve
ENCODING 286
SWIDTH 588 0
DWIDTH 7 0
BBX 7 10 0 0
BITMAP
00083290
0002DC20
003BED30
02E61470
0B500000
2D000000
4A01FF60
3B000930
1D612D00
03CED600
ENDCHAR
STARTCHAR gbreve
ENCODING 287
SWIDTH 531 0
DWIDTH 6 0
BBX 6 12 0 -2
BITMAP
002002
00932A
003DC2
000000
02BEAC
1D518A
680077
7915E3
2DE9E0
0003C0
721B70
6EE900
ENDCHAR
STARTCHAR Gdotaccent
ENCODING 288
SWIDTH 588 0
DWIDTH 7 0
BBX 7 10 0 0
BITMAP
00007700
00000000
003BED30
02E61470
0B500000
2D000000
4A01FF60
3B000930
1D612D00
03CED600
ENDCHAR
STARTCHAR gdotaccent
ENCODING 289
SWIDTH 531 0
DWIDTH 6 0
BBX 6 10 0 -2
BITMAP
000770
000000
02BEAC
1D518A
680077
7915E3
2DE9E0
0003C0
721B70
6EE900
ENDCHAR
STARTCHAR uni0122
ENCODING 290
SWIDTH 588 0
DWIDTH 7 0
BBX 7 11 0 -3
BITMAP
003BED30
02E61470
0B500000
2D000000
4A01FF60
3B000930
1D612D00
03CED600
002D1000
001B3000
00D80000
ENDCHAR
STARTCHAR uni0123
ENCODING 291
SWIDTH 531 0
DWIDTH 6 0
BBX 6 11 0 -2
BITMAP
0006D5
000A80
000000
02BEAC
1D518A
680077
7915E3
2DE9E0
0003C0
721B70
6EE900
ENDCHAR
STARTCHAR Hcircumflex
ENCODING 292
SWIDTH 622 0
DWIDTH 7 0
BBX 8 10 0 0
BITMAP
0001DB00
000A4840
02C000A5
059000D2
085001E0
0BFFFFB0
0D000780
1C000950
4A000C20
77000E00
ENDCHAR
STARTCHAR hcircumflex
ENCODING 293
SWIDTH 519 0
DWIDTH 6 0
BBX 6 11 0 0
BITMAP
02EA00
0B4A30
01D000
03B000
068000
09ACE5
0C817A
0E0068
2C0095
5900C2
8600D0
ENDCHAR
STARTCHAR Hbar
ENCODING 294
SWIDTH 643 0
DWIDTH 8 0
BBX 9 8 0 0
BITMAP
01D0008600
1FFFFFFF30
068000E000
09FFFFC000
0C20059000
0D00086000
3B000B3000
68000D1000
ENDCHAR
STARTCHAR hbar
ENCODING 295
SWIDTH 519 0
DWIDTH 6 0
BBX 6 9 0 0
BITMAP
01D000
1EFFC0
058000
088CE4
0BA289
0E0067
2C0094
5900C2
8600D0
ENDCHAR
STARTCHAR Itilde
ENCODING 296
SWIDTH 252 0
DWIDTH 3 0
BBX 5 12 0 0
BITMAP
010000
2DC2A0
646E40
000000
02C000
059000
087000
0B4000
0D1000
1D0000
4A0000
770000
ENDCHAR
STARTCHAR itilde
ENCODING 297
SWIDTH 237 0
DWIDTH 3 0
BBX 5 10 0 0
BITMAP
030020
5DA570
918D10
000000
095000
0B2000
0E0000
2C0000
590000
860000
ENDCHAR
STARTCHAR Imacron
ENCODING 298
SWIDTH 252 0
DWIDTH 3 0
BBX 5 10 0 0
BITMAP
0EFF20
000000
02C000
059000
087000
0B4000
0D1000
1D0000
4A0000
770000
ENDCHAR
STARTCHAR imacron
ENCODING 299
SWIDTH 237 0
DWIDTH 3 0
BBX 4 8 0 0
BITMAP
3FFD
0000
0950
0B20
0E00
2C00
5900
8600
ENDCHAR
STARTCHAR uni012C
ENCODING 300
SWIDTH 252 0
DWIDTH 3 0
BBX 5 10 0 0
BITMAP
0B1740
07E800
02C000
059000
087000
0B4000
0D1000
1D0000
4A0000
770000
ENDCHAR
STARTCHAR uni012D
ENCODING 301
SWIDTH 237 0
DWIDTH 3 0
BBX 5 10 0 0
BITMAP
110110
481A20
0BE600
000000
095000
0B2000
0E0000
2C0000
590000
860000
ENDCHAR
STARTCHAR Iogonek
ENCODING 302
SWIDTH 252 0
DWIDTH 3 0
BBX 4 11 -1 -3
BITMAP
002C
0059
0087
00B4
00D1
01D0
04A0
0770
0910
5600
4E30
ENDCHAR
STARTCHAR iogonek
ENCODING 303
SWIDTH 237 0
DWIDTH 3 0
BBX 4 12 -1 -3
BITMAP
0005
002A
0000
0095
00B2
00E0
02C0
0590
0860
1810
6500
4E20
ENDCHAR
STARTCHAR Idotaccent
ENCODING 304
SWIDTH 252 0
DWIDTH 3 0
BBX 4 10 0 0
BITMAP
00C2
0000
02C0
0590
0870
0B40
0D10
1D00
4A00
7700
ENDCHAR
STARTCHAR dotlessi
ENCODING 305
SWIDTH 237 0
DWIDTH 3 0
BBX 3 6 0 0
BITMAP
0950
0B20
0E00
2C00
5900
8600
ENDCHAR
STARTCHAR Jcircumflex
ENCODING 308
SWIDTH 456 0
DWIDTH 5 0
BBX 7 10 0 0
BITMAP
00009F20
00068490
00009600
0000C300
0000E000
0003C000
00069000
00096000
923E1000
5ED50000
ENDCHAR
STARTCHAR jcircumflex
ENCODING 309
SWIDTH 238 0
DWIDTH 3 0
BBX 6 11 -2 -2
BITMAP
0006F4
004B4B
002002
000850
000C20
000E00
003B00
007800
00A400
01E100
5E7000
ENDCHAR
STARTCHAR uni0136
ENCODING 310
SWIDTH 559 0
DWIDTH 7 0
BBX 7 11 0 -3
BITMAP
02C006A0
05906B00
0866B100
0B9E6000
0DA3B000
1D00C200
4A007700
77002D00
006A0000
002C0000
03D50000
ENDCHAR
STARTCHAR uni0137
ENCODING 311
SWIDTH 476 0
DWIDTH 6 0
BBX 6 12 0 -3
BITMAP
00D000
03B000
068000
095097
0C2980
0E8B00
2F7C10
5A0860
8602C0
01D200
01A300
0C9000
ENDCHAR
STARTCHAR kgreenlandic
ENCODING 312
SWIDTH 476 0
DWIDTH 6 0
BBX 6 6 0 0
BITMAP
095097
0B2880
0E8B00
2F8D10
5A0860
8602C0
ENDCHAR
STARTCHAR Lacute
ENCODING 313
SWIDTH 462 0
DWIDTH 6 0
BBX 5 10 0 0
BITMAP
001A30
00A400
02C000
059000
086000
0B3000
0D0000
1C0000
490000
7FFFB0
ENDCHAR
STARTCHAR lacute
ENCODING 314
SWIDTH 248 0
DWIDTH 3 0
BBX 5 11 0 0
BITMAP
000940
009500
00D000
03B000
068000
095000
0C2000
0D0000
3B0000
680000
5D0000
ENDCHAR
STARTCHAR uni013B
ENCODING 315
SWIDTH 462 0
DWIDTH 6 0
BBX 5 11 0 -3
BITMAP
02C000
059000
086000
0B3000
0D0000
1C0000
490000
7FFFB0
01D200
00A400
0C9000
ENDCHAR
STARTCHAR uni013C
ENCODING 316
SWIDTH 248 0
DWIDTH 3 0
BBX 4 12 -1 -3
BITMAP
000D
003B
0068
0095
00C2
00D0
03B0
0680
05D0
0C40
0870
AB10
ENDCHAR
STARTCHAR Lcaron
ENCODING 317
SWIDTH 462 0
DWIDTH 6 0
BBX 6 9 0 0
BITMAP
000027
02C054
059071
086000
0B3000
0D0000
1C0000
490000
7FFFB0
ENDCHAR
STARTCHAR lcaron
ENCODING 318
SWIDTH 242 0
DWIDTH 3 0
BBX 5 9 0 0
BITMAP
00D640
03B810
068800
095000
0C2000
0D0000
3B0000
680000
5D0000
ENDCHAR
STARTCHAR Ldot
ENCODING 319
SWIDTH 462 0
DWIDTH 6 0
BBX 6 8 0 0
BITMAP
02C000
059000
086000
0B3050
0D01D1
1C0000
490000
7FFFB0
ENDCHAR
STARTCHAR ldot
ENCODING 320
SWIDTH 331 0
DWIDTH 4 0
BBX 5 9 0 0
BITMAP
00D000
03B000
068000
095000
0C2510
0D0D20
3B0000
680000
5D0000
ENDCHAR
STARTCHAR Lslash
ENCODING 321
SWIDTH 462 0
DWIDTH 6 0
BBX 5 8 0 0
BITMAP
02C000
059000
087010
0B8B50
6F8100
BD0000
490000
7FFFB0
ENDCHAR
STARTCHAR lslash
ENCODING 322
SWIDTH 252 0
DWIDTH 3 0
BBX 4 9 0 0
BITMAP
00E0
03B0
0692
0AE3
7F40
3E00
2C00
5900
4D00
ENDCHAR
STARTCHAR Nacute
ENCODING 323
SWIDTH 619 0
DWIDTH 7 0
BBX 8 10 0 0
BITMAP
00000760
00008700
02F20094
05C700C1
086C00D0
0B3A23A0
0D058670
1C01C840
4900AC10
76005D00
ENDCHAR
STARTCHAR nacute
ENCODING 324
SWIDTH 525 0
DWIDTH 6 0
BBX 6 9 0 0
BITMAP
000059
000581
000000
096CE5
0BA27A
0E0068
2C0095
5900C2
8600D0
ENDCHAR
STARTCHAR uni0145
ENCODING 325
SWIDTH 619 0
DWIDTH 7 0
BBX 8 11 0 -3
BITMAP
02F20094
05C700C1
086C00D0
0B3A23A0
0D058670
1C01C840
4900AC10
76005D00
006A0000
002C0000
03D50000
ENDCHAR
STARTCHAR uni0146
ENCODING 326
SWIDTH 525 0
DWIDTH 6 0
BBX 6 9 0 -3
BITMAP
096CE5
0BA27A
0E0068
2C0095
5900C2
8600D0
01D200
00A400
0C9000
ENDCHAR
STARTCHAR Ncaron
ENCODING 327
SWIDTH 619 0
DWIDTH 7 0
BBX 8 10 0 0
BITMAP
00085770
0002EA00
02F20094
05C700C1
086C00D0
0B3A23A0
0D058670
1C01C840
4900AC10
76005D00
ENDCHAR
STARTCHAR ncaron
ENCODING 328
SWIDTH 525 0
DWIDTH 6 0
BBX 6 10 0 0
BITMAP
002102
004A5B
000BD1
000000
096CE5
0BA27A
0E0068
2C0095
5900C2
8600D0
ENDCHAR
STARTCHAR napostrophe
ENCODING 329
SWIDTH 739 0
DWIDTH 9 0
BBX 8 8 1 0
BITMAP
1D100000
09000000
530C7ED1
002F61C4
005900B2
008600D0
00B303B0
00D00680
ENDCHAR
STARTCHAR Omacron
ENCODING 332
SWIDTH 633 0
DWIDTH 8 0
BBX 8 10 0 0
BITMAP
0009FF70
00000000
003CEC30
03E415D0
0B4000C2
2D0000B4
4B0000D1
3C0005B0
0D514D30
03CEC300
ENDCHAR
STARTCHAR omacron
ENCODING 333
SWIDTH 515 0
DWIDTH 6 0
BBX 6 8 0 0
BITMAP
007FF9
000000
01AEC1
0C6188
5A004A
860078
6A15D1
0AEC30
ENDCHAR
STARTCHAR uni014E
ENCODING 334
SWIDTH 633 0
DWIDTH 8 0
BBX 8 10 0 0
BITMAP
00083390
0003EC10
003CEC30
03E415D0
0B4000C2
2D0000B4
4B0000D1
3C0005B0
0D514D30
03CEC300
ENDCHAR
STARTCHAR uni014F
ENCODING 335
SWIDTH 515 0
DWIDTH 6 0
BBX 6 10 0 0
BITMAP
002002
00852B
002DD3
000000
01AEC1
0C6188
5A004A
860078
6A15D1
0AEC30
ENDCHAR
STARTCHAR Ohungarumlaut
ENCODING 336
SWIDTH 633 0
DWIDTH 8 0
BBX 8 11 0 0
BITMAP
00000013
000047A3
00019230
003CEC30
03E415D0
0B4000C2
2D0000B4
4B0000D1
3C0005B0
0D514D30
03CEC300
ENDCHAR
STARTCHAR ohungarumlaut
ENCODING 337
SWIDTH 515 0
DWIDTH 6 0
BBX 7 10 0 0
BITMAP
00000010
00028760
000A3800
00010000
01AEC100
0C618800
5A004A00
86007800
6A15D100
0AEC3000
ENDCHAR
STARTCHAR OE
ENCODING 338
SWIDTH 816 0
DWIDTH 10 0
BBX 10 8 0 0
BITMAP
003BEFFFFF
04E5049000
0C40075000
2D000BFFC0
4B000D0000
3C002C0000
0D71590000
02BEFFFFA0
ENDCHAR
STARTCHAR oe
ENCODING 339
SWIDTH 812 0
DWIDTH 10 0
BBX 10 6 0 0
BITMAP
02BFB1AEB0
0C619C4094
5A005FFFF4
8600880000
6A15CC2230
1BEB27EC30
ENDCHAR
STARTCHAR Racute
ENCODING 340
SWIDTH 555 0
DWIDTH 7 0
BBX 7 10 0 0
BITMAP
00002B10
0001B300
02FFEB10
05A01980
08700680
0B403C20
0DFFA200
1E06A000
4A01E100
77008700
ENDCHAR
STARTCHAR racute
ENCODING 341
SWIDTH 342 0
DWIDTH 4 0
BBX 5 9 0 0
BITMAP
0004A0
004910
000000
096D60
0B9100
0E0000
2C0000
590000
860000
ENDCHAR
STARTCHAR uni0156
ENCODING 342
SWIDTH 555 0
DWIDTH 7 0
BBX 7 11 0 -3
BITMAP
02FFEB10
05A01980
08700680
0B403C20
0DFFA200
1E06A000
4A01E100
77008700
00970000
004B0000
06C30000
ENDCHAR
STARTCHAR uni0157
ENCODING 343
SWIDTH 342 0
DWIDTH 4 0
BBX 6 9 -1 -3
BITMAP
0096D6
00B910
00E000
02C000
059000
086000
0C4000
077000
9B1000
ENDCHAR
STARTCHAR Rcaron
ENCODING 344
SWIDTH 555 0
DWIDTH 7 0
BBX 7 10 0 0
BITMAP
001B3B20
0007F400
02FFEB10
05A01980
08700680
0B403C20
0DFFA200
1E06A000
4A01E100
77008700
ENDCHAR
STARTCHAR rcaron
ENCODING 345
SWIDTH 342 0
DWIDTH 4 0
BBX 6 10 0 0
BITMAP
021020
03A4B1
00AD20
000000
096D60
0B9100
0E0000
2C0000
590000
860000
ENDCHAR
STARTCHAR Sacute
ENCODING 346
SWIDTH 506 0
DWIDTH 6 0
BBX 6 10 0 0
BITMAP
00003A
0003A2
009ED5
06A139
078000
01CA20
0007E2
000087
9812C4
1AED70
ENDCHAR
STARTCHAR sacute
ENCODING 347
SWIDTH 402 0
DWIDTH 5 0
BBX 5 9 0 0
BITMAP
0004A0
004910
000000
07ED20
1D1330
0CC300
006E10
922D10
4DE600
ENDCHAR
STARTCHAR Scircumflex
ENCODING 348
SWIDTH 506 0
DWIDTH 6 0
BBX 6 10 0 0
BITMAP
0007F4
004A3A
009ED5
06A139
078000
01CA20
0007E2
000087
9812C4
1AED70
ENDCHAR
STARTCHAR scircumflex
ENCODING 349
SWIDTH 402 0
DWIDTH 5 0
BBX 5 9 0 0
BITMAP
005F50
03B3B0
020020
07ED20
1D1330
0CC300
006E10
922D10
4DE600
ENDCHAR
STARTCHAR uni015E
ENCODING 350
SWIDTH 506 0
DWIDTH 6 0
BBX 6 11 0 -3
BITMAP
009ED5
06A139
078000
01CA20
0007E2
000087
9812C4
1AED70
01B000
009300
0CB100
ENDCHAR
STARTCHAR uni015F
ENCODING 351
SWIDTH 402 0
DWIDTH 5 0
BBX 5 9 0 -3
BITMAP
07ED20
1D1330
0CC300
006E10
922D10
4DE600
093000
057000
8D4000
ENDCHAR
STARTCHAR Scaron
ENCODING 352
SWIDTH 506 0
DWIDTH 6 0
BBX 6 10 0 0
BITMAP
003A4B
000AE2
009ED5
06A139
078000
01CA20
0007E2
000087
9812C4
1AED70
ENDCHAR
STARTCHAR scaron
ENCODING 353
SWIDTH 402 0
DWIDTH 5 0
BBX 6 10 0 0
BITMAP
011021
02B4B1
009E20
000000
07ED20
1D1330
0CC300
006E10
922D10
4DE600
ENDCHAR
STARTCHAR uni0162
ENCODING 354
SWIDTH 510 0
DWIDTH 6 0
BBX 7 11 0 -3
BITMAP
0CFFFFB0
000B3000
000D1000
002C0000
00590000
00860000
00B30000
00E10000
04800000
02B00000
3E700000
ENDCHAR
STARTCHAR uni0163
ENCODING 355
SWIDTH 325 0
DWIDTH 4 0
BBX 5 11 0 -3
BITMAP
007000
02B000
3FFF10
086000
0B2000
0D0000
2D1000
1CE300
083000
058000
7D4000
ENDCHAR
STARTCHAR Tcaron
ENCODING 356
SWIDTH 510 0
DWIDTH 6 0
BBX 6 10 1 0
BITMAP
0585A0
00CD10
CFFFFB
00B300
00D100
02C000
059000
086000
0B3000
0E1000
ENDCHAR
STARTCHAR tcaron
ENCODING 357
SWIDTH 325 0
DWIDTH 4 0
BBX 5 9 0 0
BITMAP
0000A0
007090
02B250
3FFF10
086000
0B2000
0D0000
2D1000
1CE300
ENDCHAR
STARTCHAR Utilde
ENCODING 360
SWIDTH 616 0
DWIDTH 7 0
BBX 7 12 1 0
BITMAP
00010000
00CE3B00
0374E700
00000000
2C000A40
59000D10
86001D00
B2004A00
E0007700
E000C300
D517C000
4CEB2000
ENDCHAR
STARTCHAR utilde
ENCODING 361
SWIDTH 528 0
DWIDTH 6 0
BBX 7 10 0 0
BITMAP
00130110
009D5920
0091C900
00000000
09501D00
0C204A00
0D007700
3A00B400
5B17F100
1DE6C000
ENDCHAR
STARTCHAR Umacron
ENCODING 362
SWIDTH 616 0
DWIDTH 7 0
BBX 7 10 1 0
BITMAP
00BFF500
00000000
2C000A40
59000D10
86001D00
B2004A00
E0007700
E000C300
D517C000
4CEB2000
ENDCHAR
STARTCHAR umacron
ENCODING 363
SWIDTH 528 0
DWIDTH 6 0
BBX 6 8 0 0
BITMAP
008FF8
000000
09501D
0C204A
0D0077
3A00B4
5B17F1
1DE6C0
ENDCHAR
STARTCHAR Ubreve
ENCODING 364
SWIDTH 616 0
DWIDTH 7 0
BBX 7 10 1 0
BITMAP
00A24800
004EB100
2C000A40
59000D10
86001D00
B2004A00
E0007700
E000C300
D517C000
4CEB2000
ENDCHAR
STARTCHAR ubreve
ENCODING 365
SWIDTH 528 0
DWIDTH 6 0
BBX 6 10 0 0
BITMAP
002002
00932A
003DC2
000000
09501D
0C204A
0D0077
3A00B4
5B17F1
1DE6C0
ENDCHAR
STARTCHAR Uring
ENCODING 366
SWIDTH 616 0
DWIDTH 7 0
BBX 7 11 1 0
BITMAP
000BC000
0037A100
001D9000
2C000A40
59000D10
86001D00
B2004A00
E0007700
E000C300
D517C000
4CEB2000
ENDCHAR
STARTCHAR uring
ENCODING 367
SWIDTH 528 0
DWIDTH 6 0
BBX 6 9 0 0
BITMAP
000AE2
002975
001DC1
09501D
0C204A
0D0077
3A00B4
5B17F1
1DE6C0
ENDCHAR
STARTCHAR Uhungarumlaut
ENCODING 368
SWIDTH 616 0
DWIDTH 7 0
BBX 7 11 1 0
BITMAP
00000220
00066B20
00282200
2C000A40
59000D10
86001D00
B2004A00
E0007700
E000C300
D517C000
4CEB2000
ENDCHAR
STARTCHAR uhungarumlaut
ENCODING 369
SWIDTH 528 0
DWIDTH 6 0
BBX 7 10 0 0
BITMAP
00000010
00038850
001A3700
00010000
09501D00
0C204A00
0D007700
3A00B400
5B17F100
1DE6C000
ENDCHAR
STARTCHAR Uogonek
ENCODING 370
SWIDTH 616 0
DWIDTH 7 0
BBX 7 11 1 -3
BITMAP
2C000A40
59000D10
86001D00
B2004A00
E0007700
E000C300
D517C000
4DFB2000
06500000
0B100000
0CA00000
ENDCHAR
STARTCHAR uogonek
ENCODING 371
SWIDTH 528 0
DWIDTH 6 0
BBX 6 9 0 -3
BITMAP
09501D
0C204A
0D0077
3A00B4
5B17F1
1DE6C0
000730
002800
002E50
ENDCHAR
STARTCHAR Wcircumflex
ENCODING 372
SWIDTH 756 0
DWIDTH 9 0
BBX 9 10 1 0
BITMAP
0003E90000
001B3A2000
B302E00680
C209D00B20
C21AB02B00
C274B18500
C2B0B1C000
C660B68000
CA00BB2000
D800AB0000
ENDCHAR
STARTCHAR wcircumflex
ENCODING 373
SWIDTH 707 0
DWIDTH 8 0
BBX 9 9 0 0
BITMAP
00009F2000
0006959000
0002002000
2C00E30850
1C06B41C00
0D0A746600
0D4765C100
0CA15A8000
0B804E2000
ENDCHAR
STARTCHAR Ycircumflex
ENCODING 374
SWIDTH 461 0
DWIDTH 6 0
BBX 6 10 1 0
BITMAP
01DC00
0A5850
D100C3
950770
582C00
1BB300
0C7000
0D1000
1D0000
3A0000
ENDCHAR
STARTCHAR ycircumflex
ENCODING 375
SWIDTH 448 0
DWIDTH 5 0
BBX 7 11 -1 -2
BITMAP
0004F600
002C3C10
00210200
03B00680
00D00C10
00C07600
00A3B000
007B4000
005A0000
02C20000
9D400000
ENDCHAR
STARTCHAR Ydieresis
ENCODING 376
SWIDTH 461 0
DWIDTH 6 0
BBX 6 10 1 0
BITMAP
0A2750
000000
D100C3
950770
582C00
1BB300
0C7000
0D1000
1D0000
3A0000
ENDCHAR
STARTCHAR Zacute
ENCODING 377
SWIDTH 512 0
DWIDTH 6 0
BBX 7 10 0 0
BITMAP
00004A00
0003A200
05FFFF60
00003B00
0002C100
001B3000
00A50000
07800000
4B000000
EFFFF300
ENDCHAR
STARTCHAR zacute
ENCODING 378
SWIDTH 410 0
DWIDTH 5 0
BBX 7 9 -1 0
BITMAP
00002B10
0002A200
00000000
00BFFF10
00009600
00087000
00790000
06A00000
1FFFF200
ENDCHAR
STARTCHAR Zdotaccent
ENCODING 379
SWIDTH 512 0
DWIDTH 6 0
BBX 7 10 0 0
BITMAP
0003A000
00000000
05FFFF60
00003B00
0002C100
001B3000
00A50000
07800000
4B000000
EFFFF300
ENDCHAR
STARTCHAR zdotaccent
ENCODING 380
SWIDTH 410 0
DWIDTH 5 0
BBX 7 8 -1 0
BITMAP
0001C100
00000000
00BFFF10
00009600
00087000
00790000
06A00000
1FFFF200
ENDCHAR
STARTCHAR Zcaron
ENCODING 381
SWIDTH 512 0
DWIDTH 6 0
BBX 7 10 0 0
BITMAP
00394B00
000AE200
05FFFF60
00003B00
0002C100
001B3000
00A50000
07800000
4B000000
EFFFF300
ENDCHAR
STARTCHAR zcaron
ENCODING 382
SWIDTH 410 0
DWIDTH 5 0
BBX 7 10 -1 0
BITMAP
00020110
001C3C20
0007F400
00000000
00BFFF10
00009600
00087000
00790000
06A00000
1FFFF200
ENDCHAR
STARTCHAR uni0180
ENCODING 384
SWIDTH 519 0
DWIDTH 6 0
BBX 6 9 0 0
BITMAP
1EFFC0
059000
086000
0A9DE5
0D925C
1E002D
3B005A
6C14D2
88ED40
ENDCHAR
STARTCHAR uni018F
ENCODING 399
SWIDTH 636 0
DWIDTH 8 0
BBX 8 8 0 0
BITMAP
001AEC40
006515E1
000000B3
00000094
2FFFFFF2
3A0001B0
1D414C30
04CFC400
ENDCHAR
STARTCHAR uni0192
ENCODING 402
SWIDTH 480 0
DWIDTH 6 0
BBX 8 9 -1 -1
BITMAP
00001CF2
0000A710
0001D000
005FFF10
00095000
000D1000
005A0000
11C40000
6E800000
ENDCHAR
STARTCHAR Ohorn
ENCODING 416
SWIDTH 633 0
DWIDTH 8 0
BBX 8 10 0 0
BITMAP
0000000A
0000001B
003CFCB3
03E415C0
0B4000C2
2D0000B4
4B0000D2
3C0005B0
0D514E30
03CEC300
ENDCHAR
STARTCHAR ohorn
ENCODING 417
SWIDTH 517 0
DWIDTH 6 0
BBX 7 8 0 0
BITMAP
00000280
00000580
01AFDB10
0C618700
5A004A00
86007800
6A15D100
0AEC3000
ENDCHAR
STARTCHAR Uhorn
ENCODING 431
SWIDTH 629 0
DWIDTH 8 0
BBX 8 10 1 0
BITMAP
0000000A
00000048
2C000A50
59000D10
86001D00
B2004A00
E0007700
E000C300
D517B000
4CEB2000
ENDCHAR
STARTCHAR uhorn
ENCODING 432
SWIDTH 543 0
DWIDTH 7 0
BBX 8 8 0 0
BITMAP
00000073
000001B1
09501D20
0C204A00
0D007700
3A00B400
5B17F100
1DE6C000
ENDCHAR
STARTCHAR uni01CD
ENCODING 461
SWIDTH 510 0
DWIDTH 6 0
BBX 7 10 -1 0
BITMAP
000394B0
0000AE20
00009C00
00038C00
00091C00
00350A20
00CFFF30
05700850
0C100770
69000690
ENDCHAR
STARTCHAR uni01CE
ENCODING 462
SWIDTH 537 0
DWIDTH 6 0
BBX 6 10 0 0
BITMAP
002002
006779
000DB0
000000
01AE9C
0B817B
4B0058
770086
7A15E3
1CE8C0
ENDCHAR
STARTCHAR uni01CF
ENCODING 463
SWIDTH 252 0
DWIDTH 3 0
BBX 5 10 0 0
BITMAP
0B3A30
05F600
02C000
059000
087000
0B4000
0D1000
1D0000
4A0000
770000
ENDCHAR
STARTCHAR uni01D0
ENCODING 464
SWIDTH 237 0
DWIDTH 3 0
BBX 5 10 0 0
BITMAP
110210
2B4B10
09E200
000000
095000
0B2000
0E0000
2C0000
590000
860000
ENDCHAR
STARTCHAR uni01D1
ENCODING 465
SWIDTH 633 0
DWIDTH 8 0
BBX 8 10 0 0
BITMAP
00075780
0001EB00
003CEC30
03E415D0
0B4000C2
2D0000B4
4B0000D1
3C0005B0
0D514D30
03CEC300
ENDCHAR
STARTCHAR uni01D2
ENCODING 466
SWIDTH 515 0
DWIDTH 6 0
BBX 6 10 0 0
BITMAP
002002
006869
000DC0
000000
01AEC1
0C6188
5A004A
860078
6A15D1
0AEC30
ENDCHAR
STARTCHAR uni01D3
ENCODING 467
SWIDTH 616 0
DWIDTH 7 0
BBX 7 10 1 0
BITMAP
00948600
002FA000
2C000A40
59000D10
86001D00
B2004A00
E0007700
E000C300
D517C000
4CEB2000
ENDCHAR
STARTCHAR uni01D4
ENCODING 468
SWIDTH 528 0
DWIDTH 6 0
BBX 6 10 0 0
BITMAP
002002
007778
001EB0
000000
09501D
0C204A
0D0077
3A00B4
5B17F1
1DE6C0
ENDCHAR
STARTCHAR uni01D5
ENCODING 469
SWIDTH 616 0
DWIDTH 7 0
BBX 7 11 1 0
BITMAP
006FFA00
00826500
00000000
2C000A40
59000D10
86001D00
B2004A00
E0007700
E000C300
D517C000
4CEB2000
ENDCHAR
STARTCHAR uni01D6
ENCODING 470
SWIDTH 528 0
DWIDTH 6 0
BBX 6 10 0 0
BITMAP
002FFE
000000
007437
000000
09501D
0C204A
0D0077
3A00B4
5B17F1
1DE6C0
ENDCHAR
STARTCHAR uni01D7
ENCODING 471
SWIDTH 616 0
DWIDTH 7 0
BBX 7 12 1 0
BITMAP
00003300
00029100
00826500
00000000
2C000A40
59000D10
86001D00
B2004A00
E0007700
E000C300
D517C000
4CEB2000
ENDCHAR
STARTCHAR uni01D8
ENCODING 472
SWIDTH 528 0
DWIDTH 6 0
BBX 6 10 0 0
BITMAP
000074
000040
007437
000000
09501D
0C204A
0D0077
3A00B4
5B17F1
1DE6C0
ENDCHAR
STARTCHAR uni01D9
ENCODING 473
SWIDTH 616 0
DWIDTH 7 0
BBX 7 12 1 0
BITMAP
00274600
000AD100
00826500
00000000
2C000A40
59000D10
86001D00
B2004A00
E0007700
E000C300
D517C000
4CEB2000
ENDCHAR
STARTCHAR uni01DA
ENCODING 474
SWIDTH 528 0
DWIDTH 6 0
BBX 6 10 0 0
BITMAP
001938
0008E2
007437
000000
09501D
0C204A
0D0077
3A00B4
5B17F1
1DE6C0
ENDCHAR
STARTCHAR uni01DB
ENCODING 475
SWIDTH 616 0
DWIDTH 7 0
BBX 7 12 1 0
BITMAP
00060000
00074000
00826500
00000000
2C000A40
59000D10
86001D00
B2004A00
E0007700
E000C300
D517C000
4CEB2000
ENDCHAR
STARTCHAR uni01DC
ENCODING 476
SWIDTH 528 0
DWIDTH 6 0
BBX 6 10 0 0
BITMAP
000730
000040
007437
000000
09501D
0C204A
0D0077
3A00B4
5B17F1
1DE6C0
ENDCHAR
STARTCHAR Gcaron
ENCODING 486
SWIDTH 588 0
DWIDTH 7 0
BBX 7 10 0 0
BITMAP
00076680
0001DC00
003BED30
02E61470
0B500000
2D000000
4A01FF60
3B000930
1D612D00
03CED600
ENDCHAR
STARTCHAR gcaron
ENCODING 487
SWIDTH 531 0
DWIDTH 6 0
BBX 6 12 0 -2
BITMAP
002002
007688
001EB0
000000
02BEAC
1D518A
680077
7915E3
2DE9E0
0003C0
721B70
6EE900
ENDCHAR
STARTCHAR uni01EA
ENCODING 490
SWIDTH 633 0
DWIDTH 8 0
BBX 8 11 0 -3
BITMAP
003CEC30
03E415D0
0B4000C2
2D0000B3
4B0000D1
3C0005B0
0D514D30
03CFC300
00460000
00B10000
00AC0000
ENDCHAR
STARTCHAR uni01EB
ENCODING 491
SWIDTH 515 0
DWIDTH 6 0
BBX 6 9 0 -3
BITMAP
01AEB1
0C6188
5A004A
860077
6A15D1
1BFC30
028000
092000
07D000
ENDCHAR
STARTCHAR uni0218
ENCODING 536
SWIDTH 506 0
DWIDTH 6 0
BBX 6 11 0 -3
BITMAP
009ED5
06A139
078000
01CA20
0007E2
000087
9812C4
1AED70
01D200
01A400
0C9000
ENDCHAR
STARTCHAR uni0219
ENCODING 537
SWIDTH 402 0
DWIDTH 5 0
BBX 5 9 0 -3
BITMAP
07ED20
1D1330
0CC300
006E10
922D10
4DE600
0A7000
04A000
7C2000
ENDCHAR
STARTCHAR uni021A
ENCODING 538
SWIDTH 510 0
DWIDTH 6 0
BBX 6 11 1 -3
BITMAP
CFFFFB
00B300
00D100
02C000
059000
086000
0B3000
0E1000
4C1000
1C1000
E70000
ENDCHAR
STARTCHAR uni021B
ENCODING 539
SWIDTH 325 0
DWIDTH 4 0
BBX 5 11 0 -3
BITMAP
007000
02B000
3FFF10
086000
0B2000
0D0000
2D1000
1CE300
0B5000
078000
9B1000
ENDCHAR
STARTCHAR uni0237
ENCODING 567
SWIDTH 238 0
DWIDTH 3 0
BBX 5 8 -2 -2
BITMAP
000850
000C20
000E00
003B00
007800
00A400
01E100
5E7000
ENDCHAR
STARTCHAR uni0243
ENCODING 579
SWIDTH 610 0
DWIDTH 7 0
BBX 7 8 0 0
BITMAP
00EFFC30
02D017A0
05901960
08FFF800
0B302C30
AFFD0860
1C014D20
4FFEC400
ENDCHAR
STARTCHAR uni0251
ENCODING 593
SWIDTH 537 0
DWIDTH 6 0
BBX 6 6 0 0
BITMAP
01AE9C
0B817B
4B0058
770086
7A15E3
1CE8C0
ENDCHAR
STARTCHAR uni0259
ENCODING 601
SWIDTH 478 0
DWIDTH 6 0
BBX 6 6 0 0
BITMAP
04DE70
0222E2
0000A3
9FFFF1
940580
3DE800
ENDCHAR
STARTCHAR uni0261
ENCODING 609
SWIDTH 531 0
DWIDTH 6 0
BBX 6 8 0 -2
BITMAP
02BEAC
1D518A
680077
7915E3
2DE9E0
0003C0
721B70
6EE900
ENDCHAR
STARTCHAR h.sups
ENCODING 688
SWIDTH 353 0
DWIDTH 4 0
BBX 5 7 0 4
BITMAP
012000
065000
099E10
0B3830
0A0910
280A00
120300
ENDCHAR
STARTCHAR j.sups
ENCODING 690
SWIDTH 164 0
DWIDTH 2 0
BBX 4 7 -1 3
BITMAP
0055
00A1
00B0
0190
0460
0830
7B00
ENDCHAR
STARTCHAR r.sups
ENCODING 691
SWIDTH 224 0
DWIDTH 3 0
BBX 4 5 0 4
BITMAP
0694
0B20
0A00
3800
1100
ENDCHAR
STARTCHAR w.sups
ENCODING 695
SWIDTH 479 0
DWIDTH 6 0
BBX 6 4 1 5
BITMAP
A0D082
A7B390
AA6A30
B55C00
ENDCHAR
STARTCHAR y.sups
ENCODING 696
SWIDTH 307 0
DWIDTH 4 0
BBX 5 6 0 3
BITMAP
0A0820
0A2800
098100
077000
1A1000
D40000
ENDCHAR
STARTCHAR uni02B9
ENCODING 697
SWIDTH 242 0
DWIDTH 3 0
BBX 2 3 1 5
BITMAP
0D
39
83
ENDCHAR
STARTCHAR uni02BB
ENCODING 699
SWIDTH 242 0
DWIDTH 3 0
BBX 2 3 1 5
BITMAP
08
72
86
ENDCHAR
STARTCHAR uni02BC
ENCODING 700
SWIDTH 242 0
DWIDTH 3 0
BBX 3 3 1 5
BITMAP
1D10
0900
5300
ENDCHAR
STARTCHAR uni02BE
ENCODING 702
SWIDTH 151 0
DWIDTH 2 0
BBX 2 3 1 6
BITMAP
67
29
B4
ENDCHAR
STARTCHAR uni02BF
ENCODING 703
SWIDTH 163 0
DWIDTH 2 0
BBX 2 3 1 6
BITMAP
68
A1
93
ENDCHAR
STARTCHAR circumflex
ENCODING 710
SWIDTH 517 0
DWIDTH 6 0
BBX 4 3 2 6
BITMAP
09F2
7959
2002
ENDCHAR
STARTCHAR caron
ENCODING 711
SWIDTH 517 0
DWIDTH 6 0
BBX 4 3 2 7
BITMAP
2002
6869
0DC0
ENDCHAR
STARTCHAR uni02C8
ENCODING 712
SWIDTH 108 0
DWIDTH 1 0
BBX 2 2 1 7
BITMAP
A1
A0
ENDCHAR
STARTCHAR uni02C9
ENCODING 713
SWIDTH 262 0
DWIDTH 3 0
BBX 4 1 0 7
BITMAP
1FFF
ENDCHAR
STARTCHAR uni02CA
ENCODING 714
SWIDTH 213 0
DWIDTH 3 0
BBX 3 2 1 7
BITMAP
0580
6800
ENDCHAR
STARTCHAR uni02CB
ENCODING 715
SWIDTH 213 0
DWIDTH 3 0
BBX 2 3 1 7
BITMAP
B1
97
1A
ENDCHAR
STARTCHAR uni02CC
ENCODING 716
SWIDTH 108 0
DWIDTH 1 0
BBX 2 2 -1 -3
BITMAP
82
B0
ENDCHAR
STARTCHAR breve
ENCODING 728
SWIDTH 517 0
DWIDTH 6 0
BBX 4 3 2 7
BITMAP
2002
852B
2DD3
ENDCHAR
STARTCHAR dotaccent
ENCODING 729
SWIDTH 517 0
DWIDTH 6 0
BBX 2 1 3 7
BITMAP
58
ENDCHAR
STARTCHAR ring
ENCODING 730
SWIDTH 517 0
DWIDTH 6 0
BBX 4 3 2 6
BITMAP
09E3
1A66
0CC1
ENDCHAR
STARTCHAR ogonek
ENCODING 731
SWIDTH 517 0
DWIDTH 6 0
BBX 3 3 1 -2
BITMAP
2700
9200
6D10
ENDCHAR
STARTCHAR tilde
ENCODING 732
SWIDTH 517 0
DWIDTH 6 0
BBX 5 3 2 7
BITMAP
030110
8C6830
A0BB00
ENDCHAR
STARTCHAR hungarumlaut
ENCODING 733
SWIDTH 517 0
DWIDTH 6 0
BBX 4 4 3 6
BITMAP
0001
2876
A380
1000
ENDCHAR
STARTCHAR l.sups
ENCODING 737
SWIDTH 165 0
DWIDTH 2 0
BBX 3 7 0 4
BITMAP
0010
0550
0820
0A00
0A00
2900
2B00
ENDCHAR
STARTCHAR s.sups
ENCODING 738
SWIDTH 271 0
DWIDTH 3 0
BBX 4 5 0 4
BITMAP
0AE3
0B12
0350
4292
3EC1
ENDCHAR
STARTCHAR x.sups
ENCODING 739
SWIDTH 295 0
DWIDTH 4 0
BBX 5 4 0 5
BITMAP
0A1A10
05C200
09B000
847400
ENDCHAR
STARTCHAR uni0300
ENCODING 768
SWIDTH 0 0
DWIDTH 0 0
BBX 3 3 0 7
BITMAP
7400
4C00
0820
ENDCHAR
STARTCHAR uni0301
ENCODING 769
SWIDTH 0 0
DWIDTH 0 0
BBX 4 2 0 7
BITMAP
02B1
2A20
ENDCHAR
STARTCHAR uni0302
ENCODING 770
SWIDTH 0 0
DWIDTH 0 0
BBX 5 3 -1 6
BITMAP
03F700
2C3C10
110210
ENDCHAR
STARTCHAR uni0303
ENCODING 771
SWIDTH 0 0
DWIDTH 0 0
BBX 5 3 -1 7
BITMAP
031020
3DB390
736E30
ENDCHAR
STARTCHAR uni0304
ENCODING 772
SWIDTH 0 0
DWIDTH 0 0
BBX 4 1 -1 7
BITMAP
1FFF
ENDCHAR
STARTCHAR uni0306
ENCODING 774
SWIDTH 0 0
DWIDTH 0 0
BBX 5 3 -1 7
BITMAP
010020
2A1840
09E700
ENDCHAR
STARTCHAR uni0307
ENCODING 775
SWIDTH 0 0
DWIDTH 0 0
BBX 3 1 0 7
BITMAP
1C10
ENDCHAR
STARTCHAR uni0308
ENCODING 776
SWIDTH 0 0
DWIDTH 0 0
BBX 5 1 -1 7
BITMAP
1B0B10
ENDCHAR
STARTCHAR uni0309
ENCODING 777
SWIDTH 0 0
DWIDTH 0 0
BBX 3 3 0 6
BITMAP
1D30
0770
0600
ENDCHAR
STARTCHAR uni030A
ENCODING 778
SWIDTH 0 0
DWIDTH 0 0
BBX 3 3 0 6
BITMAP
4E80
A3B0
7E50
ENDCHAR
STARTCHAR uni030B
ENCODING 779
SWIDTH 0 0
DWIDTH 0 0
BBX 4 4 0 6
BITMAP
0001
093B
6681
1000
ENDCHAR
STARTCHAR uni030C
ENCODING 780
SWIDTH 0 0
DWIDTH 0 0
BBX 5 3 -1 7
BITMAP
020110
1C3C20
07F400
ENDCHAR
STARTCHAR uni030F
ENCODING 783
SWIDTH 0 0
DWIDTH 0 0
BBX 4 3 -1 6
BITMAP
92B0
3774
0010
ENDCHAR
STARTCHAR uni0312
ENCODING 786
SWIDTH 0 0
DWIDTH 0 0
BBX 2 2 0 7
BITMAP
18
3A
ENDCHAR
STARTCHAR uni0313
ENCODING 787
SWIDTH 0 0
DWIDTH 0 0
BBX 3 2 0 7
BITMAP
0A20
1700
ENDCHAR
STARTCHAR uni031B
ENCODING 795
SWIDTH 0 0
DWIDTH 0 0
BBX 3 3 0 5
BITMAP
0050
03B0
1D30
ENDCHAR
STARTCHAR uni0323
ENCODING 803
SWIDTH 0 0
DWIDTH 0 0
BBX 2 1 -1 -3
BITMAP
C2
ENDCHAR
STARTCHAR uni0324
ENCODING 804
SWIDTH 0 0
DWIDTH 0 0
BBX 4 1 -2 -2
BITMAP
C092
ENDCHAR
STARTCHAR uni0326
ENCODING 806
SWIDTH 0 0
DWIDTH 0 0
BBX 3 3 -2 -3
BITMAP
0B50
0780
9B10
ENDCHAR
STARTCHAR uni0327
ENCODING 807
SWIDTH 0 0
DWIDTH 0 0
BBX 3 3 -2 -3
BITMAP
0A20
0660
9C30
ENDCHAR
STARTCHAR uni0328
ENCODING 808
SWIDTH 0 0
DWIDTH 0 0
BBX 3 3 -2 -2
BITMAP
0720
3800
1E50
ENDCHAR
STARTCHAR uni032E
ENCODING 814
SWIDTH 0 0
DWIDTH 0 0
BBX 4 3 -2 -2
BITMAP
2002
B166
7E90
ENDCHAR
STARTCHAR uni0331
ENCODING 817
SWIDTH 0 0
DWIDTH 0 0
BBX 4 1 -2 -2
BITMAP
DFF2
ENDCHAR
STARTCHAR pi
ENCODING 960
SWIDTH 558 0
DWIDTH 7 0
BBX 7 6 0 0
BITMAP
2FFFFFD0
03A03A00
06607600
0A30A200
0D00D000
3A00C900
ENDCHAR
STARTCHAR a.sups
ENCODING 7491
SWIDTH 354 0
DWIDTH 4 0
BBX 4 5 1 4
BITMAP
1BB4
9649
B046
C1A3
9D61
ENDCHAR
STARTCHAR b.sups
ENCODING 7495
SWIDTH 360 0
DWIDTH 4 0
BBX 5 7 0 4
BITMAP
012000
065000
08AE20
0B3660
0A0550
2B2C10
27E500
ENDCHAR
STARTCHAR d.sups
ENCODING 7496
SWIDTH 365 0
DWIDTH 4 0
BBX 5 7 0 4
BITMAP
000020
0000A0
04D980
0C3950
380920
483C00
1DA500
ENDCHAR
STARTCHAR e.sups
ENCODING 7497
SWIDTH 323 0
DWIDTH 4 0
BBX 4 5 0 4
BITMAP
04E9
1B1A
3FFF
3811
0BE4
ENDCHAR
STARTCHAR g.sups
ENCODING 7501
SWIDTH 354 0
DWIDTH 4 0
BBX 5 6 0 3
BITMAP
05D830
1B2840
481C10
1DBC00
316A00
3DD200
ENDCHAR
STARTCHAR k.sups
ENCODING 7503
SWIDTH 325 0
DWIDTH 4 0
BBX 5 6 0 5
BITMAP
056000
073110
0A1A10
0BB200
1D8400
471900
ENDCHAR
STARTCHAR m.sups
ENCODING 7504
SWIDTH 536 0
DWIDTH 6 0
BBX 7 5 0 4
BITMAP
098E8E30
0C396460
0B0A0640
380A0910
12030300
ENDCHAR
STARTCHAR o.sups
ENCODING 7506
SWIDTH 348 0
DWIDTH 4 0
BBX 5 5 0 4
BITMAP
04DB00
0C2930
370830
492C00
0CD400
ENDCHAR
STARTCHAR p.sups
ENCODING 7510
SWIDTH 358 0
DWIDTH 4 0
BBX 5 7 0 2
BITMAP
0A8E20
0C3660
0B0650
3B1C10
6AE500
820000
100000
ENDCHAR
STARTCHAR t.sups
ENCODING 7511
SWIDTH 222 0
DWIDTH 3 0
BBX 4 6 0 4
BITMAP
0550
1FF3
0A00
0A00
0B00
0C80
ENDCHAR
STARTCHAR u.sups
ENCODING 7512
SWIDTH 355 0
DWIDTH 4 0
BBX 5 5 0 4
BITMAP
030120
0A0640
0A0910
2A2B00
0D9500
ENDCHAR
STARTCHAR v.sups
ENCODING 7515
SWIDTH 307 0
DWIDTH 4 0
BBX 4 5 1 5
BITMAP
3021
A0A1
A470
AB10
9800
ENDCHAR
STARTCHAR c.sups
ENCODING 7580
SWIDTH 292 0
DWIDTH 4 0
BBX 4 5 0 4
BITMAP
04E9
0C22
3700
4911
0BD2
ENDCHAR
STARTCHAR f.sups
ENCODING 7584
SWIDTH 194 0
DWIDTH 2 0
BBX 4 7 0 4
BITMAP
01D8
0660
1FF0
0A00
0A00
1900
1200
ENDCHAR
STARTCHAR z.sups
ENCODING 7611
SWIDTH 279 0
DWIDTH 3 0
BBX 4 4 0 5
BITMAP
0CF9
0050
0400
7FF3
ENDCHAR
STARTCHAR uni1E06
ENCODING 7686
SWIDTH 583 0
DWIDTH 7 0
BBX 7 10 0 -2
BITMAP
02FFEB10
05A01A70
08602B50
0BFFF600
0D003B00
1C000C20
49016D00
7FFEB300
00000000
0CFF4000
ENDCHAR
STARTCHAR uni1E07
ENCODING 7687
SWIDTH 536 0
DWIDTH 6 0
BBX 6 11 0 -2
BITMAP
00D000
03B000
068000
099CE6
0C924D
0E001E
2B005A
5D24D3
88ED40
000000
1FFF00
ENDCHAR
STARTCHAR uni1E0C
ENCODING 7692
SWIDTH 592 0
DWIDTH 7 0
BBX 7 10 0 -2
BITMAP
02FFD600
05A03D60
087004A0
0B4003C0
0D1005A0
1C000C50
4902BB00
7FFD8100
00000000
00940000
ENDCHAR
STARTCHAR uni1E0D
ENCODING 7693
SWIDTH 535 0
DWIDTH 6 0
BBX 7 11 0 -2
BITMAP
00000680
00000950
00000B20
01AE9D00
0B817B00
4B005800
77008500
7A15E300
1CE8C000
00000000
01C00000
ENDCHAR
STARTCHAR uni1E0E
ENCODING 7694
SWIDTH 592 0
DWIDTH 7 0
BBX 7 10 0 -2
BITMAP
02FFD600
05A03D60
087004A0
0B4003C0
0D1005A0
1C000C50
4902BB00
7FFD8100
00000000
0AFF6000
ENDCHAR
STARTCHAR uni1E0F
ENCODING 7695
SWIDTH 535 0
DWIDTH 6 0
BBX 7 11 0 -2
BITMAP
00000680
00000950
00000B20
01AE9D00
0B817B00
4B005800
77008500
7A15E300
1CE8C000
00000000
1FFF0000
ENDCHAR
STARTCHAR uni1E16
ENCODING 7702
SWIDTH 503 0
DWIDTH 6 0
BBX 7 12 0 0
BITMAP
00000500
00007500
002FFE00
00000000
02FFFF40
05A00000
08600000
0BFFF100
0D000000
1C000000
49000000
7FFFE000
ENDCHAR
STARTCHAR uni1E17
ENCODING 7703
SWIDTH 481 0
DWIDTH 6 0
BBX 6 10 0 0
BITMAP
000092
000130
00AFF6
000000
02BEB0
0A3084
6FFFF4
860000
6B1230
0AEC30
ENDCHAR
STARTCHAR uni1E20
ENCODING 7712
SWIDTH 588 0
DWIDTH 7 0
BBX 7 10 0 0
BITMAP
0008FF80
00000000
003BED30
02E61470
0B500000
2D000000
4A01FF60
3B000930
1D612D00
03CED600
ENDCHAR
STARTCHAR uni1E21
ENCODING 7713
SWIDTH 531 0
DWIDTH 6 0
BBX 6 10 0 -2
BITMAP
008FF8
000000
02BEAC
1D518A
680077
7915E3
2DE9E0
0003C0
721B70
6EE900
ENDCHAR
STARTCHAR uni1E24
ENCODING 7716
SWIDTH 622 0
DWIDTH 7 0
BBX 8 10 0 -2
BITMAP
02C00095
059000D2
085001E0
0BFFFFB0
0D000780
1C000950
4A000C20
77000E00
00000000
00760000
ENDCHAR
STARTCHAR uni1E25
ENCODING 7717
SWIDTH 519 0
DWIDTH 6 0
BBX 6 11 0 -2
BITMAP
00D000
03B000
068000
09ACE5
0C817A
0E0068
2C0095
5900C2
8600D0
000000
02C000
ENDCHAR
STARTCHAR uni1E2A
ENCODING 7722
SWIDTH 622 0
DWIDTH 7 0
BBX 8 10 0 -2
BITMAP
02C00095
059000D2
085001E0
0BFFFFB0
0D000780
1C000950
4A000C20
79002E00
0932A000
03DC2000
ENDCHAR
STARTCHAR uni1E2B
ENCODING 7723
SWIDTH 519 0
DWIDTH 6 0
BBX 6 11 0 -2
BITMAP
00D000
03B000
068000
09ACE5
0C817A
0E0068
2C0095
5900C2
9701F0
391930
0AE600
ENDCHAR
STARTCHAR uni1E34
ENCODING 7732
SWIDTH 559 0
DWIDTH 7 0
BBX 7 10 0 -2
BITMAP
02C006A0
05906B00
0866B100
0B9E6000
0DA3B000
1D00C200
4A007700
77002D00
00000000
08FF8000
ENDCHAR
STARTCHAR uni1E35
ENCODING 7733
SWIDTH 476 0
DWIDTH 6 0
BBX 6 11 0 -2
BITMAP
00D000
03B000
068000
095097
0C2980
0E8B00
2F7C10
5A0860
8602C0
000000
2FFE00
ENDCHAR
STARTCHAR uni1E36
ENCODING 7734
SWIDTH 462 0
DWIDTH 6 0
BBX 5 10 0 -2
BITMAP
02C000
059000
086000
0B3000
0D0000
1C0000
490000
7FFFB0
000000
02C000
ENDCHAR
STARTCHAR uni1E37
ENCODING 7735
SWIDTH 248 0
DWIDTH 3 0
BBX 3 11 0 -2
BITMAP
00D0
03B0
0680
0950
0C20
0D00
3B00
6800
5D00
0000
C100
ENDCHAR
STARTCHAR uni1E38
ENCODING 7736
SWIDTH 462 0
DWIDTH 6 0
BBX 5 12 0 -2
BITMAP
0DFF30
000000
02C000
059000
086000
0B3000
0D0000
1C0000
490000
7FFFB0
000000
02C000
ENDCHAR
STARTCHAR uni1E39
ENCODING 7737
SWIDTH 248 0
DWIDTH 3 0
BBX 5 13 0 -2
BITMAP
0BFF50
000000
00D000
03B000
068000
095000
0C2000
0D0000
3B0000
680000
5D0000
000000
C10000
ENDCHAR
STARTCHAR uni1E3A
ENCODING 7738
SWIDTH 462 0
DWIDTH 6 0
BBX 5 10 0 -2
BITMAP
02C000
059000
086000
0B3000
0D0000
1C0000
490000
7FFFB0
000000
2FFE00
ENDCHAR
STARTCHAR uni1E3B
ENCODING 7739
SWIDTH 248 0
DWIDTH 3 0
BBX 4 11 -1 -2
BITMAP
000D
003B
0068
0095
00C2
00D0
03B0
0680
05D0
0000
EFF2
ENDCHAR
STARTCHAR uni1E42
ENCODING 7746
SWIDTH 705 0
DWIDTH 8 0
BBX 9 11 0 -3
BITMAP
02F3001E50
05D5008D20
0898029D00
0B4A094B00
0D0B285800
1C0B919500
490870C200
760100D000
0000000000
0000000000
001C000000
ENDCHAR
STARTCHAR uni1E43
ENCODING 7747
SWIDTH 799 0
DWIDTH 10 0
BBX 9 8 0 -2
BITMAP
097CE49E90
0BA29E43E0
0E008701C0
2C00B30490
5900D00760
8602C00B30
0000000000
0007700000
ENDCHAR
STARTCHAR uni1E44
ENCODING 7748
SWIDTH 619 0
DWIDTH 7 0
BBX 8 10 0 0
BITMAP
00008500
00000000
02F20094
05C700C1
086C00D0
0B3A23A0
0D058670
1C01C840
4900AC10
76005D00
ENDCHAR
STARTCHAR uni1E45
ENCODING 7749
SWIDTH 525 0
DWIDTH 6 0
BBX 6 8 0 0
BITMAP
0003A0
000000
096CE5
0BA27A
0E0068
2C0095
5900C2
8600D0
ENDCHAR
STARTCHAR uni1E46
ENCODING 7750
SWIDTH 619 0
DWIDTH 7 0
BBX 8 11 0 -3
BITMAP
02F20094
05C700C1
086C00D0
0B3A23A0
0D058670
1C01C840
4900AC10
76005D00
00000000
00000000
00760000
ENDCHAR
STARTCHAR uni1E47
ENCODING 7751
SWIDTH 525 0
DWIDTH 6 0
BBX 6 8 0 -2
BITMAP
096CE5
0BA27A
0E0068
2C0095
5900C2
8600D0
000000
02C000
ENDCHAR
STARTCHAR uni1E48
ENCODING 7752
SWIDTH 619 0
DWIDTH 7 0
BBX 8 10 0 -2
BITMAP
02F20094
05C700C1
086C00D0
0B3A23A0
0D058670
1C01C840
4900AC10
76005D00
00000000
08FF8000
ENDCHAR
STARTCHAR uni1E49
ENCODING 7753
SWIDTH 525 0
DWIDTH 6 0
BBX 6 8 0 -2
BITMAP
096CE5
0BA27A
0E0068
2C0095
5900C2
8600D0
000000
2FFE00
ENDCHAR
STARTCHAR uni1E52
ENCODING 7762
SWIDTH 633 0
DWIDTH 8 0
BBX 8 12 0 0
BITMAP
00000240
00001A20
0009FF70
00000000
003CEC30
03E415D0
0B4000C2
2D0000B4
4B0000D1
3C0005B0
0D514D30
03CEC300
ENDCHAR
STARTCHAR uni1E53
ENCODING 7763
SWIDTH 515 0
DWIDTH 6 0
BBX 6 10 0 0
BITMAP
000075
000040
007FF9
000000
01AEC1
0C6188
5A004A
860078
6A15D1
0AEC30
ENDCHAR
STARTCHAR uni1E5A
ENCODING 7770
SWIDTH 555 0
DWIDTH 7 0
BBX 7 11 0 -3
BITMAP
02FFEB10
05A01980
08700680
0B403C20
0DFFA200
1E06A000
4A01E100
77008700
00000000
00000000
00A40000
ENDCHAR
STARTCHAR uni1E5B
ENCODING 7771
SWIDTH 342 0
DWIDTH 4 0
BBX 5 8 0 -2
BITMAP
096D60
0B9100
0E0000
2C0000
590000
860000
000000
C10000
ENDCHAR
STARTCHAR uni1E5C
ENCODING 7772
SWIDTH 555 0
DWIDTH 7 0
BBX 7 13 0 -3
BITMAP
001FFF00
00000000
02FFEB10
05A01980
08700680
0B403C20
0DFFA200
1E06A000
4A01E100
77008700
00000000
00000000
00A40000
ENDCHAR
STARTCHAR uni1E5D
ENCODING 7773
SWIDTH 342 0
DWIDTH 4 0
BBX 5 10 0 -2
BITMAP
04FFC0
000000
096D60
0B9100
0E0000
2C0000
590000
860000
000000
C10000
ENDCHAR
STARTCHAR uni1E5E
ENCODING 7774
SWIDTH 555 0
DWIDTH 7 0
BBX 7 10 0 -2
BITMAP
02FFEB10
05A01980
08700680
0B403C20
0DFFA200
1E06A000
4A01E100
77008700
00000000
0BFF5000
ENDCHAR
STARTCHAR uni1E5F
ENCODING 7775
SWIDTH 342 0
DWIDTH 4 0
BBX 6 8 -1 -2
BITMAP
0096D6
00B910
00E000
02C000
059000
086000
000000
EFF200
ENDCHAR
STARTCHAR uni1E60
ENCODING 7776
SWIDTH 506 0
DWIDTH 6 0
BBX 6 10 0 0
BITMAP
0003B0
000000
009ED5
06A139
078000
01CA20
0007E2
000087
9812C4
1AED70
ENDCHAR
STARTCHAR uni1E61
ENCODING 7777
SWIDTH 402 0
DWIDTH 5 0
BBX 5 8 0 0
BITMAP
002B00
000000
07ED20
1D1330
0CC300
006E10
922D10
4DE600
ENDCHAR
STARTCHAR uni1E62
ENCODING 7778
SWIDTH 506 0
DWIDTH 6 0
BBX 6 11 0 -3
BITMAP
009ED5
06A139
078000
01CA20
0007E2
000087
9812C4
1AED70
000000
000000
02B000
ENDCHAR
STARTCHAR uni1E63
ENCODING 7779
SWIDTH 402 0
DWIDTH 5 0
BBX 5 8 0 -2
BITMAP
07ED20
1D1330
0CC300
006E10
922D10
4DE600
000000
0A3000
ENDCHAR
STARTCHAR uni1E6C
ENCODING 7788
SWIDTH 510 0
DWIDTH 6 0
BBX 6 10 1 -2
BITMAP
CFFFFB
00B300
00D100
02C000
059000
086000
0B3000
0E1000
000000
490000
ENDCHAR
STARTCHAR uni1E6D
ENCODING 7789
SWIDTH 325 0
DWIDTH 4 0
BBX 5 10 0 -2
BITMAP
007000
02B000
3FFF10
086000
0B2000
0D0000
2D1000
1CE300
000000
0C2000
ENDCHAR
STARTCHAR uni1E6E
ENCODING 7790
SWIDTH 510 0
DWIDTH 6 0
BBX 7 10 0 -2
BITMAP
0CFFFFB0
000B3000
000D1000
002C0000
00590000
00860000
00B30000
00E10000
00000000
5FFB0000
ENDCHAR
STARTCHAR uni1E6F
ENCODING 7791
SWIDTH 325 0
DWIDTH 4 0
BBX 5 10 0 -2
BITMAP
007000
02B000
3FFF10
086000
0B2000
0D0000
2D1000
1CE300
000000
DFF200
ENDCHAR
STARTCHAR Wgrave
ENCODING 7808
SWIDTH 756 0
DWIDTH 9 0
BBX 9 10 1 0
BITMAP
0007500000
0001A20000
B302E00680
C209D00B20
C21AB02B00
C274B18500
C2B0B1C000
C660B68000
CA00BB2000
D800AB0000
ENDCHAR
STARTCHAR wgrave
ENCODING 7809
SWIDTH 707 0
DWIDTH 8 0
BBX 9 10 0 0
BITMAP
0001A00000
0000A60000
00001A0000
0000000000
2C00E30850
1C06B41C00
0D0A746600
0D4765C100
0CA15A8000
0B804E2000
ENDCHAR
STARTCHAR Wacute
ENCODING 7810
SWIDTH 756 0
DWIDTH 9 0
BBX 9 10 1 0
BITMAP
00001A2000
0000A40000
B302E00680
C209D00B20
C21AB02B00
C274B18500
C2B0B1C000
C660B68000
CA00BB2000
D800AB0000
ENDCHAR
STARTCHAR wacute
ENCODING 7811
SWIDTH 707 0
DWIDTH 8 0
BBX 9 9 0 0
BITMAP
0000068000
0000670000
0000000000
2C00E30850
1C06B41C00
0D0A746600
0D4765C100
0CA15A8000
0B804E2000
ENDCHAR
STARTCHAR Wdieresis
ENCODING 7812
SWIDTH 756 0
DWIDTH 9 0
BBX 9 10 1 0
BITMAP
000B092000
0000000000
B302E00680
C209D00B20
C21AB02B00
C274B18500
C2B0B1C000
C660B68000
CA00BB2000
D800AB0000
ENDCHAR
STARTCHAR wdieresis
ENCODING 7813
SWIDTH 707 0
DWIDTH 8 0
BBX 9 8 0 0
BITMAP
0006639000
0000000000
2C00E30850
1C06B41C00
0D0A746600
0D4765C100
0CA15A8000
0B804E2000
ENDCHAR
STARTCHAR uni1E8E
ENCODING 7822
SWIDTH 461 0
DWIDTH 6 0
BBX 6 10 1 0
BITMAP
009400
000000
D100C3
950770
582C00
1BB300
0C7000
0D1000
1D0000
3A0000
ENDCHAR
STARTCHAR uni1E8F
ENCODING 7823
SWIDTH 448 0
DWIDTH 5 0
BBX 7 10 -1 -2
BITMAP
0001C000
00000000
03B00680
00D00C10
00C07600
00A3B000
007B4000
005A0000
02C20000
9D400000
ENDCHAR
STARTCHAR uni1E92
ENCODING 7826
SWIDTH 512 0
DWIDTH 6 0
BBX 7 11 0 -3
BITMAP
05FFFF60
00003B00
0002C100
001B3000
00A50000
07800000
4B000000
EFFFF300
00000000
00000000
04A00000
ENDCHAR
STARTCHAR uni1E93
ENCODING 7827
SWIDTH 410 0
DWIDTH 5 0
BBX 7 8 -1 -2
BITMAP
00BFFF10
00009600
00087000
00790000
06A00000
1FFFF200
00000000
00A30000
ENDCHAR
STARTCHAR uni1E97
ENCODING 7831
SWIDTH 325 0
DWIDTH 4 0
BBX 5 10 0 0
BITMAP
0A2750
000000
007000
02B000
3FFF10
086000
0B2000
0D0000
2D1000
1CE300
ENDCHAR
STARTCHAR uni1E9E
ENCODING 7838
SWIDTH 633 0
DWIDTH 8 0
BBX 7 8 0 0
BITMAP
003BED50
01E514E0
06902A40
0A40C910
0D104BB0
1D0000E0
4A3715C0
7709EC30
ENDCHAR
STARTCHAR uni1EA0
ENCODING 7840
SWIDTH 510 0
DWIDTH 6 0
BBX 7 10 -1 -2
BITMAP
00009C00
00038C00
00091C00
00350A20
00CFFF30
05700850
0C100770
69000690
00000000
002B0000
ENDCHAR
STARTCHAR uni1EA1
ENCODING 7841
SWIDTH 537 0
DWIDTH 6 0
BBX 6 8 0 -2
BITMAP
01AE9C
0B817B
4B0058
770086
7A15E3
1CE8C0
000000
01C000
ENDCHAR
STARTCHAR uni1EA2
ENCODING 7842
SWIDTH 510 0
DWIDTH 6 0
BBX 7 11 -1 0
BITMAP
00006B00
00000C10
00003300
00009C00
00038C00
00091C00
00350A20
00CFFF30
05700850
0C100770
69000690
ENDCHAR
STARTCHAR uni1EA3
ENCODING 7843
SWIDTH 537 0
DWIDTH 6 0
BBX 6 9 0 0
BITMAP
0007A0
0000C1
000430
01AE9C
0B817B
4B0058
770086
7A15E3
1CE8C0
ENDCHAR
STARTCHAR uni1EA4
ENCODING 7844
SWIDTH 510 0
DWIDTH 6 0
BBX 8 11 -1 0
BITMAP
00000005
00007F74
00028370
00009C00
00038C00
00091C00
00350A20
00CFFF30
05700850
0C100770
69000690
ENDCHAR
STARTCHAR uni1EA5
ENCODING 7845
SWIDTH 537 0
DWIDTH 6 0
BBX 7 10 0 0
BITMAP
00000020
000AD680
00564700
00000000
01AE9C00
0B817B00
4B005800
77008600
7A15E300
1CE8C000
ENDCHAR
STARTCHAR uni1EA6
ENCODING 7846
SWIDTH 510 0
DWIDTH 6 0
BBX 7 11 -1 0
BITMAP
00060000
00059F30
00028370
00009C00
00038C00
00091C00
00350A20
00CFFF30
05700850
0C100770
69000690
ENDCHAR
STARTCHAR uni1EA7
ENCODING 7847
SWIDTH 537 0
DWIDTH 6 0
BBX 6 10 0 0
BITMAP
031000
048AD1
007646
000000
01AE9C
0B817B
4B0058
770086
7A15E3
1CE8C0
ENDCHAR
STARTCHAR uni1EA8
ENCODING 7848
SWIDTH 510 0
DWIDTH 6 0
BBX 8 11 -1 0
BITMAP
00000079
00007F4B
00028381
00009C00
00038C00
00091C00
00350A20
00CFFF30
05700850
0C100770
69000690
ENDCHAR
STARTCHAR uni1EA9
ENCODING 7849
SWIDTH 537 0
DWIDTH 6 0
BBX 7 10 0 0
BITMAP
00000960
000AD3A0
00564810
00000000
01AE9C00
0B817B00
4B005800
77008600
7A15E300
1CE8C000
ENDCHAR
STARTCHAR uni1EAA
ENCODING 7850
SWIDTH 510 0
DWIDTH 6 0
BBX 8 11 -1 0
BITMAP
0000BA54
0002EFF1
00028370
00009C00
00038C00
00091C00
00350A20
00CFFF30
05700850
0C100770
69000690
ENDCHAR
STARTCHAR uni1EAB
ENCODING 7851
SWIDTH 537 0
DWIDTH 6 0
BBX 6 10 0 0
BITMAP
001D78
0045B9
000AD1
005645
01AE9C
0B817B
4B0058
770086
7A15E3
1CE8C0
ENDCHAR
STARTCHAR uni1EAC
ENCODING 7852
SWIDTH 510 0
DWIDTH 6 0
BBX 7 12 -1 -2
BITMAP
00007F40
0004A3A0
00009C00
00038C00
00091C00
00350A20
00CFFF30
05700850
0C100770
69000690
00000000
002B0000
ENDCHAR
STARTCHAR uni1EAD
ENCODING 7853
SWIDTH 537 0
DWIDTH 6 0
BBX 6 11 0 -2
BITMAP
000AE1
007958
002002
01AE9C
0B817B
4B0058
770086
7A15E3
1CE8C0
000000
01C000
ENDCHAR
STARTCHAR uni1EAE
ENCODING 7854
SWIDTH 510 0
DWIDTH 6 0
BBX 8 12 -1 0
BITMAP
00000040
00000A40
000471A1
0000BD40
00009C00
00038C00
00091C00
00350A20
00CFFF30
05700850
0C100770
69000690
ENDCHAR
STARTCHAR uni1EAF
ENCODING 7855
SWIDTH 537 0
DWIDTH 6 0
BBX 7 10 0 0
BITMAP
00114A20
00385930
000AE600
00000000
01AE9C00
0B817B00
4B005800
77008600
7A15E300
1CE8C000
ENDCHAR
STARTCHAR uni1EB0
ENCODING 7856
SWIDTH 510 0
DWIDTH 6 0
BBX 8 12 -1 0
BITMAP
00003200
00003A00
000472A1
0000BD40
00009C00
00038C00
00091C00
00350A20
00CFFF30
05700850
0C100770
69000690
ENDCHAR
STARTCHAR uni1EB1
ENCODING 7857
SWIDTH 537 0
DWIDTH 6 0
BBX 7 10 0 0
BITMAP
00149120
00386930
000AE600
00000000
01AE9C00
0B817B00
4B005800
77008600
7A15E300
1CE8C000
ENDCHAR
STARTCHAR uni1EB2
ENCODING 7858
SWIDTH 510 0
DWIDTH 6 0
BBX 8 12 -1 0
BITMAP
00000D20
00000940
000473A1
0000BD40
00009C00
00038C00
00091C00
00350A20
00CFFF30
05700850
0C100770
69000690
ENDCHAR
STARTCHAR uni1EB3
ENCODING 7859
SWIDTH 537 0
DWIDTH 6 0
BBX 7 10 0 0
BITMAP
0011C520
00386F30
000AF600
00000000
01AE9C00
0B817B00
4B005800
77008600
7A15E300
1CE8C000
ENDCHAR
STARTCHAR uni1EB4
ENCODING 7860
SWIDTH 510 0
DWIDTH 6 0
BBX 8 14 -1 0
BITMAP
0000CA54
000278D1
00000000
000471A0
0001CE50
00000000
00009C00
00038C00
00091C00
00350A20
00CFFF30
05700850
0C100770
69000690
ENDCHAR
STARTCHAR uni1EB5
ENCODING 7861
SWIDTH 537 0
DWIDTH 6 0
BBX 7 12 0 0
BITMAP
0009A440
00098D10
00000000
00381A10
000BE700
00000000
01AE9C00
0B817B00
4B005800
77008600
7A15E300
1CE8C000
ENDCHAR
STARTCHAR uni1EB6
ENCODING 7862
SWIDTH 510 0
DWIDTH 6 0
BBX 8 12 -1 -2
BITMAP
000471A1
0000BE40
00009C00
00038C00
00091C00
00350A20
00CFFF30
05700850
0C100770
69000690
00000000
002B0000
ENDCHAR
STARTCHAR uni1EB7
ENCODING 7863
SWIDTH 537 0
DWIDTH 6 0
BBX 6 12 0 -2
BITMAP
002002
00842B
002DC3
000000
01AE9C
0B817B
4B0058
770086
7A15E3
1CE8C0
000000
01C000
ENDCHAR
STARTCHAR uni1EB8
ENCODING 7864
SWIDTH 503 0
DWIDTH 6 0
BBX 7 10 0 -2
BITMAP
02FFFF40
05A00000
08600000
0BFFF100
0D000000
1C000000
49000000
7FFFE000
00000000
00C10000
ENDCHAR
STARTCHAR uni1EB9
ENCODING 7865
SWIDTH 481 0
DWIDTH 6 0
BBX 6 8 0 -2
BITMAP
02BEB0
0A3084
6FFFF4
860000
6B1230
0AEC30
000000
03A000
ENDCHAR
STARTCHAR uni1EBA
ENCODING 7866
SWIDTH 503 0
DWIDTH 6 0
BBX 7 11 0 0
BITMAP
0005C100
0000A300
00024000
02FFFF40
05A00000
08600000
0BFFF100
0D000000
1C000000
49000000
7FFFE000
ENDCHAR
STARTCHAR uni1EBB
ENCODING 7867
SWIDTH 481 0
DWIDTH 6 0
BBX 6 9 0 0
BITMAP
000990
0001C0
000520
02BEB0
0A3084
6FFFF4
860000
6B1230
0AEC30
ENDCHAR
STARTCHAR uni1EBC
ENCODING 7868
SWIDTH 503 0
DWIDTH 6 0
BBX 7 12 0 0
BITMAP
00010000
004E9480
00919D20
00000000
02FFFF40
05A00000
08600000
0BFFF100
0D000000
1C000000
49000000
7FFFE000
ENDCHAR
STARTCHAR uni1EBD
ENCODING 7869
SWIDTH 481 0
DWIDTH 6 0
BBX 6 10 0 0
BITMAP
001202
00BD4B
0282D7
000000
02BEB0
0A3084
6FFFF4
860000
6B1230
0AEC30
ENDCHAR
STARTCHAR uni1EBE
ENCODING 7870
SWIDTH 503 0
DWIDTH 6 0
BBX 8 11 0 0
BITMAP
00000051
0005F750
00183800
02FFFF40
05A00000
08600000
0BFFF100
0D000000
1C000000
49000000
7FFFE000
ENDCHAR
STARTCHAR uni1EBF
ENCODING 7871
SWIDTH 481 0
DWIDTH 6 0
BBX 7 10 0 0
BITMAP
00000020
001CB760
00746500
00000000
02BEB000
0A308400
6FFFF400
86000000
6B123000
0AEC3000
ENDCHAR
STARTCHAR uni1EC0
ENCODING 7872
SWIDTH 503 0
DWIDTH 6 0
BBX 7 11 0 0
BITMAP
00600000
0038F400
00183800
02FFFF40
05A00000
08600000
0BFFF100
0D000000
1C000000
49000000
7FFFE000
ENDCHAR
STARTCHAR uni1EC1
ENCODING 7873
SWIDTH 481 0
DWIDTH 6 0
BBX 6 10 0 0
BITMAP
030000
066CB0
009464
000000
02BEB0
0A3084
6FFFF4
860000
6B1230
0AEC30
ENDCHAR
STARTCHAR uni1EC2
ENCODING 7874
SWIDTH 503 0
DWIDTH 6 0
BBX 7 11 0 0
BITMAP
000005A0
0005F5B0
00183910
02FFFF40
05A00000
08600000
0BFFF100
0D000000
1C000000
49000000
7FFFE000
ENDCHAR
STARTCHAR uni1EC3
ENCODING 7875
SWIDTH 481 0
DWIDTH 6 0
BBX 7 10 0 0
BITMAP
00000B40
001CB570
00746700
00000000
02BEB000
0A308400
6FFFF400
86000000
6B123000
0AEC3000
ENDCHAR
STARTCHAR uni1EC4
ENCODING 7876
SWIDTH 503 0
DWIDTH 6 0
BBX 7 11 0 0
BITMAP
000AB460
000DFF20
00183700
02FFFF40
05A00000
08600000
0BFFF100
0D000000
1C000000
49000000
7FFFE000
ENDCHAR
STARTCHAR uni1EC5
ENCODING 7877
SWIDTH 481 0
DWIDTH 6 0
BBX 6 10 0 0
BITMAP
002E48
0073C6
001CB0
007463
02BEB0
0A3084
6FFFF4
860000
6B1230
0AEC30
ENDCHAR
STARTCHAR uni1EC6
ENCODING 7878
SWIDTH 503 0
DWIDTH 6 0
BBX 7 12 0 -2
BITMAP
0006F600
003B3B00
02FFFF40
05A00000
08600000
0BFFF100
0D000000
1C000000
49000000
7FFFE000
00000000
00C10000
ENDCHAR
STARTCHAR uni1EC7
ENCODING 7879
SWIDTH 481 0
DWIDTH 6 0
BBX 6 11 0 -2
BITMAP
000CD0
00A686
002002
02BEB0
0A3084
6FFFF4
860000
6B1230
0AEC30
000000
03A000
ENDCHAR
STARTCHAR uni1EC8
ENCODING 7880
SWIDTH 252 0
DWIDTH 3 0
BBX 4 11 0 0
BITMAP
01D3
0076
0050
02C0
0590
0870
0B40
0D10
1D00
4A00
7700
ENDCHAR
STARTCHAR uni1EC9
ENCODING 7881
SWIDTH 237 0
DWIDTH 3 0
BBX 4 9 0 0
BITMAP
02D2
0085
0160
0950
0B20
0E00
2C00
5900
8600
ENDCHAR
STARTCHAR uni1ECA
ENCODING 7882
SWIDTH 252 0
DWIDTH 3 0
BBX 3 11 0 -3
BITMAP
02C0
0590
0870
0B40
0D10
1D00
4A00
7700
0000
0000
C200
ENDCHAR
STARTCHAR uni1ECB
ENCODING 7883
SWIDTH 237 0
DWIDTH 3 0
BBX 3 11 0 -2
BITMAP
0020
02D0
0000
0950
0B20
0E00
2C00
5900
8600
0000
C100
ENDCHAR
STARTCHAR uni1ECC
ENCODING 7884
SWIDTH 633 0
DWIDTH 8 0
BBX 8 10 0 -2
BITMAP
003CEC30
03E415D0
0B4000C2
2D0000B4
4B0000D1
3C0005B0
0D514D30
03CEC300
00000000
00670000
ENDCHAR
STARTCHAR uni1ECD
ENCODING 7885
SWIDTH 515 0
DWIDTH 6 0
BBX 6 8 0 -2
BITMAP
01AEC1
0C6188
5A004A
860078
6A15D1
0AEC30
000000
076000
ENDCHAR
STARTCHAR uni1ECE
ENCODING 7886
SWIDTH 633 0
DWIDTH 8 0
BBX 8 11 0 0
BITMAP
0000A700
00002B00
00004100
003CEC30
03E415D0
0B4000C2
2D0000B4
4B0000D1
3C0005B0
0D514D30
03CEC300
ENDCHAR
STARTCHAR uni1ECF
ENCODING 7887
SWIDTH 515 0
DWIDTH 6 0
BBX 6 9 0 0
BITMAP
0007B0
0000C1
000340
01AEC1
0C6188
5A004A
860078
6A15D1
0AEC30
ENDCHAR
STARTCHAR uni1ED0
ENCODING 7888
SWIDTH 633 0
DWIDTH 8 0
BBX 8 11 0 0
BITMAP
00000015
0000BD72
00055640
003CEC30
03E415D0
0B4000C2
2D0000B4
4B0000D1
3C0005B0
0D514D30
03CEC300
ENDCHAR
STARTCHAR uni1ED1
ENCODING 7889
SWIDTH 515 0
DWIDTH 6 0
BBX 7 10 0 0
BITMAP
00000020
0009E690
00564800
00000000
01AEC100
0C618800
5A004A00
86007800
6A15D100
0AEC3000
ENDCHAR
STARTCHAR uni1ED2
ENCODING 7890
SWIDTH 633 0
DWIDTH 8 0
BBX 8 11 0 0
BITMAP
00240000
0007BD00
00055640
003CEC30
03E415D0
0B4000C2
2D0000B4
4B0000D1
3C0005B0
0D514D30
03CEC300
ENDCHAR
STARTCHAR uni1ED3
ENCODING 7891
SWIDTH 515 0
DWIDTH 6 0
BBX 6 10 0 0
BITMAP
021000
0399E1
006646
000000
01AEC1
0C6188
5A004A
860078
6A15D1
0AEC30
ENDCHAR
STARTCHAR uni1ED4
ENCODING 7892
SWIDTH 633 0
DWIDTH 8 0
BBX 8 11 0 0
BITMAP
000000B5
0000BD58
00055660
003CEC30
03E415D0
0B4000C2
2D0000B4
4B0000D1
3C0005B0
0D514D30
03CEC300
ENDCHAR
STARTCHAR uni1ED5
ENCODING 7893
SWIDTH 515 0
DWIDTH 6 0
BBX 7 10 0 0
BITMAP
00000970
0009E3A0
00564810
00000000
01AEC100
0C618800
5A004A00
86007800
6A15D100
0AEC3000
ENDCHAR
STARTCHAR uni1ED6
ENCODING 7894
SWIDTH 633 0
DWIDTH 8 0
BBX 8 11 0 0
BITMAP
0002E680
0007EF90
00055540
003CEC30
03E415D0
0B4000C2
2D0000B4
4B0000D1
3C0005B0
0D514D30
03CEC300
ENDCHAR
STARTCHAR uni1ED7
ENCODING 7895
SWIDTH 515 0
DWIDTH 6 0
BBX 6 10 0 0
BITMAP
000D78
0045A9
000AE1
004646
01AEC1
0C6188
5A004A
860078
6A15D1
0AEC30
ENDCHAR
STARTCHAR uni1ED8
ENCODING 7896
SWIDTH 633 0
DWIDTH 8 0
BBX 8 12 0 -2
BITMAP
0000BE10
00087670
003CEC30
03E415D0
0B4000C2
2D0000B4
4B0000D1
3C0005B0
0D514D30
03CEC300
00000000
00670000
ENDCHAR
STARTCHAR uni1ED9
ENCODING 7897
SWIDTH 515 0
DWIDTH 6 0
BBX 6 11 0 -2
BITMAP
0009F2
007959
002002
01AEC1
0C6188
5A004A
860078
6A15D1
0AEC30
000000
076000
ENDCHAR
STARTCHAR uni1EDA
ENCODING 7898
SWIDTH 633 0
DWIDTH 8 0
BBX 8 10 0 0
BITMAP
0000085A
0000861B
003CFCB3
03E415C0
0B4000C2
2D0000B4
4B0000D2
3C0005B0
0D514E30
03CEC300
ENDCHAR
STARTCHAR uni1EDB
ENCODING 7899
SWIDTH 517 0
DWIDTH 6 0
BBX 7 9 0 0
BITMAP
00008600
00085280
00000580
01AFDB10
0C618700
5A004A00
86007800
6A15D100
0AEC3000
ENDCHAR
STARTCHAR uni1EDC
ENCODING 7900
SWIDTH 633 0
DWIDTH 8 0
BBX 8 10 0 0
BITMAP
0004800A
0000841B
003CFCB3
03E415C0
0B4000C2
2D0000B4
4B0000D2
3C0005B0
0D514E30
03CEC300
ENDCHAR
STARTCHAR uni1EDD
ENCODING 7901
SWIDTH 517 0
DWIDTH 6 0
BBX 7 10 0 0
BITMAP
002A0000
000C4000
00028280
00000580
01AFDB10
0C618700
5A004A00
86007800
6A15D100
0AEC3000
ENDCHAR
STARTCHAR uni1EDE
ENCODING 7902
SWIDTH 633 0
DWIDTH 8 0
BBX 8 11 0 0
BITMAP
0000C600
00004A0A
0000511B
003CFCB3
03E415C0
0B4000C2
2D0000B4
4B0000D2
3C0005B0
0D514E30
03CEC300
ENDCHAR
STARTCHAR uni1EDF
ENCODING 7903
SWIDTH 517 0
DWIDTH 6 0
BBX 7 9 0 0
BITMAP
00099000
0001D280
00043580
01AFDB10
0C618700
5A004A00
86007800
6A15D100
0AEC3000
ENDCHAR
STARTCHAR uni1EE0
ENCODING 7904
SWIDTH 633 0
DWIDTH 8 0
BBX 8 12 0 0
BITMAP
00010000
002DC2A0
00637E4A
0000001B
003CFCB3
03E415C0
0B4000C2
2D0000B4
4B0000D2
3C0005B0
0D514E30
03CEC300
ENDCHAR
STARTCHAR uni1EE1
ENCODING 7905
SWIDTH 517 0
DWIDTH 6 0
BBX 7 10 0 0
BITMAP
00220200
00CC2A00
0464E680
00000580
01AFDB10
0C618700
5A004A00
86007800
6A15D100
0AEC3000
ENDCHAR
STARTCHAR uni1EE2
ENCODING 7906
SWIDTH 633 0
DWIDTH 8 0
BBX 8 12 0 -2
BITMAP
0000000A
0000001B
003CFCB3
03E415C0
0B4000C2
2D0000B4
4B0000D2
3C0005B0
0D514E30
03CEC300
00000000
00760000
ENDCHAR
STARTCHAR uni1EE3
ENCODING 7907
SWIDTH 517 0
DWIDTH 6 0
BBX 7 10 0 -2
BITMAP
00000280
00000580
01AFDB10
0C618700
5A004A00
86007800
6A15D100
0AEC3000
00000000
08600000
ENDCHAR
STARTCHAR uni1EE4
ENCODING 7908
SWIDTH 616 0
DWIDTH 7 0
BBX 7 10 1 -2
BITMAP
2C000A40
59000D10
86001D00
B2004A00
E0007700
E000C300
D517C000
4CEB2000
00000000
09400000
ENDCHAR
STARTCHAR uni1EE5
ENCODING 7909
SWIDTH 528 0
DWIDTH 6 0
BBX 6 9 0 -3
BITMAP
09501D
0C204A
0D0077
3A00B4
5B17F1
1DE6C0
000000
000000
00C200
ENDCHAR
STARTCHAR uni1EE6
ENCODING 7910
SWIDTH 616 0
DWIDTH 7 0
BBX 7 11 1 0
BITMAP
000C6000
0004A000
00051000
2C000A40
59000D10
86001D00
B2004A00
E0007700
E000C300
D517C000
4CEB2000
ENDCHAR
STARTCHAR uni1EE7
ENCODING 7911
SWIDTH 528 0
DWIDTH 6 0
BBX 6 9 0 0
BITMAP
0008A0
0001D0
000430
09501D
0C204A
0D0077
3A00B4
5B17F1
1DE6C0
ENDCHAR
STARTCHAR uni1EE8
ENCODING 7912
SWIDTH 629 0
DWIDTH 8 0
BBX 8 10 1 0
BITMAP
0000850A
00086048
2C000A50
59000D10
86001D00
B2004A00
E0007700
E000C300
D517B000
4CEB2000
ENDCHAR
STARTCHAR uni1EE9
ENCODING 7913
SWIDTH 543 0
DWIDTH 7 0
BBX 8 9 0 0
BITMAP
00007600
00076073
000001B1
09501D20
0C204A00
0D007700
3A00B400
5B17F100
1DE6C000
ENDCHAR
STARTCHAR uni1EEA
ENCODING 7914
SWIDTH 629 0
DWIDTH 8 0
BBX 8 10 1 0
BITMAP
0058000A
00084048
2C000A50
59000D10
86001D00
B2004A00
E0007700
E000C300
D517B000
4CEB2000
ENDCHAR
STARTCHAR uni1EEB
ENCODING 7915
SWIDTH 543 0
DWIDTH 7 0
BBX 8 10 0 0
BITMAP
001A0000
000B5000
00029073
000001B1
09501D20
0C204A00
0D007700
3A00B400
5B17F100
1DE6C000
ENDCHAR
STARTCHAR uni1EEC
ENCODING 7916
SWIDTH 629 0
DWIDTH 8 0
BBX 8 11 1 0
BITMAP
000C5000
0004900A
00051048
2C000A50
59000D10
86001D00
B2004A00
E0007700
E000C300
D517B000
4CEB2000
ENDCHAR
STARTCHAR uni1EED
ENCODING 7917
SWIDTH 543 0
DWIDTH 7 0
BBX 8 9 0 0
BITMAP
0008A000
0001D073
000431B1
09501D20
0C204A00
0D007700
3A00B400
5B17F100
1DE6C000
ENDCHAR
STARTCHAR uni1EEE
ENCODING 7918
SWIDTH 629 0
DWIDTH 8 0
BBX 8 12 1 0
BITMAP
00010000
00CD3B00
0364E60A
00000048
2C000A50
59000D10
86001D00
B2004A00
E0007700
E000C300
D517B000
4CEB2000
ENDCHAR
STARTCHAR uni1EEF
ENCODING 7919
SWIDTH 543 0
DWIDTH 7 0
BBX 8 10 0 0
BITMAP
00130200
00BD4B10
0191D873
000001B1
09501D20
0C204A00
0D007700
3A00B400
5B17F100
1DE6C000
ENDCHAR
STARTCHAR uni1EF0
ENCODING 7920
SWIDTH 629 0
DWIDTH 8 0
BBX 8 12 1 -2
BITMAP
0000000A
00000048
2C000A50
59000D10
86001D00
B2004A00
E0007700
E000C300
D517B000
4CEB2000
00000000
09400000
ENDCHAR
STARTCHAR uni1EF1
ENCODING 7921
SWIDTH 543 0
DWIDTH 7 0
BBX 8 11 0 -3
BITMAP
00000073
000001B1
09501D20
0C204A00
0D007700
3A00B400
5B17F100
1DE6C000
00000000
00000000
00C10000
ENDCHAR
STARTCHAR Ygrave
ENCODING 7922
SWIDTH 461 0
DWIDTH 6 0
BBX 6 10 1 0
BITMAP
058000
008400
D100C3
950770
582C00
1BB300
0C7000
0D1000
1D0000
3A0000
ENDCHAR
STARTCHAR ygrave
ENCODING 7923
SWIDTH 448 0
DWIDTH 5 0
BBX 7 12 -1 -2
BITMAP
00083000
0005B000
00009200
00000000
03B00680
00D00C10
00C07600
00A3B000
007B4000
005A0000
02C20000
9D400000
ENDCHAR
STARTCHAR uni1EF4
ENCODING 7924
SWIDTH 461 0
DWIDTH 6 0
BBX 6 11 1 -3
BITMAP
D100C3
950770
582C00
1BB300
0C7000
0D1000
1D0000
3A0000
000000
000000
950000
ENDCHAR
STARTCHAR uni1EF5
ENCODING 7925
SWIDTH 448 0
DWIDTH 5 0
BBX 7 9 -1 -3
BITMAP
03B00680
00D00C10
00C07600
00A3B000
007B4000
005A0000
02C20000
9D400000
0001C000
ENDCHAR
STARTCHAR uni1EF6
ENCODING 7926
SWIDTH 461 0
DWIDTH 6 0
BBX 6 11 1 0
BITMAP
00C500
004900
005100
D100C3
950770
582C00
1BB300
0C7000
0D1000
1D0000
3A0000
ENDCHAR
STARTCHAR uni1EF7
ENCODING 7927
SWIDTH 448 0
DWIDTH 5 0
BBX 7 11 -1 -2
BITMAP
0002D300
00007600
00016000
03B00680
00D00C10
00C07600
00A3B000
007B4000
005A0000
02C20000
9D400000
ENDCHAR
STARTCHAR uni1EF8
ENCODING 7928
SWIDTH 461 0
DWIDTH 6 0
BBX 6 12 1 0
BITMAP
001000
0CD3B0
364E60
000000
D100C3
950770
582C00
1BB300
0C7000
0D1000
1D0000
3A0000
ENDCHAR
STARTCHAR uni1EF9
ENCODING 7929
SWIDTH 448 0
DWIDTH 5 0
BBX 7 12 -1 -2
BITMAP
00031020
003DB480
00827D20
00000000
03B00680
00D00C10
00C07600
00A3B000
007B4000
005A0000
02C20000
9D400000
ENDCHAR
STARTCHAR uni2007
ENCODING 8199
SWIDTH 480 0
DWIDTH 6 0
BBX 1 1 0 0
BITMAP
00
ENDCHAR
STARTCHAR figuredash
ENCODING 8210
SWIDTH 480 0
DWIDTH 6 0
BBX 6 1 0 3
BITMAP
8FFFF4
ENDCHAR
STARTCHAR endash
ENCODING 8211
SWIDTH 463 0
DWIDTH 6 0
BBX 6 1 0 3
BITMAP
8FFFF1
ENDCHAR
STARTCHAR emdash
ENCODING 8212
SWIDTH 769 0
DWIDTH 9 0
BBX 9 1 0 3
BITMAP
8FFFFFFFB0
ENDCHAR
STARTCHAR uni2015
ENCODING 8213
SWIDTH 769 0
DWIDTH 9 0
BBX 9 1 0 3
BITMAP
8FFFFFFFB0
ENDCHAR
STARTCHAR quoteleft
ENCODING 8216
SWIDTH 242 0
DWIDTH 3 0
BBX 2 3 1 5
BITMAP
08
72
86
ENDCHAR
STARTCHAR quoteright
ENCODING 8217
SWIDTH 242 0
DWIDTH 3 0
BBX 3 3 1 5
BITMAP
1D10
0900
5300
ENDCHAR
STARTCHAR quotesinglbase
ENCODING 8218
SWIDTH 242 0
DWIDTH 3 0
BBX 2 3 0 -2
BITMAP
69
27
80
ENDCHAR
STARTCHAR quotedblleft
ENCODING 8220
SWIDTH 408 0
DWIDTH 5 0
BBX 4 3 1 5
BITMAP
0818
7272
8696
ENDCHAR
STARTCHAR quotedblright
ENCODING 8221
SWIDTH 408 0
DWIDTH 5 0
BBX 5 3 1 5
BITMAP
1D2D10
090900
535300
ENDCHAR
STARTCHAR quotedblbase
ENCODING 8222
SWIDTH 408 0
DWIDTH 5 0
BBX 4 3 0 -2
BITMAP
6978
2737
8180
ENDCHAR
STARTCHAR dagger
ENCODING 8224
SWIDTH 435 0
DWIDTH 5 0
BBX 5 10 1 -1
BITMAP
00B000
00B000
AEFF30
147000
074000
0A1000
0B0000
1A0000
470000
640000
ENDCHAR
STARTCHAR daggerdbl
ENCODING 8225
SWIDTH 435 0
DWIDTH 5 0
BBX 6 10 0 -1
BITMAP
000B00
000B00
0AEFF3
014700
008400
00B100
00A100
AEFF30
147000
064000
ENDCHAR
STARTCHAR bullet
ENCODING 8226
SWIDTH 295 0
DWIDTH 4 0
BBX 4 3 0 2
BITMAP
2DB0
7FF1
4E90
ENDCHAR
STARTCHAR ellipsis
ENCODING 8230
SWIDTH 960 0
DWIDTH 12 0
BBX 10 2 1 0
BITMAP
4100410051
D300D200D2
ENDCHAR
STARTCHAR uni202F
ENCODING 8239
SWIDTH 121 0
DWIDTH 1 0
BBX 1 1 0 0
BITMAP
00
ENDCHAR
STARTCHAR perthousand
ENCODING 8240
SWIDTH 1144 0
DWIDTH 14 0
BBX 14 8 0 0
BITMAP
04EC1018000000
0C285081000000
38065640000000
391C378E805EB0
0BE69491C1C193
00082820B56083
00450944A572C0
018003EC21CE40
ENDCHAR
STARTCHAR uni2032
ENCODING 8242
SWIDTH 242 0
DWIDTH 3 0
BBX 2 3 1 5
BITMAP
0D
39
83
ENDCHAR
STARTCHAR uni2033
ENCODING 8243
SWIDTH 408 0
DWIDTH 5 0
BBX 4 3 1 5
BITMAP
0D1D
3939
8382
ENDCHAR
STARTCHAR guilsinglleft
ENCODING 8249
SWIDTH 252 0
DWIDTH 3 0
BBX 3 4 0 1
BITMAP
0360
3900
5600
0800
ENDCHAR
STARTCHAR guilsinglright
ENCODING 8250
SWIDTH 252 0
DWIDTH 3 0
BBX 3 4 0 1
BITMAP
0800
0560
0850
6400
ENDCHAR
STARTCHAR fraction
ENCODING 8260
SWIDTH 84 0
DWIDTH 1 0
BBX 7 8 -3 0
BITMAP
00000270
00000900
00007200
00045000
00180000
00910000
06300000
36000000
ENDCHAR
STARTCHAR zero.sups
ENCODING 8304
SWIDTH 357 0
DWIDTH 4 0
BBX 4 5 1 5
BITMAP
1BE4
862B
A01A
C186
6EA0
ENDCHAR
STARTCHAR i.sups
ENCODING 8305
SWIDTH 163 0
DWIDTH 2 0
BBX 3 6 0 4
BITMAP
0550
0610
0B00
0A00
3800
1200
ENDCHAR
STARTCHAR four.sups
ENCODING 8308
SWIDTH 354 0
DWIDTH 4 0
BBX 4 6 1 4
BITMAP
00A6
06A3
2590
CFF8
00A0
0020
ENDCHAR
STARTCHAR five.sups
ENCODING 8309
SWIDTH 351 0
DWIDTH 4 0
BBX 4 5 1 5
BITMAP
0DFA
1900
4ED2
8294
6EA0
ENDCHAR
STARTCHAR six.sups
ENCODING 8310
SWIDTH 353 0
DWIDTH 4 0
BBX 4 5 1 5
BITMAP
09E7
6712
ACD2
B385
4EB1
ENDCHAR
STARTCHAR seven.sups
ENCODING 8311
SWIDTH 353 0
DWIDTH 4 0
BBX 4 6 1 4
BITMAP
3FFD
0064
0280
0910
1A00
0100
ENDCHAR
STARTCHAR eight.sups
ENCODING 8312
SWIDTH 353 0
DWIDTH 4 0
BBX 4 5 1 5
BITMAP
1CE5
3937
3240
B193
8EB0
ENDCHAR
STARTCHAR nine.sups
ENCODING 8313
SWIDTH 353 0
DWIDTH 4 0
BBX 4 5 1 5
BITMAP
2DD2
8458
5EC7
21A3
AE70
ENDCHAR
STARTCHAR parenleft.sups
ENCODING 8317
SWIDTH 227 0
DWIDTH 3 0
BBX 3 7 1 4
BITMAP
0360
0A00
4700
8300
9100
8200
4400
ENDCHAR
STARTCHAR parenright.sups
ENCODING 8318
SWIDTH 226 0
DWIDTH 3 0
BBX 3 7 0 4
BITMAP
0170
00A0
00A0
00A0
0280
0820
2700
ENDCHAR
STARTCHAR n.sups
ENCODING 8319
SWIDTH 355 0
DWIDTH 4 0
BBX 5 5 0 4
BITMAP
098E10
0C3830
0B0910
380A00
120300
ENDCHAR
STARTCHAR zero.subs
ENCODING 8320
SWIDTH 357 0
DWIDTH 4 0
BBX 5 5 -1 -2
BITMAP
03DC10
0B2760
290550
2A1B10
0AE600
ENDCHAR
STARTCHAR one.subs
ENCODING 8321
SWIDTH 356 0
DWIDTH 4 0
BBX 3 5 0 -2
BITMAP
2B90
0560
0830
0A00
0800
ENDCHAR
STARTCHAR two.subs
ENCODING 8322
SWIDTH 353 0
DWIDTH 4 0
BBX 5 5 -1 -2
BITMAP
03DC10
042A20
000600
014000
3EFC00
ENDCHAR
STARTCHAR three.subs
ENCODING 8323
SWIDTH 351 0
DWIDTH 4 0
BBX 5 5 -1 -2
BITMAP
04DC10
022B20
00F700
252B00
0AE700
ENDCHAR
STARTCHAR four.subs
ENCODING 8324
SWIDTH 354 0
DWIDTH 4 0
BBX 5 6 -1 -3
BITMAP
001E10
009A00
052900
2FFF30
004600
002100
ENDCHAR
STARTCHAR five.subs
ENCODING 8325
SWIDTH 351 0
DWIDTH 4 0
BBX 5 5 -1 -2
BITMAP
02FF60
064000
09EA00
271C00
0AE700
ENDCHAR
STARTCHAR six.subs
ENCODING 8326
SWIDTH 353 0
DWIDTH 4 0
BBX 5 5 -1 -2
BITMAP
02CE30
0A4110
0DEB00
1C1B00
09E700
ENDCHAR
STARTCHAR seven.subs
ENCODING 8327
SWIDTH 353 0
DWIDTH 4 0
BBX 4 5 0 -2
BITMAP
8FF9
0081
0640
0A00
5600
ENDCHAR
STARTCHAR eight.subs
ENCODING 8328
SWIDTH 353 0
DWIDTH 4 0
BBX 5 5 -1 -2
BITMAP
03DD10
074830
040500
292B00
1CE700
ENDCHAR
STARTCHAR nine.subs
ENCODING 8329
SWIDTH 353 0
DWIDTH 4 0
BBX 5 5 -1 -2
BITMAP
05EA00
0B1A30
09ED20
022B00
2DD300
ENDCHAR
STARTCHAR parenleft.subs
ENCODING 8333
SWIDTH 227 0
DWIDTH 3 0
BBX 3 7 0 -3
BITMAP
0720
2800
9200
B000
A000
A000
8000
ENDCHAR
STARTCHAR parenright.subs
ENCODING 8334
SWIDTH 226 0
DWIDTH 3 0
BBX 3 7 -1 -3
BITMAP
0530
0370
0280
0370
0730
0A00
6300
ENDCHAR
STARTCHAR uni0259.sups
ENCODING 8340
SWIDTH 320 0
DWIDTH 4 0
BBX 4 5 0 4
BITMAP
06E7
011B
4FFE
5639
1DC2
ENDCHAR
STARTCHAR colonmonetary
ENCODING 8353
SWIDTH 480 0
DWIDTH 6 0
BBX 6 12 0 -2
BITMAP
000012
000067
005CFB
03A855
0B2750
1C2550
3A6510
3A6600
1D7660
07EE60
066000
011000
ENDCHAR
STARTCHAR lira
ENCODING 8356
SWIDTH 480 0
DWIDTH 6 0
BBX 6 8 0 0
BITMAP
005DE5
01D327
03A000
2FFF90
5FFF50
048000
0A2000
BFFFB0
ENDCHAR
STARTCHAR uni20A6
ENCODING 8358
SWIDTH 480 0
DWIDTH 6 0
BBX 6 8 0 0
BITMAP
02D038
06C165
099392
8FFFFC
DFFFF8
192990
460C60
740D30
ENDCHAR
STARTCHAR peseta
ENCODING 8359
SWIDTH 480 0
DWIDTH 6 0
BBX 7 8 0 0
BITMAP
03FFA100
0681A500
6FFFFF10
0B23C200
0EFC4000
2B000000
58000000
85000000
ENDCHAR
STARTCHAR dong
ENCODING 8363
SWIDTH 480 0
DWIDTH 6 0
BBX 7 8 0 0
BITMAP
00001900
000DFF70
01BEA600
0A61D200
0B00D000
1D16B000
0AEA7000
8FFF8000
ENDCHAR
STARTCHAR Euro
ENCODING 8364
SWIDTH 480 0
DWIDTH 6 0
BBX 7 8 0 0
BITMAP
002BE800
01D51910
08700000
6FFFF200
BFFF6000
0E000000
0B616100
03CE8000
ENDCHAR
STARTCHAR uni20B1
ENCODING 8369
SWIDTH 480 0
DWIDTH 6 0
BBX 7 8 0 0
BITMAP
03FE9000
0595D400
4FFFFF20
7FFFFE00
0DFD8000
1B000000
48000000
85000000
ENDCHAR
STARTCHAR uni20B2
ENCODING 8370
SWIDTH 480 0
DWIDTH 6 0
BBX 6 11 0 -2
BITMAP
0000A0
003AD5
03D319
0C2000
3B0000
6808F6
690093
3D22D0
08FD60
00A000
002000
ENDCHAR
STARTCHAR uni20B5
ENCODING 8373
SWIDTH 480 0
DWIDTH 6 0
BBX 6 12 0 -2
BITMAP
000030
0001A0
007FDA
05D363
0D4530
2D0700
3B0800
3A0800
0C2770
05CD60
008100
002000
ENDCHAR
STARTCHAR uni20B9
ENCODING 8377
SWIDTH 480 0
DWIDTH 6 0
BBX 7 8 0 0
BITMAP
05FFFF10
0004B000
0AFFFB00
0017B000
1FFB2000
00B20000
00590000
000D1000
ENDCHAR
STARTCHAR uni20BA
ENCODING 8378
SWIDTH 480 0
DWIDTH 6 0
BBX 6 8 0 0
BITMAP
009500
00B681
07E530
15E840
4B8026
085076
0B46B0
0DC600
ENDCHAR
STARTCHAR uni2113
ENCODING 8467
SWIDTH 394 0
DWIDTH 5 0
BBX 6 9 0 0
BITMAP
003DD1
00C4A3
01D0A1
059480
089A00
0BA100
8F0000
2E2410
08EA10
ENDCHAR
STARTCHAR uni2117
ENCODING 8471
SWIDTH 665 0
DWIDTH 8 0
BBX 8 8 0 0
BITMAP
004CED70
05B30296
1A0DFC19
62191B28
804FE808
63740066
2C7128A0
03CED700
ENDCHAR
STARTCHAR uni2120
ENCODING 8480
SWIDTH 601 0
DWIDTH 7 0
BBX 8 4 0 4
BITMAP
08E4964C
07229AB8
2281AB57
2EC37064
ENDCHAR
STARTCHAR trademark
ENCODING 8482
SWIDTH 611 0
DWIDTH 7 0
BBX 7 5 1 3
BITMAP
FFF883E0
0A099B90
370AA580
64190460
10000000
ENDCHAR
STARTCHAR uni2126
ENCODING 8486
SWIDTH 658 0
DWIDTH 8 0
BBX 8 8 0 0
BITMAP
003BED70
02E613E4
0B600088
1E000077
3C000094
1C0001A0
0B201910
FFA0BFD0
ENDCHAR
STARTCHAR estimated
ENCODING 8494
SWIDTH 800 0
DWIDTH 10 0
BBX 10 8 0 0
BITMAP
002AEEA200
03D5115B20
0D500004A0
2F500004F1
2FFFFFFFF4
0D50000000
03A4113710
002BEEB400
ENDCHAR
STARTCHAR onethird
ENCODING 8531
SWIDTH 778 0
DWIDTH 9 0
BBX 8 8 1 0
BITMAP
5C400540
09102700
0B009000
1A072AE6
26450349
018008D1
09106185
63004EC1
ENDCHAR
STARTCHAR twothirds
ENCODING 8532
SWIDTH 795 0
DWIDTH 10 0
BBX 9 8 0 0
BITMAP
03EC100900
042A207200
0006046000
0140188E80
3EFB8132B0
0006405F30
0027052580
009002DD30
ENDCHAR
STARTCHAR oneeighth
ENCODING 8539
SWIDTH 773 0
DWIDTH 9 0
BBX 8 8 1 0
BITMAP
5C400540
09102800
0B009000
1A072AE6
26461A29
01802231
0810A285
63007EC1
ENDCHAR
STARTCHAR threeeighths
ENCODING 8540
SWIDTH 787 0
DWIDTH 9 0
BBX 9 8 0 0
BITMAP
05EB000900
022C108200
02F6055000
343B288E80
1BE690B1A0
0007214230
0046093670
018005ED20
ENDCHAR
STARTCHAR fiveeighths
ENCODING 8541
SWIDTH 787 0
DWIDTH 9 0
BBX 9 8 0 0
BITMAP
03FF500900
0630008200
0AEA055000
372C288E80
0BE690B1A0
0007214230
0046093670
018005ED20
ENDCHAR
STARTCHAR seveneighths
ENCODING 8542
SWIDTH 770 0
DWIDTH 9 0
BBX 8 8 1 0
BITMAP
CFF50630
01803700
09109000
38082BE5
82552A38
12803241
0900B184
72008EB1
ENDCHAR
STARTCHAR uni2190
ENCODING 8592
SWIDTH 593 0
DWIDTH 7 0
BBX 7 7 0 0
BITMAP
00170000
01B20000
1A200000
9FFFFFD0
1A200000
01B20000
00170000
ENDCHAR
STARTCHAR arrowup
ENCODING 8593
SWIDTH 593 0
DWIDTH 7 0
BBX 7 7 0 -1
BITMAP
001C3000
01BDB200
1B2B1B20
530B0150
000B0000
000B0000
000B0000
ENDCHAR
STARTCHAR uni2192
ENCODING 8594
SWIDTH 593 0
DWIDTH 7 0
BBX 7 7 0 0
BITMAP
00062000
0001B200
00001A20
CFFFFFA0
00001A20
0001B200
00062000
ENDCHAR
STARTCHAR arrowdown
ENCODING 8595
SWIDTH 593 0
DWIDTH 7 0
BBX 7 7 0 -1
BITMAP
000B0000
000B0000
000B0000
530B0150
1B2B1B20
01BDB200
001C3000
ENDCHAR
STARTCHAR partialdiff
ENCODING 8706
SWIDTH 519 0
DWIDTH 6 0
BBX 6 8 0 0
BITMAP
006ED3
00415C
00000D
06EE5D
4C21B9
9300A4
A618A0
3DE910
ENDCHAR
STARTCHAR uni2206
ENCODING 8710
SWIDTH 565 0
DWIDTH 7 0
BBX 7 8 -1 0
BITMAP
00006F00
0001CB20
00077940
001C0860
00850680
02B00490
094003B0
2FFFFFC0
ENDCHAR
STARTCHAR product
ENCODING 8719
SWIDTH 646 0
DWIDTH 8 0
BBX 6 10 1 -2
BITMAP
DFFFFC
D1001C
D1001C
D1001C
D1001C
D1001C
D1001C
D1001C
D1001C
400003
ENDCHAR
STARTCHAR summation
ENCODING 8721
SWIDTH 485 0
DWIDTH 6 0
BBX 6 10 0 -2
BITMAP
7FFFF8
1C1000
058000
00A300
002B00
004B00
00C200
077000
2C0000
9FFFFD
ENDCHAR
STARTCHAR minus
ENCODING 8722
SWIDTH 480 0
DWIDTH 6 0
BBX 6 1 0 3
BITMAP
6FFFF8
ENDCHAR
STARTCHAR uni2215
ENCODING 8725
SWIDTH 84 0
DWIDTH 1 0
BBX 7 8 -3 0
BITMAP
00000270
00000900
00007200
00045000
00180000
00910000
06300000
36000000
ENDCHAR
STARTCHAR uni2219
ENCODING 8729
SWIDTH 244 0
DWIDTH 3 0
BBX 2 2 1 3
BITMAP
41
D2
ENDCHAR
STARTCHAR radical
ENCODING 8730
SWIDTH 537 0
DWIDTH 6 0
BBX 8 11 0 -1
BITMAP
00000019
00000073
000000A0
00000550
00000A00
19603700
13809100
01A19000
00A73000
00A90000
00A50000
ENDCHAR
STARTCHAR infinity
ENCODING 8734
SWIDTH 752 0
DWIDTH 9 0
BBX 9 4 0 2
BITMAP
2CE72CFA10
851BD40760
851AD51760
2CE63CEA00
ENDCHAR
STARTCHAR integral
ENCODING 8747
SWIDTH 321 0
DWIDTH 4 0
BBX 6 12 -1 -2
BITMAP
0001BB
000780
000B20
000D00
001C00
002B00
004900
005800
007600
00A300
02D000
3E5000
ENDCHAR
STARTCHAR approxequal
ENCODING 8776
SWIDTH 480 0
DWIDTH 6 0
BBX 6 4 0 2
BITMAP
1CC353
344DB0
1CC353
344DB0
ENDCHAR
STARTCHAR notequal
ENCODING 8800
SWIDTH 480 0
DWIDTH 6 0
BBX 6 8 0 0
BITMAP
000041
000280
6FFFF8
001900
008200
6FFFF8
082000
050000
ENDCHAR
STARTCHAR lessequal
ENCODING 8804
SWIDTH 480 0
DWIDTH 6 0
BBX 6 7 0 0
BITMAP
000002
0039B4
4B9300
3AB610
0016B6
000000
6FFFF8
ENDCHAR
STARTCHAR greaterequal
ENCODING 8805
SWIDTH 480 0
DWIDTH 6 0
BBX 6 7 0 0
BITMAP
100000
3B9300
0038B4
015AA3
5B6100
000000
6FFFF8
ENDCHAR
STARTCHAR uni231C
ENCODING 8988
SWIDTH 292 0
DWIDTH 4 0
BBX 5 9 0 0
BITMAP
00FF10
039000
066000
093000
0B0000
0B0000
290000
560000
530000
ENDCHAR
STARTCHAR uni231D
ENCODING 8989
SWIDTH 293 0
DWIDTH 4 0
BBX 3 9 1 0
BITMAP
AF60
0730
0900
0A00
1900
4600
7400
A100
8000
ENDCHAR
STARTCHAR uni231E
ENCODING 8990
SWIDTH 292 0
DWIDTH 4 0
BBX 3 9 0 -1
BITMAP
0170
0470
0640
0910
0A00
0900
3700
6400
8F70
ENDCHAR
STARTCHAR uni231F
ENCODING 8991
SWIDTH 293 0
DWIDTH 4 0
BBX 5 9 -1 -1
BITMAP
000530
000920
000B00
000B00
003800
006500
009300
00B000
4FC000
ENDCHAR
STARTCHAR uni25A0
ENCODING 9632
SWIDTH 895 0
DWIDTH 11 0
BBX 11 10 0 -1
BITMAP
4FFFFFFFFF60
4FFFFFFFFF60
4FFFFFFFFF60
4FFFFFFFFF60
4FFFFFFFFF60
4FFFFFFFFF60
4FFFFFFFFF60
4FFFFFFFFF60
4FFFFFFFFF60
4FFFFFFFFF60
ENDCHAR
STARTCHAR triagup
ENCODING 9650
SWIDTH 895 0
DWIDTH 11 0
BBX 11 10 0 -1
BITMAP
000008000000
00002F500000
00009FC00000
0002FFF40000
0009FFFB0000
001EFFFF3000
008FFFFFA000
01EFFFFFF300
07FFFFFFFA00
1EFFFFFFFF20
ENDCHAR
STARTCHAR uni25B3
ENCODING 9651
SWIDTH 895 0
DWIDTH 11 0
BBX 10 10 1 -1
BITMAP
0000700000
0002C40000
0008190000
0018064000
0082009000
0190007300
0720001900
1900000820
7300000190
EFFFFFFFF2
ENDCHAR
STARTCHAR uni25B6
ENCODING 9654
SWIDTH 895 0
DWIDTH 11 0
BBX 11 10 0 -1
BITMAP
4A2000000000
4FF920000000
4FFFF9200000
4FFFFFF92000
4FFFFFFFF920
4FFFFFFFF920
4FFFFFF92000
4FFFF9200000
4FF920000000
4A2000000000
ENDCHAR
STARTCHAR uni25B7
ENCODING 9655
SWIDTH 895 0
DWIDTH 11 0
BBX 11 10 0 -1
BITMAP
4A2000000000
4AB920000000
4703B9200000
470003A92000
47000003A920
47000003A920
470003A92000
4703A9200000
4AB920000000
4A2000000000
ENDCHAR
STARTCHAR triagdn
ENCODING 9660
SWIDTH 895 0
DWIDTH 11 0
BBX 11 10 0 -1
BITMAP
1EFFFFFFFF20
07FFFFFFFA00
01EFFFFFF300
008FFFFFA000
001EFFFF3000
0009FFFB0000
0002FFF40000
00009FC00000
00002F500000
000008000000
ENDCHAR
STARTCHAR uni25BD
ENCODING 9661
SWIDTH 895 0
DWIDTH 11 0
BBX 10 10 1 -1
BITMAP
EFFFFFFFF2
7300000190
1900000820
0720001900
0190007300
0082009000
0018063000
0008190000
0002C40000
0000600000
ENDCHAR
STARTCHAR uni25C0
ENCODING 9664
SWIDTH 895 0
DWIDTH 11 0
BBX 11 10 0 -1
BITMAP
000000001860
00000018EF60
000018EFFF60
0018EFFFFF60
18EFFFFFFF60
18EFFFFFFF60
0018EFFFFF60
000018EFFF60
00000018EF60
000000001860
ENDCHAR
STARTCHAR uni25C1
ENCODING 9665
SWIDTH 895 0
DWIDTH 11 0
BBX 11 10 0 -1
BITMAP
000000001860
00000018C960
000018B50460
0018B4000460
18B400000460
18B400000460
0018B4000460
000018B50460
00000018C960
000000001860
ENDCHAR
STARTCHAR uni25C6
ENCODING 9670
SWIDTH 895 0
DWIDTH 11 0
BBX 11 10 0 -1
BITMAP
00001B300000
0001DFE30000
001DFFFE3000
02DFFFFFE300
2DFFFFFFFE30
2DFFFFFFFE30
02DFFFFFE300
002DFFFE3000
0001DFE30000
00001B300000
ENDCHAR
STARTCHAR uni25C9
ENCODING 9673
SWIDTH 895 0
DWIDTH 11 0
BBX 11 10 0 -1
BITMAP
0018DFD92000
02D93437D300
0B56EFF83D10
3A2FFFFF5750
566FFFFF9480
566FFFFF8480
3A2EFFFF3750
0C54CFD53D10
02D82127D400
0018DFE92000
ENDCHAR
STARTCHAR lozenge
ENCODING 9674
SWIDTH 499 0
DWIDTH 6 0
BBX 5 8 1 0
BITMAP
08C000
1C9500
762B00
C00940
C00940
762B00
1C9500
08C000
ENDCHAR
STARTCHAR uni2610
ENCODING 9744
SWIDTH 765 0
DWIDTH 9 0
BBX 9 8 0 0
BITMAP
1DFFFFFF50
2500000850
2500000850
2500000850
2500000850
2500000850
2500000850
2FFFFFFE30
ENDCHAR
STARTCHAR uni2611
ENCODING 9745
SWIDTH 766 0
DWIDTH 9 0
BBX 10 10 0 0
BITMAP
0000000003
00000000A5
1DFFFFFF70
2500006D50
2500048850
25A1290850
2565A10850
252D600850
2503000850
2FFFFFFE30
ENDCHAR
STARTCHAR uni266A
ENCODING 9834
SWIDTH 480 0
DWIDTH 6 0
BBX 6 9 0 0
BITMAP
000300
001E40
001CD3
001838
001807
001812
001800
4DE700
6FC200
ENDCHAR
STARTCHAR uni2713
ENCODING 10003
SWIDTH 542 0
DWIDTH 7 0
BBX 9 9 -1 -1
BITMAP
0000000770
0000007800
0000058000
00003A0000
1600A10000
0C07400000
0849000000
04D3000000
0120000000
ENDCHAR
STARTCHAR uni2752
ENCODING 10066
SWIDTH 895 0
DWIDTH 11 0
BBX 11 10 0 -1
BITMAP
2DFFFFFFFF60
440000000860
440000000860
440000000860
440000000860
440000000860
440000000860
440000000860
440000000860
4FFFFFFFFE30
ENDCHAR
STARTCHAR uni2E22
ENCODING 11810
SWIDTH 292 0
DWIDTH 4 0
BBX 4 6 1 3
BITMAP
0EF2
2A00
5700
7400
A100
7000
ENDCHAR
STARTCHAR uni2E23
ENCODING 11811
SWIDTH 293 0
DWIDTH 4 0
BBX 3 6 1 3
BITMAP
9F70
0640
0910
0A00
0A00
1500
ENDCHAR
STARTCHAR uni2E24
ENCODING 11812
SWIDTH 292 0
DWIDTH 4 0
BBX 3 6 0 -2
BITMAP
0700
1900
4600
7300
9000
CF30
ENDCHAR
STARTCHAR uni2E25
ENCODING 11813
SWIDTH 293 0
DWIDTH 4 0
BBX 4 6 -1 -2
BITMAP
0034
0074
00A2
00B0
01B0
8F80
ENDCHAR
STARTCHAR f_f
ENCODING 64256
SWIDTH 552 0
DWIDTH 7 0
BBX 8 9 0 0
BITMAP
005EA3DC
00E21B51
03B00E00
2FFFFFE0
09505900
0C208600
0D00B300
3B00E000
6802C000
ENDCHAR
STARTCHAR fi
ENCODING 64257
SWIDTH 519 0
DWIDTH 6 0
BBX 7 9 0 0
BITMAP
006E8200
00E21B40
03B00000
2FFB3B00
09506800
0C208500
0D00B200
3B00D000
6802C000
ENDCHAR
STARTCHAR fl
ENCODING 64258
SWIDTH 530 0
DWIDTH 6 0
BBX 7 9 0 0
BITMAP
006E8940
00E21C10
03B00D00
2FFB3A00
09506700
0C209400
0D00C100
3B00D000
6800D400
ENDCHAR
STARTCHAR uniFEFF
ENCODING 65279
SWIDTH 0 0
DWIDTH 0 0
BBX 1 1 0 0
BITMAP
00
ENDCHAR
STARTCHAR .notdef
ENCODING -1
SWIDTH 628 0
DWIDTH 8 0
BBX 8 8 0 0
BITMAP
02FFFFF6
05B606C3
084B37B0
0A1AA0B0
0B1BA290
1A92B660
4D306D30
7FFFFF00
ENDCHAR
STARTCHAR uni00470303
ENCODING -1
SWIDTH 588 0
DWIDTH 7 0
BBX 8 12 0 0
BITMAP
00001000
0009E492
00192D90
00000000
003BED30
02E61470
0B500000
2D000000
4A01FF60
3B000930
1D612D00
03CED600
ENDCHAR
STARTCHAR uni00670303
ENCODING -1
SWIDTH 531 0
DWIDTH 6 0
BBX 7 12 0 -2
BITMAP
00130110
00AD5A20
0091C900
00000000
02BEAC00
1D518A00
68007700
7915E300
2DE9E000
0003C000
721B7000
6EE90000
ENDCHAR
STARTCHAR iogonek.d
ENCODING -1
SWIDTH 237 0
DWIDTH 3 0
BBX 4 9 -1 -3
BITMAP
0095
00B2
00E0
02C0
0590
0860
1810
6500
4E20
ENDCHAR
STARTCHAR f_t
ENCODING -1
SWIDTH 561 0
DWIDTH 7 0
BBX 7 9 0 0
BITMAP
006E8000
00E21700
03B04900
2FFFFFE0
0950A300
0C20D000
0D02B000
3B04B100
6802DE10
ENDCHAR
STARTCHAR I.a
ENCODING -1
SWIDTH 324 0
DWIDTH 4 0
BBX 5 8 0 0
BITMAP
09FF40
00C200
01D000
04A000
077000
0A4000
0D1000
FFD000
ENDCHAR
STARTCHAR Igrave.a
ENCODING -1
SWIDTH 324 0
DWIDTH 4 0
BBX 5 10 0 0
BITMAP
02A000
005700
09FF40
00C200
01D000
04A000
077000
0A4000
0D1000
FFD000
ENDCHAR
STARTCHAR Iacute.a
ENCODING -1
SWIDTH 324 0
DWIDTH 4 0
BBX 5 10 0 0
BITMAP
000680
006810
09FF40
00C200
01D000
04A000
077000
0A4000
0D1000
FFD000
ENDCHAR
STARTCHAR Icircumflex.a
ENCODING -1
SWIDTH 324 0
DWIDTH 4 0
BBX 5 10 0 0
BITMAP
00BE10
077580
09FF40
00C200
01D000
04A000
077000
0A4000
0D1000
FFD000
ENDCHAR
STARTCHAR Itilde.a
ENCODING -1
SWIDTH 324 0
DWIDTH 4 0
BBX 6 12 0 0
BITMAP
001000
09E592
092D90
000000
09FF40
00C200
01D000
04A000
077000
0A4000
0D1000
FFD000
ENDCHAR
STARTCHAR Idieresis.a
ENCODING -1
SWIDTH 324 0
DWIDTH 4 0
BBX 5 10 0 0
BITMAP
075480
000000
09FF40
00C200
01D000
04A000
077000
0A4000
0D1000
FFD000
ENDCHAR
STARTCHAR Imacron.a
ENCODING -1
SWIDTH 324 0
DWIDTH 4 0
BBX 5 10 0 0
BITMAP
08FF80
000000
09FF40
00C200
01D000
04A000
077000
0A4000
0D1000
FFD000
ENDCHAR
STARTCHAR Idotaccent.a
ENCODING -1
SWIDTH 324 0
DWIDTH 4 0
BBX 5 10 0 0
BITMAP
006700
000000
09FF40
00C200
01D000
04A000
077000
0A4000
0D1000
FFD000
ENDCHAR
STARTCHAR uni01CF.a
ENCODING -1
SWIDTH 324 0
DWIDTH 4 0
BBX 5 10 0 0
BITMAP
076690
01DC00
09FF40
00C200
01D000
04A000
077000
0A4000
0D1000
FFD000
ENDCHAR
STARTCHAR uni1EC8.a
ENCODING -1
SWIDTH 324 0
DWIDTH 4 0
BBX 5 11 0 0
BITMAP
00A800
002C00
004200
09FF40
00C200
01D000
04A000
077000
0A4000
0D1000
FFD000
ENDCHAR
STARTCHAR uni1ECA.a
ENCODING -1
SWIDTH 324 0
DWIDTH 4 0
BBX 5 11 0 -3
BITMAP
09FF40
00C200
01D000
04A000
077000
0A4000
0D1000
FFD000
000000
000000
680000
ENDCHAR
STARTCHAR Iogonek.a
ENCODING -1
SWIDTH 324 0
DWIDTH 4 0
BBX 5 11 0 -3
BITMAP
09FF40
00C200
01D000
04A000
077000
0A4000
0D1000
FFD000
550000
B10000
C90000
ENDCHAR
STARTCHAR a.a
ENCODING -1
SWIDTH 492 0
DWIDTH 6 0
BBX 6 6 0 0
BITMAP
03CEB0
0331C3
05BEF2
5B31E0
9719B0
4ED980
ENDCHAR
STARTCHAR agrave.a
ENCODING -1
SWIDTH 492 0
DWIDTH 6 0
BBX 6 10 0 0
BITMAP
003800
001D20
000470
000000
03CEB0
0331C3
05BEF2
5B31E0
9719B0
4ED980
ENDCHAR
STARTCHAR aacute.a
ENCODING -1
SWIDTH 492 0
DWIDTH 6 0
BBX 6 9 0 0
BITMAP
0001A4
000940
000000
03CEB0
0331C3
05BEF2
5B31E0
9719B0
4ED980
ENDCHAR
STARTCHAR acircumflex.a
ENCODING -1
SWIDTH 492 0
DWIDTH 6 0
BBX 6 9 0 0
BITMAP
001CC0
00A695
002002
03CEB0
0331C3
05BEF2
5B31E0
9719B0
4ED980
ENDCHAR
STARTCHAR atilde.a
ENCODING -1
SWIDTH 492 0
DWIDTH 6 0
BBX 6 10 0 0
BITMAP
001202
00CD3B
0272D7
000000
03CEB0
0331C3
05BEF2
5B31E0
9719B0
4ED980
ENDCHAR
STARTCHAR adieresis.a
ENCODING -1
SWIDTH 492 0
DWIDTH 6 0
BBX 6 8 0 0
BITMAP
00A275
000000
03CEB0
0331C3
05BEF2
5B31E0
9719B0
4ED980
ENDCHAR
STARTCHAR amacron.a
ENCODING -1
SWIDTH 492 0
DWIDTH 6 0
BBX 6 8 0 0
BITMAP
00BFF5
000000
03CEB0
0331C3
05BEF2
5B31E0
9719B0
4ED980
ENDCHAR
STARTCHAR abreve.a
ENCODING -1
SWIDTH 492 0
DWIDTH 6 0
BBX 6 10 0 0
BITMAP
002002
00B249
005EB1
000000
03CEB0
0331C3
05BEF2
5B31E0
9719B0
4ED980
ENDCHAR
STARTCHAR aring.a
ENCODING -1
SWIDTH 492 0
DWIDTH 6 0
BBX 6 9 0 0
BITMAP
001CC0
0056A2
003EA0
03CEB0
0331C3
05BEF2
5B31E0
9719B0
4ED980
ENDCHAR
STARTCHAR uni01CE.a
ENCODING -1
SWIDTH 492 0
DWIDTH 6 0
BBX 6 10 0 0
BITMAP
002002
00A4A5
002F80
000000
03CEB0
0331C3
05BEF2
5B31E0
9719B0
4ED980
ENDCHAR
STARTCHAR uni1EA1.a
ENCODING -1
SWIDTH 492 0
DWIDTH 6 0
BBX 6 8 0 -2
BITMAP
03CEB0
0331C3
05BEF2
5B31E0
9719B0
4ED980
000000
059000
ENDCHAR
STARTCHAR uni1EA3.a
ENCODING -1
SWIDTH 492 0
DWIDTH 6 0
BBX 6 9 0 0
BITMAP
000A80
0001C0
000520
03CEB0
0331C3
05BEF2
5B31E0
9719B0
4ED980
ENDCHAR
STARTCHAR uni1EA5.a
ENCODING -1
SWIDTH 492 0
DWIDTH 6 0
BBX 7 10 0 0
BITMAP
00000020
001DB850
00747400
00000000
03CEB000
0331C300
05BEF200
5B31E000
9719B000
4ED98000
ENDCHAR
STARTCHAR uni1EA7.a
ENCODING -1
SWIDTH 492 0
DWIDTH 6 0
BBX 6 10 0 0
BITMAP
030000
076DB0
009473
000000
03CEB0
0331C3
05BEF2
5B31E0
9719B0
4ED980
ENDCHAR
STARTCHAR uni1EA9.a
ENCODING -1
SWIDTH 492 0
DWIDTH 6 0
BBX 7 10 0 0
BITMAP
00000C30
001DB660
00747600
00000000
03CEB000
0331C300
05BEF200
5B31E000
9719B000
4ED98000
ENDCHAR
STARTCHAR uni1EAB.a
ENCODING -1
SWIDTH 492 0
DWIDTH 6 0
BBX 6 10 0 0
BITMAP
003E48
0073D5
001DB0
007473
03CEB0
0331C3
05BEF2
5B31E0
9719B0
4ED980
ENDCHAR
STARTCHAR uni1EAD.a
ENCODING -1
SWIDTH 492 0
DWIDTH 6 0
BBX 6 11 0 -2
BITMAP
001CC0
00A695
002002
03CEB0
0331C3
05BEF2
5B31E0
9719B0
4ED980
000000
059000
ENDCHAR
STARTCHAR uni1EAF.a
ENCODING -1
SWIDTH 492 0
DWIDTH 6 0
BBX 6 10 0 0
BITMAP
0021A4
00A468
004EA1
000000
03CEB0
0331C3
05BEF2
5B31E0
9719B0
4ED980
ENDCHAR
STARTCHAR uni1EB1.a
ENCODING -1
SWIDTH 492 0
DWIDTH 6 0
BBX 6 10 0 0
BITMAP
002B12
00A478
004EA1
000000
03CEB0
0331C3
05BEF2
5B31E0
9719B0
4ED980
ENDCHAR
STARTCHAR uni1EB3.a
ENCODING -1
SWIDTH 492 0
DWIDTH 6 0
BBX 6 10 0 0
BITMAP
0027A2
00A2F8
005FC1
000000
03CEB0
0331C3
05BEF2
5B31E0
9719B0
4ED980
ENDCHAR
STARTCHAR uni1EB5.a
ENCODING -1
SWIDTH 492 0
DWIDTH 6 0
BBX 6 12 0 0
BITMAP
003C48
0084D6
000000
009147
005EB1
000000
03CEB0
0331C3
05BEF2
5B31E0
9719B0
4ED980
ENDCHAR
STARTCHAR uni1EB7.a
ENCODING -1
SWIDTH 492 0
DWIDTH 6 0
BBX 6 12 0 -2
BITMAP
002002
00B249
005EB1
000000
03CEB0
0331C3
05BEF2
5B31E0
9719B0
4ED980
000000
059000
ENDCHAR
STARTCHAR aogonek.a
ENCODING -1
SWIDTH 492 0
DWIDTH 6 0
BBX 6 9 0 -3
BITMAP
03CEB0
0331C3
05BEF2
5B31D0
9718B0
4EDA80
001810
007400
006D10
ENDCHAR
STARTCHAR g.a
ENCODING -1
SWIDTH 477 0
DWIDTH 6 0
BBX 7 8 -1 -2
BITMAP
003CFFF0
00D41D00
00D13D00
00AEC300
01C10000
03EFD600
1C117A00
0AEEA200
ENDCHAR
STARTCHAR gcircumflex.a
ENCODING -1
SWIDTH 477 0
DWIDTH 6 0
BBX 7 11 -1 -2
BITMAP
0002E900
001B4B20
00120110
003CFFF0
00D41D00
00D13D00
00AEC300
01C10000
03EFD600
1C117A00
0AEEA200
ENDCHAR
STARTCHAR gbreve.a
ENCODING -1
SWIDTH 477 0
DWIDTH 6 0
BBX 7 12 -1 -2
BITMAP
00020020
000B1760
0007E900
00000000
003CFFF0
00D41D00
00D13D00
00AEC300
01C10000
03EFD600
1C117A00
0AEEA200
ENDCHAR
STARTCHAR gdotaccent.a
ENCODING -1
SWIDTH 477 0
DWIDTH 6 0
BBX 7 10 -1 -2
BITMAP
0000C100
00000000
003CFFF0
00D41D00
00D13D00
00AEC300
01C10000
03EFD600
1C117A00
0AEEA200
ENDCHAR
STARTCHAR uni0123.a
ENCODING -1
SWIDTH 477 0
DWIDTH 6 0
BBX 7 11 -1 -2
BITMAP
0001BD00
0002E200
00000000
003CFFF0
00D41D00
00D13D00
00AEC300
01C10000
03EFD600
1C117A00
0AEEA200
ENDCHAR
STARTCHAR gcaron.a
ENCODING -1
SWIDTH 477 0
DWIDTH 6 0
BBX 7 12 -1 -2
BITMAP
00020120
000C3B30
0006F500
00000000
003CFFF0
00D41D00
00D13D00
00AEC300
01C10000
03EFD600
1C117A00
0AEEA200
ENDCHAR
STARTCHAR uni1E21.a
ENCODING -1
SWIDTH 477 0
DWIDTH 6 0
BBX 7 10 -1 -2
BITMAP
000EFF20
00000000
003CFFF0
00D41D00
00D13D00
00AEC300
01C10000
03EFD600
1C117A00
0AEEA200
ENDCHAR
STARTCHAR uni00670303.a
ENCODING -1
SWIDTH 477 0
DWIDTH 6 0
BBX 7 12 -1 -2
BITMAP
00021020
001DC2A0
00545E40
00000000
003CFFF0
00D41D00
00D13D00
00AEC300
01C10000
03EFD600
1C117A00
0AEEA200
ENDCHAR
STARTCHAR l.a
ENCODING -1
SWIDTH 238 0
DWIDTH 3 0
BBX 3 9 0 0
BITMAP
00D0
03B0
0680
0950
0C20
0D00
2B00
5800
8600
ENDCHAR
STARTCHAR lacute.a
ENCODING -1
SWIDTH 238 0
DWIDTH 3 0
BBX 5 11 0 0
BITMAP
000940
009500
00D000
03B000
068000
095000
0C2000
0D0000
2B0000
580000
860000
ENDCHAR
STARTCHAR lcaron.a
ENCODING -1
SWIDTH 242 0
DWIDTH 3 0
BBX 5 9 0 0
BITMAP
00D640
03B810
068800
095000
0C2000
0D0000
2B0000
580000
860000
ENDCHAR
STARTCHAR ldot.a
ENCODING -1
SWIDTH 331 0
DWIDTH 4 0
BBX 5 9 0 0
BITMAP
00D000
03B000
068000
095000
0C2510
0D0D20
2B0000
580000
860000
ENDCHAR
STARTCHAR uni013C.a
ENCODING -1
SWIDTH 238 0
DWIDTH 3 0
BBX 4 12 -1 -3
BITMAP
000D
003B
0068
0095
00C2
00D0
02B0
0580
0860
0C40
0860
AB10
ENDCHAR
STARTCHAR uni1E37.a
ENCODING -1
SWIDTH 238 0
DWIDTH 3 0
BBX 3 11 0 -2
BITMAP
00D0
03B0
0680
0950
0C20
0D00
2B00
5800
8600
0000
C100
ENDCHAR
STARTCHAR uni1E39.a
ENCODING -1
SWIDTH 238 0
DWIDTH 3 0
BBX 5 13 0 -2
BITMAP
0BFF50
000000
00D000
03B000
068000
095000
0C2000
0D0000
2B0000
580000
860000
000000
C10000
ENDCHAR
STARTCHAR uni1E3B.a
ENCODING -1
SWIDTH 238 0
DWIDTH 3 0
BBX 4 11 -1 -2
BITMAP
000D
003B
0068
0095
00C2
00D0
02B0
0580
0860
0000
FFF1
ENDCHAR
STARTCHAR lslash.a
ENCODING -1
SWIDTH 246 0
DWIDTH 3 0
BBX 4 9 0 0
BITMAP
00E0
03C0
0692
09E3
6F40
4E10
2C00
5900
7600
ENDCHAR
STARTCHAR zero.pnum
ENCODING -1
SWIDTH 504 0
DWIDTH 6 0
BBX 6 8 0 0
BITMAP
007EC2
06B179
0D101B
4A002B
770058
7600B3
5B17B0
09EB10
ENDCHAR
STARTCHAR one.pnum
ENCODING -1
SWIDTH 340 0
DWIDTH 4 0
BBX 3 8 1 0
BITMAP
2A80
CF60
0930
0C00
1C00
4900
7600
A300
ENDCHAR
STARTCHAR two.pnum
ENCODING -1
SWIDTH 467 0
DWIDTH 6 0
BBX 7 8 -1 0
BITMAP
002BE900
00641C30
00000A20
00002B00
0001B200
002B3000
04C20000
1FFFF900
ENDCHAR
STARTCHAR three.pnum
ENCODING -1
SWIDTH 461 0
DWIDTH 6 0
BBX 6 8 0 0
BITMAP
03CEB1
0431B5
0013C2
02FE30
0017B0
0000E0
B218A0
4DEA10
ENDCHAR
STARTCHAR four.pnum
ENCODING -1
SWIDTH 485 0
DWIDTH 6 0
BBX 6 8 0 0
BITMAP
0001D5
000AC2
0085D0
0681C0
3A0490
BFFFF6
000940
000C10
ENDCHAR
STARTCHAR five.pnum
ENCODING -1
SWIDTH 461 0
DWIDTH 6 0
BBX 6 8 0 0
BITMAP
02FFF8
058000
093000
0CEE60
0414E0
0000D0
A21890
3DE910
ENDCHAR
STARTCHAR six.pnum
ENCODING -1
SWIDTH 480 0
DWIDTH 6 0
BBX 6 8 0 0
BITMAP
006DE4
05C326
0C2000
3CBE80
5C31D2
5700B2
3C14C0
07EC30
ENDCHAR
STARTCHAR seven.pnum
ENCODING -1
SWIDTH 456 0
DWIDTH 5 0
BBX 5 8 1 0
BITMAP
CFFFD0
000A30
007600
02B000
094000
1D0000
590000
950000
ENDCHAR
STARTCHAR eight.pnum
ENCODING -1
SWIDTH 480 0
DWIDTH 6 0
BBX 6 8 0 0
BITMAP
01AEC2
069169
03A298
08FFB1
5C2790
8500B2
6913D1
0AED50
ENDCHAR
STARTCHAR nine.pnum
ENCODING -1
SWIDTH 480 0
DWIDTH 6 0
BBX 6 8 0 0
BITMAP
02BE80
0C51B4
1C0066
1E22C6
07ECC4
0001D0
522B60
4EE600
ENDCHAR
STARTCHAR zero.tnum
ENCODING -1
SWIDTH 480 0
DWIDTH 6 0
BBX 6 7 0 0
BITMAP
01AEA0
0A71B4
2C0076
670084
8500D1
691990
1BEA00
ENDCHAR
STARTCHAR one.tnum
ENCODING -1
SWIDTH 480 0
DWIDTH 6 0
BBX 5 7 0 0
BITMAP
004D30
03FE00
000B00
004800
007500
00B200
9FFF80
ENDCHAR
STARTCHAR two.tnum
ENCODING -1
SWIDTH 480 0
DWIDTH 6 0
BBX 7 7 -1 0
BITMAP
003DE800
00822D20
00000B10
00006600
00086000
03B30000
1FFFFA00
ENDCHAR
STARTCHAR three.tnum
ENCODING -1
SWIDTH 480 0
DWIDTH 6 0
BBX 7 8 -1 -1
BITMAP
003CEB10
00531B40
00014C10
003FD200
00018900
00002C00
1B21A800
04DE9100
ENDCHAR
STARTCHAR four.tnum
ENCODING -1
SWIDTH 480 0
DWIDTH 6 0
BBX 7 8 -1 -1
BITMAP
00003E20
0001BD00
000B4B00
00944800
07608500
1FFFFF30
0000C000
0001C000
ENDCHAR
STARTCHAR five.tnum
ENCODING -1
SWIDTH 480 0
DWIDTH 6 0
BBX 7 8 -1 -1
BITMAP
003FFF60
00760000
00B20000
00EED400
00416C00
00001C00
1A219700
05DE8000
ENDCHAR
STARTCHAR six.tnum
ENCODING -1
SWIDTH 480 0
DWIDTH 6 0
BBX 6 8 0 0
BITMAP
006DE4
05C326
0C2000
3CBE80
5C31D2
5700B2
3C14C0
07EC30
ENDCHAR
STARTCHAR seven.tnum
ENCODING -1
SWIDTH 480 0
DWIDTH 6 0
BBX 5 8 1 -1
BITMAP
CFFFE0
000940
007600
02B000
094000
1D0000
590000
950000
ENDCHAR
STARTCHAR eight.tnum
ENCODING -1
SWIDTH 480 0
DWIDTH 6 0
BBX 6 8 0 0
BITMAP
01AEC2
069169
03A298
08FFB1
5C2790
8500B2
6913D1
0AED50
ENDCHAR
STARTCHAR nine.tnum
ENCODING -1
SWIDTH 480 0
DWIDTH 6 0
BBX 6 8 0 -1
BITMAP
04DE70
1D32D2
580094
4B13D4
0AEAD1
0003C0
613D40
6ED500
ENDCHAR
STARTCHAR zero.onum
ENCODING -1
SWIDTH 480 0
DWIDTH 6 0
BBX 6 7 0 0
BITMAP
01AEA0
0A71B4
2C0076
670084
8500D1
691990
1BEA00
ENDCHAR
STARTCHAR one.onum
ENCODING -1
SWIDTH 342 0
DWIDTH 4 0
BBX 4 7 0 0
BITMAP
03C5
1FF2
00C0
01B0
0580
0850
0C20
ENDCHAR
STARTCHAR two.onum
ENCODING -1
SWIDTH 462 0
DWIDTH 6 0
BBX 6 7 -1 0
BITMAP
003DE6
00822E
00000C
000085
001950
03B300
1FFFF8
ENDCHAR
STARTCHAR three.onum
ENCODING -1
SWIDTH 480 0
DWIDTH 6 0
BBX 7 8 -1 -1
BITMAP
003CEB10
00531B40
00014C10
003FD200
00018900
00002C00
1B21A800
04DE9100
ENDCHAR
STARTCHAR four.onum
ENCODING -1
SWIDTH 480 0
DWIDTH 6 0
BBX 7 8 -1 -1
BITMAP
00003E20
0001BD00
000B4B00
00944800
07608500
1FFFFF30
0000C000
0001C000
ENDCHAR
STARTCHAR five.onum
ENCODING -1
SWIDTH 480 0
DWIDTH 6 0
BBX 7 8 -1 -1
BITMAP
003FFF60
00760000
00B20000
00EED400
00416C00
00001C00
1A219700
05DE8000
ENDCHAR
STARTCHAR six.onum
ENCODING -1
SWIDTH 480 0
DWIDTH 6 0
BBX 6 8 0 0
BITMAP
006DE4
05C326
0C2000
3CBE80
5C31D2
5700B2
3C14C0
07EC30
ENDCHAR
STARTCHAR seven.onum
ENCODING -1
SWIDTH 456 0
DWIDTH 5 0
BBX 5 8 1 -1
BITMAP
EFFFA0
001B10
00A300
058000
0C1000
4A0000
950000
D10000
ENDCHAR
STARTCHAR eight.onum
ENCODING -1
SWIDTH 480 0
DWIDTH 6 0
BBX 6 8 0 0
BITMAP
01AEC2
069169
03A298
08FFB1
5C2790
8500B2
6913D1
0AED50
ENDCHAR
STARTCHAR nine.onum
ENCODING -1
SWIDTH 480 0
DWIDTH 6 0
BBX 6 8 0 -1
BITMAP
04DE70
1D32D2
580094
4B13D4
0AEAD1
0003C0
613D40
6ED500
ENDCHAR
STARTCHAR at.case
ENCODING -1
SWIDTH 802 0
DWIDTH 10 0
BBX 9 8 1 0
BITMAP
004BEEA200
06C4115C00
3B19EA1820
92671A0720
A0935A2B00
B15E9CD400
6B30210000
06DEB10000
ENDCHAR
STARTCHAR period.sups
ENCODING -1
SWIDTH 170 0
DWIDTH 2 0
BBX 1 1 1 5
BITMAP
B0
ENDCHAR
STARTCHAR comma.sups
ENCODING -1
SWIDTH 170 0
DWIDTH 2 0
BBX 2 2 0 4
BITMAP
0D
25
ENDCHAR
STARTCHAR period.subs
ENCODING -1
SWIDTH 170 0
DWIDTH 2 0
BBX 2 1 -1 -2
BITMAP
47
ENDCHAR
STARTCHAR comma.subs
ENCODING -1
SWIDTH 170 0
DWIDTH 2 0
BBX 2 2 -1 -3
BITMAP
49
43
ENDCHAR
STARTCHAR zero.dnom
ENCODING -1
SWIDTH 357 0
DWIDTH 4 0
BBX 4 5 0 0
BITMAP
0AE5
772B
A00A
B277
5EB0
ENDCHAR
STARTCHAR one.dnom
ENCODING -1
SWIDTH 356 0
DWIDTH 4 0
BBX 2 5 1 0
BITMAP
8D
0A
29
56
53
ENDCHAR
STARTCHAR two.dnom
ENCODING -1
SWIDTH 353 0
DWIDTH 4 0
BBX 4 5 0 0
BITMAP
0AE5
1448
0051
0420
AFF2
ENDCHAR
STARTCHAR three.dnom
ENCODING -1
SWIDTH 351 0
DWIDTH 4 0
BBX 4 5 0 0
BITMAP
1BE5
0367
0AC1
6193
5EB1
ENDCHAR
STARTCHAR four.dnom
ENCODING -1
SWIDTH 354 0
DWIDTH 4 0
BBX 4 6 0 -1
BITMAP
0097
05A4
2581
BFF9
00A0
0030
ENDCHAR
STARTCHAR five.dnom
ENCODING -1
SWIDTH 351 0
DWIDTH 4 0
BBX 4 5 0 0
BITMAP
0CFB
0900
3EE3
7386
5EB1
ENDCHAR
STARTCHAR six.dnom
ENCODING -1
SWIDTH 353 0
DWIDTH 4 0
BBX 4 5 0 0
BITMAP
08E8
5812
9CE3
A366
4EC1
ENDCHAR
STARTCHAR seven.dnom
ENCODING -1
SWIDTH 353 0
DWIDTH 4 0
BBX 4 6 0 -1
BITMAP
2FFE
0055
0290
0820
0B00
0100
ENDCHAR
STARTCHAR eight.dnom
ENCODING -1
SWIDTH 353 0
DWIDTH 4 0
BBX 4 5 0 0
BITMAP
0BE5
1A28
2241
B284
7EB1
ENDCHAR
STARTCHAR nine.dnom
ENCODING -1
SWIDTH 353 0
DWIDTH 4 0
BBX 4 5 0 0
BITMAP
1CD3
7649
4EC8
2194
9E80
ENDCHAR
STARTCHAR parenleft.dnom
ENCODING -1
SWIDTH 227 0
DWIDTH 3 0
BBX 3 7 0 -1
BITMAP
0270
0A10
3800
7400
8300
7300
3500
ENDCHAR
STARTCHAR parenright.dnom
ENCODING -1
SWIDTH 226 0
DWIDTH 3 0
BBX 3 7 -1 -1
BITMAP
0080
00A0
00A0
00A0
0190
0730
1700
ENDCHAR
STARTCHAR period.dnom
ENCODING -1
SWIDTH 170 0
DWIDTH 2 0
BBX 1 1 0 0
BITMAP
B0
ENDCHAR
STARTCHAR comma.dnom
ENCODING -1
SWIDTH 170 0
DWIDTH 2 0
BBX 2 2 -1 -1
BITMAP
0C
25
ENDCHAR
STARTCHAR zero.numr
ENCODING -1
SWIDTH 357 0
DWIDTH 4 0
BBX 5 5 0 3
BITMAP
03DC10
0B2760
280550
3A1B10
0BE600
ENDCHAR
STARTCHAR one.numr
ENCODING -1
SWIDTH 356 0
DWIDTH 4 0
BBX 3 5 1 3
BITMAP
2B90
0560
0830
0A00
0800
ENDCHAR
STARTCHAR two.numr
ENCODING -1
SWIDTH 353 0
DWIDTH 4 0
BBX 5 5 0 3
BITMAP
03EC10
042A20
000600
014000
3EFB00
ENDCHAR
STARTCHAR three.numr
ENCODING -1
SWIDTH 351 0
DWIDTH 4 0
BBX 5 5 0 3
BITMAP
04EC10
022B10
01F700
252B00
0AE700
ENDCHAR
STARTCHAR four.numr
ENCODING -1
SWIDTH 354 0
DWIDTH 4 0
BBX 5 6 0 2
BITMAP
001E10
009A00
052900
2FFF30
004500
002100
ENDCHAR
STARTCHAR five.numr
ENCODING -1
SWIDTH 351 0
DWIDTH 4 0
BBX 5 5 0 3
BITMAP
03FF50
064000
09EA00
272C00
0AE600
ENDCHAR
STARTCHAR six.numr
ENCODING -1
SWIDTH 353 0
DWIDTH 4 0
BBX 5 5 0 3
BITMAP
02CE30
0A3110
0DEB00
1C1C00
09E700
ENDCHAR
STARTCHAR seven.numr
ENCODING -1
SWIDTH 353 0
DWIDTH 4 0
BBX 4 5 1 3
BITMAP
8FF8
0091
0740
0A00
5600
ENDCHAR
STARTCHAR eight.numr
ENCODING -1
SWIDTH 353 0
DWIDTH 4 0
BBX 5 5 0 3
BITMAP
03ED10
074820
040500
392B00
1CE700
ENDCHAR
STARTCHAR nine.numr
ENCODING -1
SWIDTH 353 0
DWIDTH 4 0
BBX 5 5 0 3
BITMAP
06EA00
0B1A30
09ED20
022B00
2DC300
ENDCHAR
STARTCHAR parenleft.numr
ENCODING -1
SWIDTH 227 0
DWIDTH 3 0
BBX 3 7 1 2
BITMAP
0720
3800
9200
B000
A000
A000
8000
ENDCHAR
STARTCHAR parenright.numr
ENCODING -1
SWIDTH 226 0
DWIDTH 3 0
BBX 3 7 0 2
BITMAP
0530
0370
0280
0370
0730
0A00
6200
ENDCHAR
STARTCHAR period.numr
ENCODING -1
SWIDTH 170 0
DWIDTH 2 0
BBX 2 1 0 3
BITMAP
47
ENDCHAR
STARTCHAR comma.numr
ENCODING -1
SWIDTH 170 0
DWIDTH 2 0
BBX 2 2 0 2
BITMAP
49
43
ENDCHAR
STARTCHAR ordfeminine.a
ENCODING -1
SWIDTH 333 0
DWIDTH 4 0
BBX 4 5 0 4
BITMAP
08E8
021B
09E9
6757
4E72
ENDCHAR
STARTCHAR q.sups
ENCODING -1
SWIDTH 356 0
DWIDTH 4 0
BBX 5 7 0 2
BITMAP
04D830
0C2940
380920
483C00
1DBA00
002800
001100
ENDCHAR
STARTCHAR egrave.sups
ENCODING -1
SWIDTH 323 0
DWIDTH 4 0
BBX 4 7 0 4
BITMAP
0081
0025
04E9
1B1A
3FFF
3811
0BE4
ENDCHAR
STARTCHAR eacute.sups
ENCODING -1
SWIDTH 323 0
DWIDTH 4 0
BBX 5 7 0 4
BITMAP
000810
004300
04E900
1B1A00
3FFF00
381100
0BE400
ENDCHAR
STARTCHAR a.supa
ENCODING -1
SWIDTH 333 0
DWIDTH 4 0
BBX 4 5 0 4
BITMAP
05EA
021B
08DC
3939
2E83
ENDCHAR
STARTCHAR g.supa
ENCODING -1
SWIDTH 324 0
DWIDTH 4 0
BBX 5 6 0 3
BITMAP
06EF60
0B2A00
0CE500
081000
614800
7FD300
ENDCHAR
STARTCHAR l.supa
ENCODING -1
SWIDTH 164 0
DWIDTH 2 0
BBX 3 6 0 5
BITMAP
0560
0730
0A00
0A00
1A00
4700
ENDCHAR
STARTCHAR slash.frac
ENCODING -1
SWIDTH 84 0
DWIDTH 1 0
BBX 7 8 -3 0
BITMAP
00000270
00000900
00007200
00045000
00180000
00910000
06300000
36000000
ENDCHAR
STARTCHAR uni0300.cap
ENCODING -1
SWIDTH 0 0
DWIDTH 0 0
BBX 3 2 0 8
BITMAP
8500
1A10
ENDCHAR
STARTCHAR uni0301.cap
ENCODING -1
SWIDTH 0 0
DWIDTH 0 0
BBX 3 2 1 8
BITMAP
1A20
A400
ENDCHAR
STARTCHAR uni0302.cap
ENCODING -1
SWIDTH 0 0
DWIDTH 0 0
BBX 5 2 -1 8
BITMAP
03E900
1B3A20
ENDCHAR
STARTCHAR uni0303.cap
ENCODING -1
SWIDTH 0 0
DWIDTH 0 0
BBX 5 3 -1 9
BITMAP
010000
2DC2A0
646E40
ENDCHAR
STARTCHAR uni0304.cap
ENCODING -1
SWIDTH 0 0
DWIDTH 0 0
BBX 4 1 0 9
BITMAP
EFF2
ENDCHAR
STARTCHAR uni0306.cap
ENCODING -1
SWIDTH 0 0
DWIDTH 0 0
BBX 4 2 0 8
BITMAP
B174
7E80
ENDCHAR
STARTCHAR uni0307.cap
ENCODING -1
SWIDTH 0 0
DWIDTH 0 0
BBX 2 1 1 9
BITMAP
C2
ENDCHAR
STARTCHAR uni0308.cap
ENCODING -1
SWIDTH 0 0
DWIDTH 0 0
BBX 4 1 0 9
BITMAP
B092
ENDCHAR
STARTCHAR uni0309.cap
ENCODING -1
SWIDTH 0 0
DWIDTH 0 0
BBX 3 3 0 8
BITMAP
1D30
0760
0500
ENDCHAR
STARTCHAR uni030A.cap
ENCODING -1
SWIDTH 0 0
DWIDTH 0 0
BBX 3 3 0 8
BITMAP
2D80
74A0
4E60
ENDCHAR
STARTCHAR uni030B.cap
ENCODING -1
SWIDTH 0 0
DWIDTH 0 0
BBX 5 3 0 8
BITMAP
000310
094A10
554100
ENDCHAR
STARTCHAR uni030C.cap
ENCODING -1
SWIDTH 0 0
DWIDTH 0 0
BBX 4 2 0 8
BITMAP
B3A3
5F60
ENDCHAR
STARTCHAR uni030F.cap
ENCODING -1
SWIDTH 0 0
DWIDTH 0 0
BBX 4 3 -1 8
BITMAP
0040
7466
1805
ENDCHAR
STARTCHAR uni0327.cap
ENCODING -1
SWIDTH 0 0
DWIDTH 0 0
BBX 3 3 -2 -3
BITMAP
0A20
0660
9C30
ENDCHAR
STARTCHAR uni0328.cap
ENCODING -1
SWIDTH 0 0
DWIDTH 0 0
BBX 3 3 -2 -2
BITMAP
0820
4800
2E50
ENDCHAR
STARTCHAR uni03080304
ENCODING -1
SWIDTH 0 0
DWIDTH 0 0
BBX 4 3 0 7
BITMAP
AFF6
0000
A0A1
ENDCHAR
STARTCHAR uni03080304.cap
ENCODING -1
SWIDTH 0 0
DWIDTH 0 0
BBX 4 2 0 9
BITMAP
AFF7
B092
ENDCHAR
STARTCHAR uni03080301
ENCODING -1
SWIDTH 0 0
DWIDTH 0 0
BBX 4 3 0 7
BITMAP
02A0
0310
A0A1
ENDCHAR
STARTCHAR uni03080301.cap
ENCODING -1
SWIDTH 0 0
DWIDTH 0 0
BBX 4 3 0 9
BITMAP
0041
0580
B092
ENDCHAR
STARTCHAR uni0308030C
ENCODING -1
SWIDTH 0 0
DWIDTH 0 0
BBX 4 3 0 7
BITMAP
6474
1E90
A0A1
ENDCHAR
STARTCHAR uni0308030C.cap
ENCODING -1
SWIDTH 0 0
DWIDTH 0 0
BBX 4 3 0 9
BITMAP
4564
1DA0
B092
ENDCHAR
STARTCHAR uni03080300
ENCODING -1
SWIDTH 0 0
DWIDTH 0 0
BBX 4 3 0 7
BITMAP
1A00
0400
A0A1
ENDCHAR
STARTCHAR uni03080300.cap
ENCODING -1
SWIDTH 0 0
DWIDTH 0 0
BBX 4 3 0 9
BITMAP
1500
0A10
B092
ENDCHAR
STARTCHAR uni03020301
ENCODING -1
SWIDTH 0 0
DWIDTH 0 0
BBX 5 3 0 7
BITMAP
000110
4F7A20
929100
ENDCHAR
STARTCHAR uni03020301.cap
ENCODING -1
SWIDTH 0 0
DWIDTH 0 0
BBX 5 3 0 8
BITMAP
000330
2E8700
839000
ENDCHAR
STARTCHAR uni03020300
ENCODING -1
SWIDTH 0 0
DWIDTH 0 0
BBX 4 3 -1 7
BITMAP
3000
B5F6
2A29
ENDCHAR
STARTCHAR uni03020300.cap
ENCODING -1
SWIDTH 0 0
DWIDTH 0 0
BBX 4 3 -1 8
BITMAP
5100
17E8
0839
ENDCHAR
STARTCHAR uni03020309
ENCODING -1
SWIDTH 0 0
DWIDTH 0 0
BBX 5 3 0 7
BITMAP
003C10
4F6A20
929300
ENDCHAR
STARTCHAR uni03020309.cap
ENCODING -1
SWIDTH 0 0
DWIDTH 0 0
BBX 5 3 0 8
BITMAP
002C10
2E8A30
839300
ENDCHAR
STARTCHAR uni03020303
ENCODING -1
SWIDTH 0 0
DWIDTH 0 0
BBX 4 4 0 6
BITMAP
7C46
85D2
4F60
9290
ENDCHAR
STARTCHAR uni03020303.cap
ENCODING -1
SWIDTH 0 0
DWIDTH 0 0
BBX 4 3 0 8
BITMAP
6D38
BFF4
8380
ENDCHAR
STARTCHAR uni03060301
ENCODING -1
SWIDTH 0 0
DWIDTH 0 0
BBX 5 3 -1 7
BITMAP
022B20
1A5840
08E700
ENDCHAR
STARTCHAR uni03060301.cap
ENCODING -1
SWIDTH 0 0
DWIDTH 0 0
BBX 4 4 0 8
BITMAP
0040
0680
B174
7E80
ENDCHAR
STARTCHAR uni03060300
ENCODING -1
SWIDTH 0 0
DWIDTH 0 0
BBX 5 3 -1 7
BITMAP
03A020
1A5840
08E700
ENDCHAR
STARTCHAR uni03060300.cap
ENCODING -1
SWIDTH 0 0
DWIDTH 0 0
BBX 4 4 0 8
BITMAP
1400
0A10
B274
7E80
ENDCHAR
STARTCHAR uni03060309
ENCODING -1
SWIDTH 0 0
DWIDTH 0 0
BBX 5 3 -1 7
BITMAP
02B620
1A5F40
08F700
ENDCHAR
STARTCHAR uni03060309.cap
ENCODING -1
SWIDTH 0 0
DWIDTH 0 0
BBX 4 4 0 8
BITMAP
0960
0490
B374
7E80
ENDCHAR
STARTCHAR uni03060303
ENCODING -1
SWIDTH 0 0
DWIDTH 0 0
BBX 5 5 -1 7
BITMAP
07B360
096E20
000000
191830
0AE800
ENDCHAR
STARTCHAR uni03060303.cap
ENCODING -1
SWIDTH 0 0
DWIDTH 0 0
BBX 4 5 0 9
BITMAP
7D38
94E4
0000
A174
8EA0
ENDCHAR
STARTCHAR uni030C.a
ENCODING -1
SWIDTH 0 0
DWIDTH 0 0
BBX 2 3 0 6
BITMAP
55
72
80
ENDCHAR
STARTCHAR uni0326.a
ENCODING -1
SWIDTH 0 0
DWIDTH 0 0
BBX 3 2 0 7
BITMAP
3C90
6C00
ENDCHAR
STARTCHAR space.frac
ENCODING -1
SWIDTH 132 0
DWIDTH 2 0
BBX 1 1 0 0
BITMAP
00
ENDCHAR
STARTCHAR nbspace.frac
ENCODING -1
SWIDTH 132 0
DWIDTH 2 0
BBX 1 1 0 0
BITMAP
00
ENDCHAR
STARTCHAR uni03020306
ENCODING -1
SWIDTH 0 0
DWIDTH 0 0
BBX 4 4 0 6
BITMAP
5142
4E90
4F50
8270
ENDCHAR
STARTCHAR uni03020306.cap
ENCODING -1
SWIDTH 0 0
DWIDTH 0 0
BBX 4 4 0 8
BITMAP
5235
3EC1
2E70
8390
ENDCHAR
STARTCHAR zero.0
ENCODING -1
SWIDTH 480 0
DWIDTH 6 0
BBX 6 8 0 0
BITMAP
008EA0
07A195
0C1048
490057
667885
7500C1
5A1980
0AE900
ENDCHAR
STARTCHAR zero.0s
ENCODING -1
SWIDTH 480 0
DWIDTH 6 0
BBX 6 8 0 0
BITMAP
008EA0
07A1A5
0C8058
497267
671885
7607D1
5A1A80
0AE900
ENDCHAR
STARTCHAR zero.0p
ENCODING -1
SWIDTH 504 0
DWIDTH 6 0
BBX 6 8 0 0
BITMAP
007EC2
06B179
0D101B
4A002B
776A58
7600B3
5B17B0
09EB10
ENDCHAR
STARTCHAR zero.0ps
ENCODING -1
SWIDTH 504 0
DWIDTH 6 0
BBX 6 8 0 0
BITMAP
007EC2
06B179
0C801B
49632B
770958
7605D3
5B17B0
09EB10
ENDCHAR
STARTCHAR uni03040301
ENCODING -1
SWIDTH 0 0
DWIDTH 0 0
BBX 4 3 -1 7
BITMAP
0029
0030
1FFF
ENDCHAR
STARTCHAR uni03040301.cap
ENCODING -1
SWIDTH 0 0
DWIDTH 0 0
BBX 4 3 0 9
BITMAP
0041
0580
EFF2
ENDCHAR
ENDFONT
